%TF.GenerationSoftware,KiCad,Pcbnew,7.0.7*%
%TF.CreationDate,2024-01-12T23:19:41+09:00*%
%TF.ProjectId,Skeleton8,536b656c-6574-46f6-9e38-2e6b69636164,rev?*%
%TF.SameCoordinates,Original*%
%TF.FileFunction,Profile,NP*%
%FSLAX46Y46*%
G04 Gerber Fmt 4.6, Leading zero omitted, Abs format (unit mm)*
G04 Created by KiCad (PCBNEW 7.0.7) date 2024-01-12 23:19:41*
%MOMM*%
%LPD*%
G01*
G04 APERTURE LIST*
%TA.AperFunction,Profile*%
%ADD10C,0.100000*%
%TD*%
%TA.AperFunction,Profile*%
%ADD11C,0.120000*%
%TD*%
G04 APERTURE END LIST*
D10*
X46243750Y-45243750D02*
X58531250Y-45243750D01*
X59531250Y-44243750D02*
X59531250Y-36718750D01*
X73818750Y-44243750D02*
G75*
G03*
X74818750Y-45243750I999950J-50D01*
G01*
X73818750Y-36718750D02*
G75*
G03*
X72818750Y-35718750I-999950J50D01*
G01*
X46243750Y-45243750D02*
G75*
G03*
X45243750Y-46243750I-50J-999950D01*
G01*
X126206250Y-87106250D02*
X126206250Y-46243750D01*
X45243750Y-87106250D02*
G75*
G03*
X46243750Y-88106250I999950J-50D01*
G01*
X125206250Y-88106250D02*
X46243750Y-88106250D01*
X60531250Y-35718750D02*
X72818750Y-35718750D01*
X126206250Y-46243750D02*
G75*
G03*
X125206250Y-45243750I-999950J50D01*
G01*
X60531250Y-35718750D02*
G75*
G03*
X59531250Y-36718750I-50J-999950D01*
G01*
X58531250Y-45243750D02*
G75*
G03*
X59531250Y-44243750I50J999950D01*
G01*
X73818750Y-36718750D02*
X73818750Y-44243750D01*
X125206250Y-88106250D02*
G75*
G03*
X126206250Y-87106250I50J999950D01*
G01*
X45243750Y-46243750D02*
X45243750Y-87106250D01*
X74818750Y-45243750D02*
X125206250Y-45243750D01*
D11*
%TO.C,LED4*%
X115350000Y-60762500D02*
X113250000Y-60762500D01*
X113250000Y-60762500D02*
X113250000Y-63062500D01*
X113250000Y-63062500D02*
X115350000Y-63062500D01*
X115350000Y-63062500D02*
X115350000Y-60762500D01*
%TO.C,LED6*%
X77250000Y-79812500D02*
X75150000Y-79812500D01*
X75150000Y-79812500D02*
X75150000Y-82112500D01*
X75150000Y-82112500D02*
X77250000Y-82112500D01*
X77250000Y-82112500D02*
X77250000Y-79812500D01*
%TO.C,LED3*%
X96300000Y-60762500D02*
X94200000Y-60762500D01*
X94200000Y-60762500D02*
X94200000Y-63062500D01*
X94200000Y-63062500D02*
X96300000Y-63062500D01*
X96300000Y-63062500D02*
X96300000Y-60762500D01*
%TO.C,LED5*%
X58200000Y-79812500D02*
X56100000Y-79812500D01*
X56100000Y-79812500D02*
X56100000Y-82112500D01*
X56100000Y-82112500D02*
X58200000Y-82112500D01*
X58200000Y-82112500D02*
X58200000Y-79812500D01*
%TO.C,LED7*%
X96300000Y-79812500D02*
X94200000Y-79812500D01*
X94200000Y-79812500D02*
X94200000Y-82112500D01*
X94200000Y-82112500D02*
X96300000Y-82112500D01*
X96300000Y-82112500D02*
X96300000Y-79812500D01*
%TO.C,LED8*%
X115350000Y-79812500D02*
X113250000Y-79812500D01*
X113250000Y-79812500D02*
X113250000Y-82112500D01*
X113250000Y-82112500D02*
X115350000Y-82112500D01*
X115350000Y-82112500D02*
X115350000Y-79812500D01*
%TO.C,LED1*%
X58200000Y-60762500D02*
X56100000Y-60762500D01*
X56100000Y-60762500D02*
X56100000Y-63062500D01*
X56100000Y-63062500D02*
X58200000Y-63062500D01*
X58200000Y-63062500D02*
X58200000Y-60762500D01*
%TO.C,LED2*%
X77250000Y-60762500D02*
X75150000Y-60762500D01*
X75150000Y-60762500D02*
X75150000Y-63062500D01*
X75150000Y-63062500D02*
X77250000Y-63062500D01*
X77250000Y-63062500D02*
X77250000Y-60762500D01*
%TD*%
M02*
