%TF.GenerationSoftware,KiCad,Pcbnew,7.0.7*%
%TF.CreationDate,2024-01-09T04:45:59+09:00*%
%TF.ProjectId,Skeleton8,536b656c-6574-46f6-9e38-2e6b69636164,rev?*%
%TF.SameCoordinates,Original*%
%TF.FileFunction,Legend,Top*%
%TF.FilePolarity,Positive*%
%FSLAX46Y46*%
G04 Gerber Fmt 4.6, Leading zero omitted, Abs format (unit mm)*
G04 Created by KiCad (PCBNEW 7.0.7) date 2024-01-09 04:45:59*
%MOMM*%
%LPD*%
G01*
G04 APERTURE LIST*
%ADD10C,0.150000*%
%ADD11C,2.000000*%
%ADD12C,1.701800*%
%ADD13C,3.000000*%
%ADD14C,3.987800*%
%ADD15C,0.650000*%
%ADD16O,1.300000X1.900000*%
%ADD17O,1.100000X2.200000*%
G04 APERTURE END LIST*
D10*
X128706696Y-96752884D02*
X128373363Y-96752884D01*
X128373363Y-97276694D02*
X128373363Y-96276694D01*
X128373363Y-96276694D02*
X128849553Y-96276694D01*
X129230506Y-97276694D02*
X129230506Y-96276694D01*
X129706696Y-97276694D02*
X129706696Y-96276694D01*
X129706696Y-96276694D02*
X129944791Y-96276694D01*
X129944791Y-96276694D02*
X130087648Y-96324313D01*
X130087648Y-96324313D02*
X130182886Y-96419551D01*
X130182886Y-96419551D02*
X130230505Y-96514789D01*
X130230505Y-96514789D02*
X130278124Y-96705265D01*
X130278124Y-96705265D02*
X130278124Y-96848122D01*
X130278124Y-96848122D02*
X130230505Y-97038598D01*
X130230505Y-97038598D02*
X130182886Y-97133836D01*
X130182886Y-97133836D02*
X130087648Y-97229075D01*
X130087648Y-97229075D02*
X129944791Y-97276694D01*
X129944791Y-97276694D02*
X129706696Y-97276694D01*
X131135267Y-96610027D02*
X131135267Y-97276694D01*
X130897172Y-96229075D02*
X130659077Y-96943360D01*
X130659077Y-96943360D02*
X131278124Y-96943360D01*
X128706696Y-38412259D02*
X128373363Y-38412259D01*
X128373363Y-38936069D02*
X128373363Y-37936069D01*
X128373363Y-37936069D02*
X128849553Y-37936069D01*
X129230506Y-38936069D02*
X129230506Y-37936069D01*
X129706696Y-38936069D02*
X129706696Y-37936069D01*
X129706696Y-37936069D02*
X129944791Y-37936069D01*
X129944791Y-37936069D02*
X130087648Y-37983688D01*
X130087648Y-37983688D02*
X130182886Y-38078926D01*
X130182886Y-38078926D02*
X130230505Y-38174164D01*
X130230505Y-38174164D02*
X130278124Y-38364640D01*
X130278124Y-38364640D02*
X130278124Y-38507497D01*
X130278124Y-38507497D02*
X130230505Y-38697973D01*
X130230505Y-38697973D02*
X130182886Y-38793211D01*
X130182886Y-38793211D02*
X130087648Y-38888450D01*
X130087648Y-38888450D02*
X129944791Y-38936069D01*
X129944791Y-38936069D02*
X129706696Y-38936069D01*
X130611458Y-37936069D02*
X131230505Y-37936069D01*
X131230505Y-37936069D02*
X130897172Y-38317021D01*
X130897172Y-38317021D02*
X131040029Y-38317021D01*
X131040029Y-38317021D02*
X131135267Y-38364640D01*
X131135267Y-38364640D02*
X131182886Y-38412259D01*
X131182886Y-38412259D02*
X131230505Y-38507497D01*
X131230505Y-38507497D02*
X131230505Y-38745592D01*
X131230505Y-38745592D02*
X131182886Y-38840830D01*
X131182886Y-38840830D02*
X131135267Y-38888450D01*
X131135267Y-38888450D02*
X131040029Y-38936069D01*
X131040029Y-38936069D02*
X130754315Y-38936069D01*
X130754315Y-38936069D02*
X130659077Y-38888450D01*
X130659077Y-38888450D02*
X130611458Y-38840830D01*
X40600446Y-38412259D02*
X40267113Y-38412259D01*
X40267113Y-38936069D02*
X40267113Y-37936069D01*
X40267113Y-37936069D02*
X40743303Y-37936069D01*
X41124256Y-38936069D02*
X41124256Y-37936069D01*
X41600446Y-38936069D02*
X41600446Y-37936069D01*
X41600446Y-37936069D02*
X41838541Y-37936069D01*
X41838541Y-37936069D02*
X41981398Y-37983688D01*
X41981398Y-37983688D02*
X42076636Y-38078926D01*
X42076636Y-38078926D02*
X42124255Y-38174164D01*
X42124255Y-38174164D02*
X42171874Y-38364640D01*
X42171874Y-38364640D02*
X42171874Y-38507497D01*
X42171874Y-38507497D02*
X42124255Y-38697973D01*
X42124255Y-38697973D02*
X42076636Y-38793211D01*
X42076636Y-38793211D02*
X41981398Y-38888450D01*
X41981398Y-38888450D02*
X41838541Y-38936069D01*
X41838541Y-38936069D02*
X41600446Y-38936069D01*
X43124255Y-38936069D02*
X42552827Y-38936069D01*
X42838541Y-38936069D02*
X42838541Y-37936069D01*
X42838541Y-37936069D02*
X42743303Y-38078926D01*
X42743303Y-38078926D02*
X42648065Y-38174164D01*
X42648065Y-38174164D02*
X42552827Y-38221783D01*
X40600446Y-96752884D02*
X40267113Y-96752884D01*
X40267113Y-97276694D02*
X40267113Y-96276694D01*
X40267113Y-96276694D02*
X40743303Y-96276694D01*
X41124256Y-97276694D02*
X41124256Y-96276694D01*
X41600446Y-97276694D02*
X41600446Y-96276694D01*
X41600446Y-96276694D02*
X41838541Y-96276694D01*
X41838541Y-96276694D02*
X41981398Y-96324313D01*
X41981398Y-96324313D02*
X42076636Y-96419551D01*
X42076636Y-96419551D02*
X42124255Y-96514789D01*
X42124255Y-96514789D02*
X42171874Y-96705265D01*
X42171874Y-96705265D02*
X42171874Y-96848122D01*
X42171874Y-96848122D02*
X42124255Y-97038598D01*
X42124255Y-97038598D02*
X42076636Y-97133836D01*
X42076636Y-97133836D02*
X41981398Y-97229075D01*
X41981398Y-97229075D02*
X41838541Y-97276694D01*
X41838541Y-97276694D02*
X41600446Y-97276694D01*
X42552827Y-96371932D02*
X42600446Y-96324313D01*
X42600446Y-96324313D02*
X42695684Y-96276694D01*
X42695684Y-96276694D02*
X42933779Y-96276694D01*
X42933779Y-96276694D02*
X43029017Y-96324313D01*
X43029017Y-96324313D02*
X43076636Y-96371932D01*
X43076636Y-96371932D02*
X43124255Y-96467170D01*
X43124255Y-96467170D02*
X43124255Y-96562408D01*
X43124255Y-96562408D02*
X43076636Y-96705265D01*
X43076636Y-96705265D02*
X42505208Y-97276694D01*
X42505208Y-97276694D02*
X43124255Y-97276694D01*
%LPC*%
D11*
%TO.C,FID4*%
X129778125Y-98821875D03*
%TD*%
%TO.C,FID3*%
X129778125Y-40481250D03*
%TD*%
%TO.C,FID1*%
X41671875Y-40481250D03*
%TD*%
%TO.C,FID2*%
X41671875Y-98821875D03*
%TD*%
D12*
%TO.C,SW8*%
X119380000Y-76200000D03*
D13*
X116840000Y-71120000D03*
D14*
X114300000Y-76200000D03*
D13*
X110490000Y-73660000D03*
D12*
X109220000Y-76200000D03*
%TD*%
%TO.C,SW5*%
X62230000Y-76200000D03*
D13*
X59690000Y-71120000D03*
D14*
X57150000Y-76200000D03*
D13*
X53340000Y-73660000D03*
D12*
X52070000Y-76200000D03*
%TD*%
%TO.C,SW1*%
X62230000Y-57150000D03*
D13*
X59690000Y-52070000D03*
D14*
X57150000Y-57150000D03*
D13*
X53340000Y-54610000D03*
D12*
X52070000Y-57150000D03*
%TD*%
%TO.C,SW4*%
X119380000Y-57150000D03*
D13*
X116840000Y-52070000D03*
D14*
X114300000Y-57150000D03*
D13*
X110490000Y-54610000D03*
D12*
X109220000Y-57150000D03*
%TD*%
%TO.C,SW2*%
X81280000Y-57150000D03*
D13*
X78740000Y-52070000D03*
D14*
X76200000Y-57150000D03*
D13*
X72390000Y-54610000D03*
D12*
X71120000Y-57150000D03*
%TD*%
%TO.C,SW6*%
X81280000Y-76200000D03*
D13*
X78740000Y-71120000D03*
D14*
X76200000Y-76200000D03*
D13*
X72390000Y-73660000D03*
D12*
X71120000Y-76200000D03*
%TD*%
%TO.C,SW3*%
X100330000Y-57150000D03*
D13*
X97790000Y-52070000D03*
D14*
X95250000Y-57150000D03*
D13*
X91440000Y-54610000D03*
D12*
X90170000Y-57150000D03*
%TD*%
D15*
%TO.C,J1*%
X63785000Y-40799625D03*
X69565000Y-40799625D03*
D16*
X62375000Y-37150625D03*
D17*
X62375000Y-41350625D03*
D16*
X70975000Y-37150625D03*
D17*
X70975000Y-41350625D03*
%TD*%
D12*
%TO.C,SW7*%
X100330000Y-76200000D03*
D13*
X97790000Y-71120000D03*
D14*
X95250000Y-76200000D03*
D13*
X91440000Y-73660000D03*
D12*
X90170000Y-76200000D03*
%TD*%
%LPD*%
M02*
