M48
; DRILL file {KiCad 7.0.7} date Tue Jan  9 04:45:59 2024
; FORMAT={-:-/ absolute / inch / decimal}
; #@! TF.CreationDate,2024-01-09T04:45:59+09:00
; #@! TF.GenerationSoftware,Kicad,Pcbnew,7.0.7
; #@! TF.FileFunction,Plated,1,2,PTH
FMAT,2
INCH
; #@! TA.AperFunction,Plated,PTH,ViaDrill
T1C0.0157
; #@! TA.AperFunction,Plated,PTH,ComponentDrill
T2C0.0236
%
G90
G05
T1
X1.8051Y-1.9665
X1.839Y-3.2232
X1.8756Y-3.1393
X1.9311Y-2.6406
X1.9414Y-2.6026
X1.9594Y-1.8524
X2.1091Y-2.563
X2.1902Y-3.2579
X2.1909Y-2.3701
X2.237Y-2.6868
X2.2587Y-2.5933
X2.3109Y-2.528
X2.3744Y-3.0807
X2.3906Y-1.7812
X2.4822Y-2.4608
X2.5039Y-2.8949
X2.5138Y-1.8677
X2.526Y-2.6642
X2.5378Y-2.4051
X2.5787Y-2.7316
X2.6079Y-2.7689
X2.6122Y-2.0693
X2.6355Y-2.913
X2.6374Y-2.2154
X2.6429Y-2.8008
X2.6661Y-2.3334
X2.6955Y-3.1414
X2.737Y-1.8508
X2.7735Y-2.6965
X2.7906Y-2.398
X2.8331Y-1.8197
X2.835Y-2.4427
X2.8373Y-2.402
X2.8516Y-1.9303
X2.9091Y-3.3358
X2.9217Y-2.5697
X2.9413Y-3.2579
X2.9603Y-1.9699
X3.0051Y-2.5272
X3.0079Y-2.0693
X3.0697Y-2.6102
X3.1224Y-3.2957
X3.1327Y-2.4496
X3.2116Y-2.3151
X3.2126Y-3.1139
X3.2307Y-2.1287
X3.2882Y-1.8957
X3.3298Y-2.5694
X3.3732Y-3.022
X3.3819Y-2.1539
X3.4083Y-1.9476
X3.4201Y-2.8197
X3.4322Y-2.7352
X3.4685Y-3.0736
X3.5512Y-3.1139
X3.5638Y-1.9224
X3.5878Y-3.337
X3.6913Y-3.2579
X3.7185Y-2.6366
X3.7515Y-2.5272
X3.9783Y-1.9224
X4.0063Y-2.5272
X4.0303Y-3.1139
X4.0437Y-3.2996
X4.059Y-2.7253
X4.1311Y-2.9079
X4.1445Y-2.1504
X4.4039Y-2.5776
X4.4417Y-3.4281
X4.4437Y-3.2559
X4.5992Y-2.5246
X4.7354Y-1.9224
X4.7441Y-3.1114
X4.852Y-2.8646
X4.9008Y-2.7761
T2
G00X2.4557Y-1.4508
M15
G01X2.4557Y-1.4744
M16
G05
G00X2.4557Y-1.6063
M15
G01X2.4557Y-1.6496
M16
G05
G00X2.7943Y-1.4508
M15
G01X2.7943Y-1.4744
M16
G05
G00X2.7943Y-1.6063
M15
G01X2.7943Y-1.6496
M16
G05
T0
M30
