M48
; DRILL file {KiCad 7.0.7} date Tue Jan  9 04:45:59 2024
; FORMAT={-:-/ absolute / inch / decimal}
; #@! TF.CreationDate,2024-01-09T04:45:59+09:00
; #@! TF.GenerationSoftware,Kicad,Pcbnew,7.0.7
; #@! TF.FileFunction,NonPlated,1,2,NPTH
FMAT,2
INCH
; #@! TA.AperFunction,NonPlated,NPTH,ComponentDrill
T1C0.0256
; #@! TA.AperFunction,NonPlated,NPTH,ComponentDrill
T2C0.0670
; #@! TA.AperFunction,NonPlated,NPTH,ComponentDrill
T3C0.1181
; #@! TA.AperFunction,NonPlated,NPTH,ComponentDrill
T4C0.1570
%
G90
G05
T1
X2.5112Y-1.6063
X2.7388Y-1.6063
T2
X2.05Y-2.25
X2.05Y-3.0
X2.45Y-2.25
X2.45Y-3.0
X2.8Y-2.25
X2.8Y-3.0
X3.2Y-2.25
X3.2Y-3.0
X3.55Y-2.25
X3.55Y-3.0
X3.95Y-2.25
X3.95Y-3.0
X4.3Y-2.25
X4.3Y-3.0
X4.7Y-2.25
X4.7Y-3.0
T3
X2.1Y-2.15
X2.1Y-2.9
X2.35Y-2.05
X2.35Y-2.8
X2.85Y-2.15
X2.85Y-2.9
X3.1Y-2.05
X3.1Y-2.8
X3.6Y-2.15
X3.6Y-2.9
X3.85Y-2.05
X3.85Y-2.8
X4.35Y-2.15
X4.35Y-2.9
X4.6Y-2.05
X4.6Y-2.8
T4
X2.25Y-2.25
X2.25Y-3.0
X3.0Y-2.25
X3.0Y-3.0
X3.75Y-2.25
X3.75Y-3.0
X4.5Y-2.25
X4.5Y-3.0
T0
M30
