%TF.GenerationSoftware,KiCad,Pcbnew,7.0.7*%
%TF.CreationDate,2024-01-09T04:45:59+09:00*%
%TF.ProjectId,Skeleton8,536b656c-6574-46f6-9e38-2e6b69636164,rev?*%
%TF.SameCoordinates,Original*%
%TF.FileFunction,Copper,L1,Top*%
%TF.FilePolarity,Positive*%
%FSLAX46Y46*%
G04 Gerber Fmt 4.6, Leading zero omitted, Abs format (unit mm)*
G04 Created by KiCad (PCBNEW 7.0.7) date 2024-01-09 04:45:59*
%MOMM*%
%LPD*%
G01*
G04 APERTURE LIST*
%TA.AperFunction,SMDPad,CuDef*%
%ADD10C,1.000000*%
%TD*%
%TA.AperFunction,ComponentPad*%
%ADD11O,1.300000X1.900000*%
%TD*%
%TA.AperFunction,ComponentPad*%
%ADD12O,1.100000X2.200000*%
%TD*%
%TA.AperFunction,ViaPad*%
%ADD13C,0.800000*%
%TD*%
%TA.AperFunction,Conductor*%
%ADD14C,0.500000*%
%TD*%
%TA.AperFunction,Conductor*%
%ADD15C,0.200000*%
%TD*%
G04 APERTURE END LIST*
D10*
%TO.P,FID4,*%
%TO.N,*%
X129778125Y-98821875D03*
%TD*%
%TO.P,FID3,*%
%TO.N,*%
X129778125Y-40481250D03*
%TD*%
%TO.P,FID1,*%
%TO.N,*%
X41671875Y-40481250D03*
%TD*%
%TO.P,FID2,*%
%TO.N,*%
X41671875Y-98821875D03*
%TD*%
D11*
%TO.P,J1,S*%
%TO.N,N/C*%
X62375000Y-37150625D03*
D12*
X62375000Y-41350625D03*
D11*
X70975000Y-37150625D03*
D12*
X70975000Y-41350625D03*
%TD*%
D13*
%TO.N,+3V3*%
X124479500Y-70513750D03*
X103098750Y-69223750D03*
X65498750Y-69383750D03*
X87178750Y-69473750D03*
%TO.N,GND*%
X76401573Y-52560000D03*
X82060000Y-54070000D03*
X74210000Y-65270000D03*
X72430000Y-49030000D03*
X84576764Y-65263236D03*
X101050000Y-48830000D03*
X102370000Y-79093900D03*
X60721875Y-45243750D03*
X86570000Y-49470000D03*
X63600000Y-73530000D03*
X90520000Y-48830000D03*
X66350000Y-52560000D03*
X71960000Y-46220000D03*
X81600000Y-79093900D03*
X90200000Y-79093900D03*
X120500000Y-79030000D03*
X120280000Y-48830000D03*
X46710000Y-81870000D03*
X68465300Y-79792500D03*
%TO.N,/XTAL_O*%
X85680000Y-76760000D03*
X88100000Y-78070000D03*
%TO.N,+1V1*%
X70448140Y-68491860D03*
X123240000Y-72760000D03*
X63046739Y-62503261D03*
X64460600Y-61088694D03*
%TO.N,+5V*%
X95288750Y-64190000D03*
X93760000Y-82750000D03*
X112820000Y-87075000D03*
X101760000Y-64190000D03*
X55630000Y-82750000D03*
X45850000Y-49950000D03*
X74710000Y-82750000D03*
X116818750Y-64123750D03*
X76330000Y-64190000D03*
X75190625Y-50034375D03*
X55650000Y-60200000D03*
X112870000Y-82700000D03*
%TO.N,VBUS*%
X69520000Y-47010000D03*
X63850000Y-47440000D03*
%TO.N,Net-(LED1-K)*%
X58696840Y-64211910D03*
X57370000Y-65870000D03*
%TO.N,Net-(LED2-K)*%
X79570000Y-62220000D03*
X81573750Y-58803750D03*
%TO.N,Net-(Q1-D)*%
X73890000Y-84730000D03*
X91130000Y-84760000D03*
X94450000Y-66970000D03*
X53570000Y-65100000D03*
X49310838Y-66105133D03*
X47639312Y-79739312D03*
X111860000Y-65470000D03*
%TO.N,CS*%
X67720000Y-59269500D03*
X77970000Y-66300000D03*
X60310000Y-78249500D03*
%TO.N,~{RESET}*%
X102710000Y-83810000D03*
X79310000Y-83710000D03*
%TO.N,backlight*%
X56818750Y-68243750D03*
X49050000Y-67070000D03*
%TO.N,Net-(RGB1-DOUT)*%
X49770000Y-47050000D03*
X83520000Y-48150000D03*
%TO.N,key2*%
X66990000Y-56270500D03*
X70881250Y-60908750D03*
%TO.N,key3*%
X72067736Y-61010776D03*
X85900000Y-54710000D03*
%TO.N,key4*%
X72007773Y-62045840D03*
X105270000Y-54620000D03*
%TO.N,key6*%
X64160000Y-67670000D03*
X66941068Y-73991068D03*
%TO.N,key7*%
X86870000Y-71620000D03*
X66240000Y-70330000D03*
%TO.N,key8*%
X67130000Y-71140000D03*
X104930000Y-73860000D03*
%TD*%
D14*
%TO.N,+3V3*%
X124479500Y-70513750D02*
X124479500Y-72722582D01*
X113268427Y-73610000D02*
X108882177Y-69223750D01*
X124479500Y-72722582D02*
X123592082Y-73610000D01*
X76448750Y-69383750D02*
X65498750Y-69383750D01*
X108882177Y-69223750D02*
X103098750Y-69223750D01*
X123592082Y-73610000D02*
X113268427Y-73610000D01*
X76712500Y-69120000D02*
X76448750Y-69383750D01*
X86825000Y-69120000D02*
X76712500Y-69120000D01*
X87178750Y-69473750D02*
X86825000Y-69120000D01*
%TO.N,GND*%
X120436100Y-79093900D02*
X120500000Y-79030000D01*
X76401573Y-50043241D02*
X75388332Y-49030000D01*
X83320000Y-46220000D02*
X86570000Y-49470000D01*
D15*
X84570000Y-65270000D02*
X84576764Y-65263236D01*
D14*
X85280000Y-54070000D02*
X90520000Y-48830000D01*
X66350000Y-52560000D02*
X76401573Y-52560000D01*
X101050000Y-48830000D02*
X120280000Y-48830000D01*
X59957918Y-79099500D02*
X67772300Y-79099500D01*
X75388332Y-49030000D02*
X72430000Y-49030000D01*
X69163900Y-79093900D02*
X81600000Y-79093900D01*
X59907168Y-79048750D02*
X59957918Y-79099500D01*
X77911573Y-54070000D02*
X82060000Y-54070000D01*
X63600000Y-74927200D02*
X63600000Y-73530000D01*
X82060000Y-54070000D02*
X85280000Y-54070000D01*
X49531250Y-79048750D02*
X59907168Y-79048750D01*
X90200000Y-79093900D02*
X102370000Y-79093900D01*
X67772300Y-79099500D02*
X68465300Y-79792500D01*
X90520000Y-48830000D02*
X101050000Y-48830000D01*
D15*
X74210000Y-65270000D02*
X84570000Y-65270000D01*
D14*
X68465300Y-79792500D02*
X63600000Y-74927200D01*
X102370000Y-79093900D02*
X120436100Y-79093900D01*
X81600000Y-79093900D02*
X90200000Y-79093900D01*
X71960000Y-46220000D02*
X83320000Y-46220000D01*
X46710000Y-81870000D02*
X49531250Y-79048750D01*
X68465300Y-79792500D02*
X69163900Y-79093900D01*
X76401573Y-52560000D02*
X76401573Y-50043241D01*
X76401573Y-52560000D02*
X77911573Y-54070000D01*
D15*
%TO.N,/XTAL_O*%
X88100000Y-78070000D02*
X86990000Y-78070000D01*
X86990000Y-78070000D02*
X85680000Y-76760000D01*
%TO.N,+1V1*%
X72749950Y-68570000D02*
X71999950Y-67820000D01*
X88630050Y-68570000D02*
X72749950Y-68570000D01*
X64460600Y-61088694D02*
X64460600Y-61089400D01*
X123780000Y-69760050D02*
X122439950Y-68420000D01*
X70448140Y-68491860D02*
X70266280Y-68310000D01*
X63046739Y-63456739D02*
X63046739Y-62503261D01*
X67900000Y-68310000D02*
X63046739Y-63456739D01*
X123240000Y-72760000D02*
X123780000Y-72220000D01*
X88780050Y-68420000D02*
X88630050Y-68570000D01*
X64460600Y-61089400D02*
X63046739Y-62503261D01*
X71120000Y-67820000D02*
X70448140Y-68491860D01*
X123780000Y-72220000D02*
X123780000Y-69760050D01*
X71999950Y-67820000D02*
X71120000Y-67820000D01*
X70266280Y-68310000D02*
X67900000Y-68310000D01*
X122439950Y-68420000D02*
X88780050Y-68420000D01*
D14*
%TO.N,+5V*%
X45850000Y-52840461D02*
X45850000Y-49950000D01*
X74710000Y-82750000D02*
X93760000Y-82750000D01*
X75190625Y-50034375D02*
X74137198Y-50034375D01*
X68570000Y-58917418D02*
X68570000Y-61980000D01*
X55991250Y-59858750D02*
X60203750Y-59858750D01*
X55630000Y-82750000D02*
X74710000Y-82750000D01*
X60818750Y-59243750D02*
X62776250Y-59243750D01*
X68570000Y-61980000D02*
X70780000Y-64190000D01*
X70780000Y-64190000D02*
X76330000Y-64190000D01*
X93760000Y-82750000D02*
X112820000Y-82750000D01*
X116752500Y-64190000D02*
X116818750Y-64123750D01*
X55650000Y-60200000D02*
X53209539Y-60200000D01*
X112870000Y-82700000D02*
X112870000Y-87025000D01*
X60203750Y-59858750D02*
X60818750Y-59243750D01*
X74051573Y-50120000D02*
X74137198Y-50034375D01*
X112820000Y-82750000D02*
X112870000Y-82700000D01*
X79980000Y-64190000D02*
X95288750Y-64190000D01*
X112870000Y-87025000D02*
X112820000Y-87075000D01*
X95288750Y-64190000D02*
X101760000Y-64190000D01*
X64240000Y-57780000D02*
X64240000Y-52830000D01*
X101760000Y-64190000D02*
X116752500Y-64190000D01*
X53209539Y-60200000D02*
X45850000Y-52840461D01*
X62776250Y-59243750D02*
X64240000Y-57780000D01*
X55650000Y-60200000D02*
X55991250Y-59858750D01*
X64240000Y-57780000D02*
X67432582Y-57780000D01*
X68570000Y-58917418D02*
X67432582Y-57780000D01*
X64240000Y-52830000D02*
X66950000Y-50120000D01*
X76330000Y-64190000D02*
X79980000Y-64190000D01*
X66950000Y-50120000D02*
X74051573Y-50120000D01*
%TO.N,VBUS*%
X69028750Y-46518750D02*
X64771250Y-46518750D01*
X69520000Y-47010000D02*
X69028750Y-46518750D01*
X64771250Y-46518750D02*
X63850000Y-47440000D01*
%TO.N,Net-(LED1-K)*%
X57370000Y-65538750D02*
X57370000Y-65870000D01*
X58696840Y-64211910D02*
X57370000Y-65538750D01*
%TO.N,Net-(LED2-K)*%
X79596250Y-62193750D02*
X79570000Y-62220000D01*
X81573750Y-61700500D02*
X81080500Y-62193750D01*
X81080500Y-62193750D02*
X79596250Y-62193750D01*
X81573750Y-58803750D02*
X81573750Y-61700500D01*
%TO.N,Net-(Q1-D)*%
X49274266Y-66220000D02*
X49310838Y-66183428D01*
D15*
X53340000Y-65330000D02*
X53570000Y-65100000D01*
D14*
X47565000Y-67352918D02*
X48697918Y-66220000D01*
X73920000Y-84760000D02*
X73890000Y-84730000D01*
X49274266Y-66220000D02*
X50394266Y-65100000D01*
X47639312Y-79739312D02*
X47565000Y-79665000D01*
D15*
X95950000Y-65470000D02*
X94450000Y-66970000D01*
D14*
X50394266Y-65100000D02*
X53570000Y-65100000D01*
X48697918Y-66220000D02*
X49274266Y-66220000D01*
X91130000Y-84760000D02*
X73920000Y-84760000D01*
X49310838Y-66183428D02*
X49310838Y-66105133D01*
D15*
X111860000Y-65470000D02*
X95950000Y-65470000D01*
D14*
X47565000Y-79665000D02*
X47565000Y-67352918D01*
D15*
%TO.N,CS*%
X67720000Y-61907818D02*
X67720000Y-59269500D01*
X60310000Y-78249500D02*
X60310000Y-76045225D01*
X60310000Y-76045225D02*
X57690000Y-73425225D01*
X72112182Y-66300000D02*
X67720000Y-61907818D01*
X65290550Y-59269500D02*
X67720000Y-59269500D01*
X77970000Y-66300000D02*
X72112182Y-66300000D01*
X57690000Y-66870050D02*
X65290550Y-59269500D01*
X57690000Y-73425225D02*
X57690000Y-66870050D01*
%TO.N,~{RESET}*%
X102710000Y-83810000D02*
X79410000Y-83810000D01*
X79410000Y-83810000D02*
X79310000Y-83710000D01*
%TO.N,backlight*%
X55678750Y-67103750D02*
X49083750Y-67103750D01*
X49083750Y-67103750D02*
X49050000Y-67070000D01*
X56818750Y-68243750D02*
X55678750Y-67103750D01*
%TO.N,Net-(RGB1-DOUT)*%
X50860000Y-48140000D02*
X83510000Y-48140000D01*
X83510000Y-48140000D02*
X83520000Y-48150000D01*
X49770000Y-47050000D02*
X50860000Y-48140000D01*
%TO.N,key2*%
X70881250Y-60908750D02*
X70881250Y-60161750D01*
X70881250Y-60161750D02*
X66990000Y-56270500D01*
%TO.N,key3*%
X80297500Y-54770000D02*
X85840000Y-54770000D01*
X79023750Y-58513750D02*
X79023750Y-56043750D01*
X76875000Y-60662500D02*
X79023750Y-58513750D01*
X85840000Y-54770000D02*
X85900000Y-54710000D01*
X72067736Y-61010776D02*
X72416012Y-60662500D01*
X72416012Y-60662500D02*
X76875000Y-60662500D01*
X79023750Y-56043750D02*
X80297500Y-54770000D01*
%TO.N,key4*%
X105270000Y-57500000D02*
X105270000Y-54620000D01*
X99380000Y-63390000D02*
X105270000Y-57500000D01*
X72007773Y-62045840D02*
X73351933Y-63390000D01*
X73351933Y-63390000D02*
X99380000Y-63390000D01*
%TO.N,key6*%
X64160000Y-71210000D02*
X66941068Y-73991068D01*
X64160000Y-67670000D02*
X64160000Y-71210000D01*
%TO.N,key7*%
X74986936Y-70740000D02*
X78846036Y-74599100D01*
X83890900Y-74599100D02*
X86870000Y-71620000D01*
X78846036Y-74599100D02*
X83890900Y-74599100D01*
X67309950Y-70330000D02*
X67719950Y-70740000D01*
X67719950Y-70740000D02*
X74986936Y-70740000D01*
X66240000Y-70330000D02*
X67309950Y-70330000D01*
%TO.N,key8*%
X74821250Y-71140000D02*
X78680350Y-74999100D01*
X78680350Y-74999100D02*
X87270771Y-74999100D01*
X90815571Y-78543900D02*
X100518600Y-78543900D01*
X104930000Y-74132500D02*
X104930000Y-73860000D01*
X87270771Y-74999100D02*
X90815571Y-78543900D01*
X67130000Y-71140000D02*
X74821250Y-71140000D01*
X100518600Y-78543900D02*
X104930000Y-74132500D01*
%TD*%
%TA.AperFunction,Conductor*%
%TO.N,GND*%
G36*
X61655273Y-35738935D02*
G01*
X61701028Y-35791739D01*
X61710972Y-35860897D01*
X61681947Y-35924453D01*
X61671772Y-35934887D01*
X61521129Y-36072216D01*
X61392632Y-36242371D01*
X61297596Y-36433230D01*
X61297596Y-36433232D01*
X61241265Y-36631213D01*
X61239244Y-36638315D01*
X61231745Y-36719250D01*
X61224500Y-36797434D01*
X61224500Y-37503815D01*
X61239244Y-37662935D01*
X61297596Y-37868017D01*
X61297596Y-37868019D01*
X61392632Y-38058878D01*
X61392634Y-38058880D01*
X61521128Y-38229032D01*
X61678698Y-38372677D01*
X61859981Y-38484923D01*
X62058802Y-38561946D01*
X62268390Y-38601125D01*
X62268392Y-38601125D01*
X62481608Y-38601125D01*
X62481610Y-38601125D01*
X62691198Y-38561946D01*
X62890019Y-38484923D01*
X63071302Y-38372677D01*
X63228872Y-38229032D01*
X63357366Y-38058880D01*
X63452405Y-37868014D01*
X63510756Y-37662935D01*
X63525500Y-37503819D01*
X63525500Y-36797431D01*
X63510756Y-36638315D01*
X63452405Y-36433236D01*
X63452403Y-36433231D01*
X63452403Y-36433230D01*
X63357367Y-36242371D01*
X63282084Y-36142682D01*
X63228872Y-36072218D01*
X63078227Y-35934886D01*
X63041946Y-35875176D01*
X63043707Y-35805328D01*
X63082950Y-35747521D01*
X63147217Y-35720106D01*
X63161766Y-35719250D01*
X70188234Y-35719250D01*
X70255273Y-35738935D01*
X70301028Y-35791739D01*
X70310972Y-35860897D01*
X70281947Y-35924453D01*
X70271772Y-35934887D01*
X70121129Y-36072216D01*
X69992632Y-36242371D01*
X69897596Y-36433230D01*
X69897596Y-36433232D01*
X69841265Y-36631213D01*
X69839244Y-36638315D01*
X69831745Y-36719250D01*
X69824500Y-36797434D01*
X69824500Y-37503815D01*
X69839244Y-37662935D01*
X69897596Y-37868017D01*
X69897596Y-37868019D01*
X69992632Y-38058878D01*
X69992634Y-38058880D01*
X70121128Y-38229032D01*
X70278698Y-38372677D01*
X70459981Y-38484923D01*
X70658802Y-38561946D01*
X70868390Y-38601125D01*
X70868392Y-38601125D01*
X71081608Y-38601125D01*
X71081610Y-38601125D01*
X71291198Y-38561946D01*
X71490019Y-38484923D01*
X71671302Y-38372677D01*
X71828872Y-38229032D01*
X71957366Y-38058880D01*
X72052405Y-37868014D01*
X72110756Y-37662935D01*
X72125500Y-37503819D01*
X72125500Y-36797431D01*
X72110756Y-36638315D01*
X72052405Y-36433236D01*
X72052403Y-36433231D01*
X72052403Y-36433230D01*
X71957367Y-36242371D01*
X71882084Y-36142682D01*
X71828872Y-36072218D01*
X71678227Y-35934886D01*
X71641946Y-35875176D01*
X71643707Y-35805328D01*
X71682950Y-35747521D01*
X71747217Y-35720106D01*
X71761766Y-35719250D01*
X72816038Y-35719250D01*
X72821441Y-35719486D01*
X72894309Y-35725857D01*
X72981514Y-35733482D01*
X73002785Y-35737232D01*
X73150129Y-35776708D01*
X73170441Y-35784101D01*
X73308675Y-35848557D01*
X73327395Y-35859364D01*
X73452344Y-35946851D01*
X73468903Y-35960746D01*
X73576753Y-36068596D01*
X73590648Y-36085155D01*
X73678135Y-36210104D01*
X73688942Y-36228824D01*
X73753398Y-36367058D01*
X73760791Y-36387370D01*
X73800265Y-36534705D01*
X73804018Y-36555993D01*
X73818014Y-36716057D01*
X73818250Y-36721461D01*
X73818250Y-44243750D01*
X73818246Y-44331284D01*
X73818246Y-44331286D01*
X73848638Y-44503691D01*
X73908511Y-44668203D01*
X73908513Y-44668207D01*
X73996038Y-44819812D01*
X73996039Y-44819814D01*
X73996042Y-44819818D01*
X74044311Y-44877344D01*
X74108571Y-44953928D01*
X74164836Y-45001138D01*
X74242682Y-45066458D01*
X74394297Y-45153989D01*
X74558808Y-45213861D01*
X74731216Y-45244254D01*
X74818750Y-45244250D01*
X74819250Y-45244250D01*
X125203538Y-45244250D01*
X125208941Y-45244486D01*
X125281809Y-45250857D01*
X125369014Y-45258482D01*
X125390285Y-45262232D01*
X125537629Y-45301708D01*
X125557941Y-45309101D01*
X125696175Y-45373557D01*
X125714892Y-45384362D01*
X125729580Y-45394646D01*
X125746228Y-45406302D01*
X125789854Y-45460876D01*
X125799101Y-45506557D01*
X126205428Y-83631025D01*
X126205428Y-83631024D01*
X126205561Y-83643463D01*
X126205750Y-83661194D01*
X126205750Y-87103538D01*
X126205514Y-87108942D01*
X126191518Y-87269006D01*
X126187765Y-87290294D01*
X126148291Y-87437629D01*
X126140898Y-87457941D01*
X126076442Y-87596175D01*
X126065635Y-87614895D01*
X125978148Y-87739844D01*
X125964253Y-87756403D01*
X125856403Y-87864253D01*
X125839844Y-87878148D01*
X125714895Y-87965635D01*
X125696175Y-87976442D01*
X125557941Y-88040898D01*
X125537629Y-88048291D01*
X125390294Y-88087765D01*
X125369006Y-88091518D01*
X125208942Y-88105514D01*
X125203538Y-88105750D01*
X113302233Y-88105750D01*
X113235194Y-88086065D01*
X113189439Y-88033261D01*
X113179495Y-87964103D01*
X113208520Y-87900547D01*
X113251797Y-87868471D01*
X113272730Y-87859151D01*
X113425871Y-87747888D01*
X113552533Y-87607216D01*
X113647179Y-87443284D01*
X113705674Y-87263256D01*
X113725460Y-87075000D01*
X113705674Y-86886744D01*
X113647179Y-86706716D01*
X113647178Y-86706715D01*
X113647178Y-86706713D01*
X113637112Y-86689277D01*
X113620500Y-86627279D01*
X113620500Y-83234321D01*
X113637113Y-83172321D01*
X113697179Y-83068284D01*
X113755674Y-82888256D01*
X113775460Y-82700000D01*
X113755674Y-82511744D01*
X113697179Y-82331716D01*
X113678289Y-82298998D01*
X113661817Y-82231100D01*
X113684669Y-82165073D01*
X113739591Y-82121882D01*
X113785677Y-82113000D01*
X115325240Y-82113000D01*
X115325383Y-82113028D01*
X115325384Y-82113024D01*
X115349997Y-82113039D01*
X115350000Y-82113041D01*
X115350383Y-82112883D01*
X115350500Y-82112599D01*
X115350541Y-82112500D01*
X115350540Y-82112497D01*
X115350583Y-82088389D01*
X115350500Y-82087967D01*
X115350500Y-79837259D01*
X115350528Y-79837116D01*
X115350524Y-79837116D01*
X115350539Y-79812502D01*
X115350541Y-79812500D01*
X115350462Y-79812308D01*
X115350384Y-79812118D01*
X115350382Y-79812116D01*
X115350099Y-79812000D01*
X115350000Y-79811959D01*
X115325446Y-79811959D01*
X115325240Y-79812000D01*
X113274760Y-79812000D01*
X113274554Y-79811959D01*
X113250000Y-79811959D01*
X113249901Y-79812000D01*
X113249617Y-79812116D01*
X113249615Y-79812118D01*
X113249459Y-79812499D01*
X113249476Y-79837116D01*
X113249471Y-79837116D01*
X113249500Y-79837259D01*
X113249499Y-81706920D01*
X113229814Y-81773960D01*
X113177010Y-81819714D01*
X113107852Y-81829658D01*
X113099718Y-81828210D01*
X113035037Y-81814462D01*
X112964646Y-81799500D01*
X112775354Y-81799500D01*
X112742897Y-81806398D01*
X112590197Y-81838855D01*
X112590192Y-81838857D01*
X112417270Y-81915848D01*
X112417265Y-81915851D01*
X112334729Y-81975818D01*
X112268923Y-81999298D01*
X112261844Y-81999500D01*
X96424500Y-81999500D01*
X96357461Y-81979815D01*
X96311706Y-81927011D01*
X96300500Y-81875500D01*
X96300500Y-79837259D01*
X96300528Y-79837116D01*
X96300524Y-79837116D01*
X96300539Y-79812502D01*
X96300541Y-79812500D01*
X96300462Y-79812308D01*
X96300384Y-79812118D01*
X96300382Y-79812116D01*
X96300099Y-79812000D01*
X96300000Y-79811959D01*
X96275446Y-79811959D01*
X96275240Y-79812000D01*
X94224760Y-79812000D01*
X94224554Y-79811959D01*
X94200000Y-79811959D01*
X94199901Y-79812000D01*
X94199617Y-79812116D01*
X94199615Y-79812118D01*
X94199459Y-79812499D01*
X94199476Y-79837116D01*
X94199471Y-79837116D01*
X94199500Y-79837259D01*
X94199500Y-81770073D01*
X94179815Y-81837112D01*
X94127011Y-81882867D01*
X94057853Y-81892811D01*
X94046182Y-81890098D01*
X94046159Y-81890207D01*
X93976967Y-81875500D01*
X93854646Y-81849500D01*
X93665354Y-81849500D01*
X93632897Y-81856398D01*
X93480197Y-81888855D01*
X93480192Y-81888857D01*
X93307270Y-81965848D01*
X93307265Y-81965851D01*
X93293548Y-81975818D01*
X93227742Y-81999298D01*
X93220663Y-81999500D01*
X77374500Y-81999500D01*
X77307461Y-81979815D01*
X77261706Y-81927011D01*
X77250500Y-81875500D01*
X77250500Y-79837259D01*
X77250528Y-79837116D01*
X77250524Y-79837116D01*
X77250539Y-79812502D01*
X77250541Y-79812500D01*
X77250462Y-79812308D01*
X77250384Y-79812118D01*
X77250382Y-79812116D01*
X77250099Y-79812000D01*
X77250000Y-79811959D01*
X77225446Y-79811959D01*
X77225240Y-79812000D01*
X75174760Y-79812000D01*
X75174554Y-79811959D01*
X75150000Y-79811959D01*
X75149901Y-79812000D01*
X75149617Y-79812116D01*
X75149615Y-79812118D01*
X75149459Y-79812499D01*
X75149476Y-79837116D01*
X75149471Y-79837116D01*
X75149500Y-79837259D01*
X75149500Y-81770073D01*
X75129815Y-81837112D01*
X75077011Y-81882867D01*
X75007853Y-81892811D01*
X74996182Y-81890098D01*
X74996159Y-81890207D01*
X74926967Y-81875500D01*
X74804646Y-81849500D01*
X74615354Y-81849500D01*
X74582897Y-81856398D01*
X74430197Y-81888855D01*
X74430192Y-81888857D01*
X74257270Y-81965848D01*
X74257265Y-81965851D01*
X74243548Y-81975818D01*
X74177742Y-81999298D01*
X74170663Y-81999500D01*
X58324500Y-81999500D01*
X58257461Y-81979815D01*
X58211706Y-81927011D01*
X58200500Y-81875500D01*
X58200500Y-81706920D01*
X58200500Y-79837254D01*
X58200528Y-79837116D01*
X58200524Y-79837116D01*
X58200539Y-79812502D01*
X58200541Y-79812500D01*
X58200462Y-79812308D01*
X58200384Y-79812118D01*
X58200382Y-79812116D01*
X58200099Y-79812000D01*
X58200000Y-79811959D01*
X58175446Y-79811959D01*
X58175240Y-79812000D01*
X56124760Y-79812000D01*
X56124554Y-79811959D01*
X56100000Y-79811959D01*
X56099901Y-79812000D01*
X56099617Y-79812116D01*
X56099615Y-79812118D01*
X56099459Y-79812499D01*
X56099476Y-79837116D01*
X56099471Y-79837116D01*
X56099500Y-79837259D01*
X56099500Y-81782371D01*
X56079815Y-81849410D01*
X56027011Y-81895165D01*
X55957853Y-81905109D01*
X55925065Y-81895651D01*
X55909803Y-81888856D01*
X55909801Y-81888855D01*
X55909800Y-81888855D01*
X55793102Y-81864050D01*
X55724646Y-81849500D01*
X55535354Y-81849500D01*
X55502897Y-81856398D01*
X55350197Y-81888855D01*
X55350192Y-81888857D01*
X55177270Y-81965848D01*
X55177265Y-81965851D01*
X55024129Y-82077111D01*
X54897466Y-82217785D01*
X54802821Y-82381715D01*
X54802818Y-82381722D01*
X54760573Y-82511740D01*
X54744326Y-82561744D01*
X54724540Y-82750000D01*
X54744326Y-82938256D01*
X54744327Y-82938259D01*
X54802818Y-83118277D01*
X54802821Y-83118284D01*
X54897467Y-83282216D01*
X55024128Y-83422888D01*
X55024129Y-83422888D01*
X55177265Y-83534148D01*
X55177270Y-83534151D01*
X55350192Y-83611142D01*
X55350197Y-83611144D01*
X55535354Y-83650500D01*
X55535355Y-83650500D01*
X55724644Y-83650500D01*
X55724646Y-83650500D01*
X55909803Y-83611144D01*
X56082730Y-83534151D01*
X56084776Y-83532664D01*
X56096452Y-83524182D01*
X56162258Y-83500702D01*
X56169337Y-83500500D01*
X74170663Y-83500500D01*
X74237702Y-83520185D01*
X74243548Y-83524182D01*
X74257265Y-83534148D01*
X74257270Y-83534151D01*
X74430192Y-83611142D01*
X74430197Y-83611144D01*
X74615354Y-83650500D01*
X74615355Y-83650500D01*
X74804644Y-83650500D01*
X74804646Y-83650500D01*
X74989803Y-83611144D01*
X75162730Y-83534151D01*
X75164776Y-83532664D01*
X75176452Y-83524182D01*
X75242258Y-83500702D01*
X75249337Y-83500500D01*
X78288843Y-83500500D01*
X78355882Y-83520185D01*
X78401637Y-83572989D01*
X78412163Y-83637460D01*
X78404540Y-83710000D01*
X78421623Y-83872541D01*
X78409055Y-83941268D01*
X78361323Y-83992292D01*
X78298303Y-84009500D01*
X74470628Y-84009500D01*
X74403589Y-83989815D01*
X74397751Y-83985824D01*
X74342730Y-83945849D01*
X74342729Y-83945848D01*
X74169807Y-83868857D01*
X74169802Y-83868855D01*
X74024001Y-83837865D01*
X73984646Y-83829500D01*
X73795354Y-83829500D01*
X73762897Y-83836398D01*
X73610197Y-83868855D01*
X73610192Y-83868857D01*
X73437270Y-83945848D01*
X73437265Y-83945851D01*
X73284129Y-84057111D01*
X73157466Y-84197785D01*
X73062821Y-84361715D01*
X73062818Y-84361722D01*
X73004327Y-84541740D01*
X73004326Y-84541744D01*
X72984540Y-84730000D01*
X73004326Y-84918256D01*
X73004327Y-84918259D01*
X73062818Y-85098277D01*
X73062821Y-85098284D01*
X73157467Y-85262216D01*
X73284129Y-85402888D01*
X73437265Y-85514148D01*
X73437270Y-85514151D01*
X73610192Y-85591142D01*
X73610197Y-85591144D01*
X73795354Y-85630500D01*
X73795355Y-85630500D01*
X73984644Y-85630500D01*
X73984646Y-85630500D01*
X74169803Y-85591144D01*
X74275350Y-85544151D01*
X74326852Y-85521221D01*
X74377288Y-85510500D01*
X90590663Y-85510500D01*
X90657702Y-85530185D01*
X90663548Y-85534182D01*
X90677265Y-85544148D01*
X90677270Y-85544151D01*
X90850192Y-85621142D01*
X90850197Y-85621144D01*
X91035354Y-85660500D01*
X91035355Y-85660500D01*
X91224644Y-85660500D01*
X91224646Y-85660500D01*
X91409803Y-85621144D01*
X91582730Y-85544151D01*
X91735871Y-85432888D01*
X91862533Y-85292216D01*
X91957179Y-85128284D01*
X92015674Y-84948256D01*
X92035460Y-84760000D01*
X92015674Y-84571744D01*
X92015671Y-84571737D01*
X92014322Y-84565383D01*
X92015801Y-84565068D01*
X92014028Y-84502976D01*
X92050109Y-84443144D01*
X92112810Y-84412316D01*
X92133954Y-84410500D01*
X101983742Y-84410500D01*
X102050781Y-84430185D01*
X102075891Y-84451527D01*
X102104128Y-84482887D01*
X102104135Y-84482893D01*
X102257265Y-84594148D01*
X102257270Y-84594151D01*
X102430192Y-84671142D01*
X102430197Y-84671144D01*
X102615354Y-84710500D01*
X102615355Y-84710500D01*
X102804644Y-84710500D01*
X102804646Y-84710500D01*
X102989803Y-84671144D01*
X103162730Y-84594151D01*
X103315871Y-84482888D01*
X103442533Y-84342216D01*
X103537179Y-84178284D01*
X103595674Y-83998256D01*
X103615460Y-83810000D01*
X103597325Y-83637458D01*
X103609894Y-83568732D01*
X103657626Y-83517708D01*
X103720646Y-83500500D01*
X111995500Y-83500500D01*
X112062539Y-83520185D01*
X112108294Y-83572989D01*
X112119500Y-83624500D01*
X112119500Y-86459608D01*
X112099815Y-86526647D01*
X112087656Y-86542574D01*
X112087468Y-86542782D01*
X112087464Y-86542787D01*
X111992821Y-86706715D01*
X111992818Y-86706722D01*
X111934327Y-86886740D01*
X111934326Y-86886744D01*
X111914540Y-87075000D01*
X111934326Y-87263256D01*
X111934327Y-87263259D01*
X111992818Y-87443277D01*
X111992821Y-87443284D01*
X112087467Y-87607216D01*
X112197691Y-87729632D01*
X112214129Y-87747888D01*
X112367265Y-87859148D01*
X112367266Y-87859148D01*
X112367270Y-87859151D01*
X112388203Y-87868471D01*
X112441440Y-87913721D01*
X112461761Y-87980570D01*
X112442716Y-88047794D01*
X112390349Y-88094049D01*
X112337767Y-88105750D01*
X46246462Y-88105750D01*
X46241058Y-88105514D01*
X46080993Y-88091518D01*
X46059705Y-88087765D01*
X45912370Y-88048291D01*
X45892058Y-88040898D01*
X45753824Y-87976442D01*
X45735104Y-87965635D01*
X45610155Y-87878148D01*
X45593596Y-87864253D01*
X45485746Y-87756403D01*
X45471851Y-87739844D01*
X45384364Y-87614895D01*
X45373557Y-87596175D01*
X45309101Y-87457941D01*
X45301708Y-87437628D01*
X45294849Y-87412026D01*
X45290625Y-87379937D01*
X45290625Y-53641816D01*
X45310310Y-53574777D01*
X45363114Y-53529022D01*
X45432272Y-53519078D01*
X45495828Y-53548103D01*
X45502306Y-53554135D01*
X52633809Y-60685638D01*
X52645590Y-60699270D01*
X52659927Y-60718528D01*
X52659928Y-60718529D01*
X52659929Y-60718530D01*
X52662177Y-60720416D01*
X52699948Y-60752111D01*
X52703936Y-60755766D01*
X52709755Y-60761585D01*
X52709759Y-60761588D01*
X52709762Y-60761591D01*
X52735498Y-60781940D01*
X52794325Y-60831302D01*
X52794326Y-60831302D01*
X52794328Y-60831304D01*
X52800357Y-60835270D01*
X52800324Y-60835319D01*
X52806686Y-60839372D01*
X52806718Y-60839321D01*
X52812858Y-60843108D01*
X52812862Y-60843111D01*
X52847671Y-60859343D01*
X52882480Y-60875575D01*
X52931979Y-60900434D01*
X52951106Y-60910040D01*
X52951108Y-60910040D01*
X52957896Y-60912511D01*
X52957875Y-60912567D01*
X52964996Y-60915043D01*
X52965015Y-60914986D01*
X52971861Y-60917254D01*
X52971866Y-60917257D01*
X52971871Y-60917258D01*
X52971874Y-60917259D01*
X53047104Y-60932792D01*
X53121818Y-60950500D01*
X53121821Y-60950500D01*
X53121825Y-60950501D01*
X53128992Y-60951339D01*
X53128985Y-60951398D01*
X53136483Y-60952164D01*
X53136489Y-60952105D01*
X53143678Y-60952734D01*
X53143682Y-60952733D01*
X53143683Y-60952734D01*
X53220456Y-60950500D01*
X55110663Y-60950500D01*
X55177702Y-60970185D01*
X55183548Y-60974182D01*
X55197265Y-60984148D01*
X55197270Y-60984151D01*
X55370192Y-61061142D01*
X55370197Y-61061144D01*
X55555354Y-61100500D01*
X55555355Y-61100500D01*
X55744644Y-61100500D01*
X55744646Y-61100500D01*
X55929803Y-61061144D01*
X55929805Y-61061142D01*
X55935987Y-61059135D01*
X55936816Y-61061687D01*
X55994262Y-61053961D01*
X56057551Y-61083562D01*
X56094790Y-61142681D01*
X56099500Y-61176533D01*
X56099500Y-63037967D01*
X56099416Y-63038389D01*
X56099459Y-63062501D01*
X56099500Y-63062599D01*
X56099616Y-63062882D01*
X56099618Y-63062884D01*
X56099808Y-63062962D01*
X56100000Y-63063041D01*
X56100002Y-63063039D01*
X56124616Y-63063024D01*
X56124616Y-63063028D01*
X56124760Y-63063000D01*
X58175240Y-63063000D01*
X58175383Y-63063028D01*
X58175384Y-63063024D01*
X58199997Y-63063039D01*
X58200000Y-63063041D01*
X58200383Y-63062883D01*
X58200500Y-63062599D01*
X58200541Y-63062500D01*
X58200540Y-63062497D01*
X58200583Y-63038389D01*
X58200500Y-63037967D01*
X58200500Y-60787259D01*
X58200528Y-60787116D01*
X58200524Y-60787116D01*
X58200558Y-60737882D01*
X58203459Y-60737884D01*
X58200615Y-60711051D01*
X58231984Y-60648619D01*
X58292126Y-60613056D01*
X58322612Y-60609250D01*
X60140045Y-60609250D01*
X60158015Y-60610559D01*
X60181773Y-60614039D01*
X60233818Y-60609485D01*
X60239220Y-60609250D01*
X60247454Y-60609250D01*
X60247459Y-60609250D01*
X60259077Y-60607891D01*
X60280026Y-60605443D01*
X60292778Y-60604327D01*
X60356547Y-60598749D01*
X60356555Y-60598746D01*
X60363616Y-60597289D01*
X60363628Y-60597348D01*
X60370993Y-60595715D01*
X60370979Y-60595656D01*
X60377996Y-60593991D01*
X60378005Y-60593991D01*
X60450173Y-60567724D01*
X60523084Y-60543564D01*
X60523093Y-60543557D01*
X60529632Y-60540510D01*
X60529658Y-60540566D01*
X60536440Y-60537282D01*
X60536413Y-60537228D01*
X60542856Y-60533990D01*
X60542867Y-60533987D01*
X60607033Y-60491784D01*
X60672406Y-60451462D01*
X60672412Y-60451455D01*
X60678075Y-60446979D01*
X60678112Y-60447027D01*
X60683954Y-60442268D01*
X60683914Y-60442221D01*
X60689436Y-60437586D01*
X60689446Y-60437580D01*
X60711149Y-60414575D01*
X60742137Y-60381731D01*
X61093298Y-60030569D01*
X61154621Y-59997084D01*
X61180979Y-59994250D01*
X62712545Y-59994250D01*
X62730515Y-59995559D01*
X62754273Y-59999039D01*
X62806318Y-59994485D01*
X62811720Y-59994250D01*
X62819954Y-59994250D01*
X62819959Y-59994250D01*
X62831577Y-59992891D01*
X62852526Y-59990443D01*
X62865278Y-59989327D01*
X62929047Y-59983749D01*
X62929055Y-59983746D01*
X62936116Y-59982289D01*
X62936128Y-59982348D01*
X62943493Y-59980715D01*
X62943479Y-59980656D01*
X62950496Y-59978991D01*
X62950505Y-59978991D01*
X63022673Y-59952724D01*
X63095584Y-59928564D01*
X63095593Y-59928557D01*
X63102132Y-59925510D01*
X63102158Y-59925566D01*
X63108940Y-59922282D01*
X63108913Y-59922228D01*
X63115356Y-59918990D01*
X63115367Y-59918987D01*
X63179533Y-59876784D01*
X63244906Y-59836462D01*
X63244912Y-59836455D01*
X63250575Y-59831979D01*
X63250612Y-59832027D01*
X63256454Y-59827268D01*
X63256414Y-59827221D01*
X63261941Y-59822582D01*
X63261946Y-59822580D01*
X63262308Y-59822197D01*
X63314636Y-59766731D01*
X64514548Y-58566819D01*
X64575871Y-58533334D01*
X64602229Y-58530500D01*
X64901911Y-58530500D01*
X64968950Y-58550185D01*
X65014705Y-58602989D01*
X65024649Y-58672147D01*
X64995624Y-58735703D01*
X64977397Y-58752876D01*
X64862269Y-58841216D01*
X64840569Y-58869494D01*
X64835218Y-58875596D01*
X59751259Y-63959554D01*
X59689936Y-63993039D01*
X59620244Y-63988055D01*
X59564311Y-63946183D01*
X59545647Y-63910190D01*
X59524022Y-63843634D01*
X59524020Y-63843629D01*
X59524019Y-63843626D01*
X59429373Y-63679694D01*
X59302711Y-63539022D01*
X59243634Y-63496100D01*
X59149574Y-63427761D01*
X59149569Y-63427758D01*
X58976647Y-63350767D01*
X58976642Y-63350765D01*
X58830840Y-63319775D01*
X58791486Y-63311410D01*
X58602194Y-63311410D01*
X58569737Y-63318308D01*
X58417037Y-63350765D01*
X58417032Y-63350767D01*
X58244110Y-63427758D01*
X58244105Y-63427761D01*
X58090969Y-63539021D01*
X57964306Y-63679695D01*
X57869661Y-63843625D01*
X57869659Y-63843629D01*
X57814319Y-64013949D01*
X57784069Y-64063311D01*
X56884358Y-64963022D01*
X56870729Y-64974801D01*
X56851468Y-64989140D01*
X56817898Y-65029147D01*
X56814253Y-65033126D01*
X56808409Y-65038972D01*
X56788059Y-65064709D01*
X56738695Y-65123539D01*
X56734729Y-65129569D01*
X56734682Y-65129538D01*
X56730630Y-65135897D01*
X56730679Y-65135927D01*
X56726889Y-65142071D01*
X56694424Y-65211691D01*
X56659960Y-65280316D01*
X56657488Y-65287107D01*
X56657433Y-65287087D01*
X56654958Y-65294208D01*
X56655013Y-65294227D01*
X56650471Y-65307933D01*
X56649610Y-65307647D01*
X56639444Y-65334359D01*
X56542821Y-65501715D01*
X56542818Y-65501722D01*
X56484327Y-65681740D01*
X56484326Y-65681744D01*
X56464540Y-65870000D01*
X56484326Y-66058256D01*
X56484327Y-66058259D01*
X56542818Y-66238277D01*
X56542821Y-66238284D01*
X56637467Y-66402216D01*
X56764129Y-66542888D01*
X56917265Y-66654148D01*
X56917266Y-66654148D01*
X56917270Y-66654151D01*
X57017328Y-66698700D01*
X57070565Y-66743950D01*
X57090886Y-66810799D01*
X57089832Y-66828161D01*
X57087314Y-66847294D01*
X57084318Y-66870050D01*
X57088010Y-66898097D01*
X57088969Y-66905376D01*
X57089500Y-66913477D01*
X57089500Y-67227554D01*
X57069815Y-67294593D01*
X57017011Y-67340348D01*
X56947853Y-67350292D01*
X56939720Y-67348845D01*
X56913396Y-67343250D01*
X56818848Y-67343250D01*
X56751809Y-67323565D01*
X56731167Y-67306931D01*
X56134078Y-66709843D01*
X56128724Y-66703738D01*
X56107036Y-66675472D01*
X56107033Y-66675470D01*
X56107032Y-66675468D01*
X55981591Y-66579214D01*
X55893892Y-66542888D01*
X55835512Y-66518706D01*
X55835510Y-66518705D01*
X55718111Y-66503250D01*
X55678750Y-66498068D01*
X55643420Y-66502719D01*
X55635322Y-66503250D01*
X50351745Y-66503250D01*
X50284706Y-66483565D01*
X50238951Y-66430761D01*
X50229007Y-66361603D01*
X50258032Y-66298047D01*
X50264064Y-66291569D01*
X50668814Y-65886819D01*
X50730137Y-65853334D01*
X50756495Y-65850500D01*
X53002750Y-65850500D01*
X53050203Y-65859939D01*
X53184455Y-65915548D01*
X53200728Y-65921309D01*
X53290197Y-65961144D01*
X53475354Y-66000500D01*
X53475355Y-66000500D01*
X53664644Y-66000500D01*
X53664646Y-66000500D01*
X53849803Y-65961144D01*
X54022730Y-65884151D01*
X54175871Y-65772888D01*
X54302533Y-65632216D01*
X54397179Y-65468284D01*
X54455674Y-65288256D01*
X54475460Y-65100000D01*
X54455674Y-64911744D01*
X54397179Y-64731716D01*
X54302533Y-64567784D01*
X54175871Y-64427112D01*
X54172638Y-64424763D01*
X54022734Y-64315851D01*
X54022729Y-64315848D01*
X53849807Y-64238857D01*
X53849802Y-64238855D01*
X53704001Y-64207865D01*
X53664646Y-64199500D01*
X53475354Y-64199500D01*
X53442897Y-64206398D01*
X53290197Y-64238855D01*
X53290192Y-64238857D01*
X53117270Y-64315848D01*
X53117265Y-64315851D01*
X53103548Y-64325818D01*
X53037742Y-64349298D01*
X53030663Y-64349500D01*
X50457971Y-64349500D01*
X50440001Y-64348191D01*
X50416238Y-64344710D01*
X50371156Y-64348655D01*
X50364199Y-64349264D01*
X50358798Y-64349500D01*
X50350553Y-64349500D01*
X50324488Y-64352546D01*
X50317971Y-64353308D01*
X50312669Y-64353771D01*
X50241467Y-64360001D01*
X50234400Y-64361461D01*
X50234388Y-64361404D01*
X50227019Y-64363038D01*
X50227033Y-64363095D01*
X50220005Y-64364760D01*
X50147833Y-64391027D01*
X50147834Y-64391028D01*
X50074931Y-64415186D01*
X50074929Y-64415186D01*
X50074926Y-64415188D01*
X50068389Y-64418236D01*
X50068364Y-64418184D01*
X50061576Y-64421470D01*
X50061602Y-64421521D01*
X50055151Y-64424761D01*
X49990989Y-64466961D01*
X49925612Y-64507285D01*
X49919948Y-64511765D01*
X49919912Y-64511719D01*
X49914064Y-64516484D01*
X49914101Y-64516528D01*
X49908576Y-64521164D01*
X49855880Y-64577017D01*
X49257496Y-65175401D01*
X49196173Y-65208886D01*
X49195596Y-65209010D01*
X49031035Y-65243988D01*
X49031030Y-65243990D01*
X48858108Y-65320981D01*
X48858103Y-65320984D01*
X48704968Y-65432243D01*
X48704966Y-65432245D01*
X48704739Y-65432498D01*
X48704570Y-65432601D01*
X48700139Y-65436592D01*
X48699408Y-65435781D01*
X48645250Y-65469142D01*
X48627003Y-65472679D01*
X48621649Y-65473305D01*
X48545117Y-65480000D01*
X48538050Y-65481460D01*
X48538038Y-65481404D01*
X48530681Y-65483035D01*
X48530695Y-65483092D01*
X48523661Y-65484759D01*
X48451493Y-65511025D01*
X48378583Y-65535185D01*
X48372044Y-65538235D01*
X48372019Y-65538183D01*
X48365226Y-65541471D01*
X48365252Y-65541522D01*
X48358802Y-65544761D01*
X48294634Y-65586964D01*
X48229265Y-65627285D01*
X48223595Y-65631769D01*
X48223559Y-65631723D01*
X48217716Y-65636484D01*
X48217753Y-65636528D01*
X48212228Y-65641164D01*
X48159532Y-65697017D01*
X47079358Y-66777190D01*
X47065729Y-66788969D01*
X47046468Y-66803308D01*
X47012898Y-66843315D01*
X47009253Y-66847294D01*
X47003409Y-66853140D01*
X46983059Y-66878877D01*
X46933695Y-66937707D01*
X46929729Y-66943737D01*
X46929682Y-66943706D01*
X46925630Y-66950065D01*
X46925679Y-66950095D01*
X46921889Y-66956239D01*
X46889424Y-67025859D01*
X46854960Y-67094484D01*
X46852488Y-67101275D01*
X46852432Y-67101254D01*
X46849960Y-67108368D01*
X46850015Y-67108387D01*
X46847742Y-67115245D01*
X46839974Y-67152864D01*
X46832207Y-67190483D01*
X46821667Y-67234955D01*
X46814498Y-67265204D01*
X46813661Y-67272372D01*
X46813601Y-67272365D01*
X46812835Y-67279863D01*
X46812895Y-67279869D01*
X46812265Y-67287058D01*
X46814500Y-67363834D01*
X46814500Y-79344103D01*
X46808431Y-79382421D01*
X46753638Y-79551056D01*
X46733852Y-79739312D01*
X46753638Y-79927568D01*
X46753639Y-79927571D01*
X46812130Y-80107589D01*
X46812133Y-80107596D01*
X46906779Y-80271528D01*
X47033440Y-80412200D01*
X47033441Y-80412200D01*
X47186577Y-80523460D01*
X47186582Y-80523463D01*
X47359504Y-80600454D01*
X47359509Y-80600456D01*
X47544666Y-80639812D01*
X47544667Y-80639812D01*
X47733956Y-80639812D01*
X47733958Y-80639812D01*
X47919115Y-80600456D01*
X48092042Y-80523463D01*
X48245183Y-80412200D01*
X48371845Y-80271528D01*
X48466491Y-80107596D01*
X48524986Y-79927568D01*
X48544772Y-79739312D01*
X48524986Y-79551056D01*
X48466491Y-79371028D01*
X48371845Y-79207096D01*
X48356283Y-79189813D01*
X48347348Y-79179889D01*
X48317119Y-79116898D01*
X48315499Y-79096918D01*
X48315499Y-76147355D01*
X50964843Y-76147355D01*
X50974852Y-76357459D01*
X51024442Y-76561871D01*
X51069082Y-76659619D01*
X51111820Y-76753204D01*
X51111824Y-76753210D01*
X51233826Y-76924539D01*
X51233831Y-76924544D01*
X51386063Y-77069697D01*
X51563014Y-77183416D01*
X51758288Y-77261593D01*
X51887084Y-77286416D01*
X51964828Y-77301400D01*
X51964829Y-77301400D01*
X52122461Y-77301400D01*
X52122468Y-77301400D01*
X52279389Y-77286416D01*
X52481211Y-77227156D01*
X52668170Y-77130771D01*
X52833510Y-77000747D01*
X52971255Y-76841781D01*
X53076426Y-76659619D01*
X53145222Y-76460846D01*
X53175157Y-76252645D01*
X53165148Y-76042541D01*
X53115558Y-75838129D01*
X53028179Y-75646795D01*
X52989881Y-75593013D01*
X52967030Y-75526988D01*
X52983503Y-75459088D01*
X53034070Y-75410872D01*
X53100157Y-75397435D01*
X53274500Y-75410500D01*
X53274506Y-75410500D01*
X53405500Y-75410500D01*
X53601620Y-75395803D01*
X53601622Y-75395802D01*
X53601630Y-75395802D01*
X53857416Y-75337420D01*
X54101643Y-75241568D01*
X54328857Y-75110386D01*
X54533981Y-74946805D01*
X54712433Y-74754479D01*
X54860228Y-74537704D01*
X54974063Y-74301323D01*
X55051396Y-74050615D01*
X55090500Y-73791182D01*
X55090500Y-73528818D01*
X55051396Y-73269385D01*
X54974063Y-73018677D01*
X54909699Y-72885023D01*
X54860232Y-72782303D01*
X54860231Y-72782302D01*
X54860230Y-72782301D01*
X54860228Y-72782296D01*
X54712433Y-72565521D01*
X54670660Y-72520500D01*
X54533985Y-72373198D01*
X54433279Y-72292888D01*
X54328857Y-72209614D01*
X54101643Y-72078432D01*
X53857416Y-71982580D01*
X53857411Y-71982578D01*
X53857402Y-71982576D01*
X53639818Y-71932914D01*
X53601630Y-71924198D01*
X53601629Y-71924197D01*
X53601625Y-71924197D01*
X53601620Y-71924196D01*
X53405500Y-71909500D01*
X53405494Y-71909500D01*
X53274506Y-71909500D01*
X53274500Y-71909500D01*
X53078379Y-71924196D01*
X53078374Y-71924197D01*
X52822597Y-71982576D01*
X52822578Y-71982582D01*
X52578356Y-72078432D01*
X52351143Y-72209614D01*
X52146014Y-72373198D01*
X51967567Y-72565520D01*
X51819768Y-72782302D01*
X51819767Y-72782303D01*
X51705938Y-73018673D01*
X51628606Y-73269376D01*
X51628605Y-73269381D01*
X51628604Y-73269385D01*
X51613853Y-73367247D01*
X51589500Y-73528812D01*
X51589500Y-73791187D01*
X51606758Y-73905677D01*
X51628604Y-74050615D01*
X51628605Y-74050617D01*
X51628606Y-74050623D01*
X51687422Y-74241298D01*
X51703004Y-74291816D01*
X51705938Y-74301326D01*
X51819767Y-74537696D01*
X51819768Y-74537697D01*
X51819770Y-74537700D01*
X51819772Y-74537704D01*
X51944910Y-74721247D01*
X51967567Y-74754479D01*
X52094282Y-74891046D01*
X52125450Y-74953579D01*
X52117863Y-75023035D01*
X52073929Y-75077364D01*
X52015171Y-75098825D01*
X51860610Y-75113583D01*
X51860611Y-75113584D01*
X51860607Y-75113585D01*
X51658791Y-75172843D01*
X51471831Y-75269228D01*
X51306490Y-75399252D01*
X51306489Y-75399253D01*
X51168749Y-75558214D01*
X51168740Y-75558225D01*
X51063574Y-75740379D01*
X50994779Y-75939148D01*
X50994778Y-75939153D01*
X50994778Y-75939154D01*
X50964843Y-76147355D01*
X48315499Y-76147355D01*
X48315499Y-73425224D01*
X48315499Y-67892793D01*
X48335184Y-67825758D01*
X48387988Y-67780003D01*
X48457146Y-67770059D01*
X48512384Y-67792479D01*
X48597265Y-67854148D01*
X48597270Y-67854151D01*
X48770192Y-67931142D01*
X48770197Y-67931144D01*
X48955354Y-67970500D01*
X48955355Y-67970500D01*
X49144644Y-67970500D01*
X49144646Y-67970500D01*
X49329803Y-67931144D01*
X49502730Y-67854151D01*
X49655871Y-67742888D01*
X49655877Y-67742881D01*
X49660695Y-67738544D01*
X49662105Y-67740110D01*
X49713206Y-67708629D01*
X49745869Y-67704250D01*
X55378653Y-67704250D01*
X55445692Y-67723935D01*
X55466334Y-67740569D01*
X55876971Y-68151206D01*
X55910456Y-68212529D01*
X55913290Y-68238887D01*
X55913290Y-68243747D01*
X55913290Y-68243750D01*
X55933076Y-68432006D01*
X55933077Y-68432009D01*
X55991568Y-68612027D01*
X55991571Y-68612034D01*
X56086217Y-68775966D01*
X56154259Y-68851534D01*
X56212879Y-68916638D01*
X56366015Y-69027898D01*
X56366020Y-69027901D01*
X56538942Y-69104892D01*
X56538947Y-69104894D01*
X56724104Y-69144250D01*
X56724105Y-69144250D01*
X56913392Y-69144250D01*
X56913396Y-69144250D01*
X56939721Y-69138654D01*
X57009384Y-69143969D01*
X57065118Y-69186105D01*
X57089225Y-69251684D01*
X57089500Y-69259944D01*
X57089500Y-73381796D01*
X57088969Y-73389898D01*
X57084318Y-73425224D01*
X57084318Y-73425225D01*
X57089500Y-73464585D01*
X57104955Y-73581985D01*
X57104956Y-73581987D01*
X57165464Y-73728067D01*
X57186985Y-73756113D01*
X57212180Y-73821282D01*
X57198142Y-73889727D01*
X57149328Y-73939717D01*
X57088610Y-73955600D01*
X57074959Y-73955600D01*
X56850183Y-73970647D01*
X56850174Y-73970649D01*
X56555710Y-74030501D01*
X56271847Y-74129069D01*
X56271844Y-74129071D01*
X56003662Y-74264589D01*
X55755918Y-74434655D01*
X55533062Y-74636216D01*
X55339058Y-74865686D01*
X55339056Y-74865688D01*
X55177366Y-75118972D01*
X55075996Y-75337420D01*
X55050882Y-75391540D01*
X55024852Y-75475454D01*
X54961854Y-75678535D01*
X54911874Y-75974842D01*
X54901833Y-76275167D01*
X54931910Y-76574142D01*
X54931911Y-76574149D01*
X55001568Y-76866441D01*
X55001571Y-76866453D01*
X55109566Y-77146853D01*
X55109573Y-77146868D01*
X55253979Y-77410375D01*
X55253983Y-77410381D01*
X55352546Y-77544151D01*
X55432223Y-77652290D01*
X55591625Y-77817110D01*
X55641120Y-77868288D01*
X55641127Y-77868294D01*
X55711308Y-77923715D01*
X55876946Y-78054518D01*
X56135487Y-78207652D01*
X56412133Y-78324960D01*
X56412136Y-78324960D01*
X56412139Y-78324962D01*
X56557039Y-78364654D01*
X56701946Y-78404348D01*
X56999755Y-78444400D01*
X56999760Y-78444400D01*
X57225041Y-78444400D01*
X57388513Y-78433456D01*
X57449819Y-78429352D01*
X57744287Y-78369499D01*
X58028151Y-78270931D01*
X58296343Y-78135407D01*
X58544080Y-77965346D01*
X58766939Y-77763782D01*
X58960943Y-77534312D01*
X59122631Y-77281032D01*
X59249118Y-77008460D01*
X59338146Y-76721462D01*
X59388126Y-76425158D01*
X59393219Y-76272824D01*
X59415132Y-76206484D01*
X59469435Y-76162519D01*
X59538887Y-76154891D01*
X59601438Y-76186024D01*
X59604830Y-76189290D01*
X59673181Y-76257641D01*
X59706666Y-76318964D01*
X59709500Y-76345322D01*
X59709500Y-77523047D01*
X59689815Y-77590086D01*
X59677650Y-77606019D01*
X59577466Y-77717285D01*
X59482821Y-77881215D01*
X59482818Y-77881222D01*
X59455485Y-77965346D01*
X59424326Y-78061244D01*
X59404540Y-78249500D01*
X59424326Y-78437756D01*
X59424327Y-78437759D01*
X59482818Y-78617777D01*
X59482821Y-78617784D01*
X59577467Y-78781716D01*
X59642688Y-78854151D01*
X59704129Y-78922388D01*
X59857265Y-79033648D01*
X59857270Y-79033651D01*
X60030192Y-79110642D01*
X60030197Y-79110644D01*
X60215354Y-79150000D01*
X60215355Y-79150000D01*
X60404644Y-79150000D01*
X60404646Y-79150000D01*
X60589803Y-79110644D01*
X60762730Y-79033651D01*
X60915871Y-78922388D01*
X61042533Y-78781716D01*
X61137179Y-78617784D01*
X61195674Y-78437756D01*
X61215460Y-78249500D01*
X61195674Y-78061244D01*
X61137179Y-77881216D01*
X61042533Y-77717284D01*
X60942348Y-77606018D01*
X60912119Y-77543028D01*
X60910499Y-77523059D01*
X60910500Y-76469762D01*
X60930185Y-76402722D01*
X60982989Y-76356968D01*
X61052147Y-76347024D01*
X61115703Y-76376049D01*
X61153477Y-76434827D01*
X61154998Y-76440504D01*
X61184442Y-76561871D01*
X61229082Y-76659619D01*
X61271820Y-76753204D01*
X61271824Y-76753210D01*
X61393826Y-76924539D01*
X61393831Y-76924544D01*
X61546063Y-77069697D01*
X61723014Y-77183416D01*
X61918288Y-77261593D01*
X62047084Y-77286416D01*
X62124828Y-77301400D01*
X62124829Y-77301400D01*
X62282461Y-77301400D01*
X62282468Y-77301400D01*
X62439389Y-77286416D01*
X62641211Y-77227156D01*
X62828170Y-77130771D01*
X62993510Y-77000747D01*
X63131255Y-76841781D01*
X63236426Y-76659619D01*
X63305222Y-76460846D01*
X63335157Y-76252645D01*
X63325148Y-76042541D01*
X63275558Y-75838129D01*
X63188179Y-75646795D01*
X63185047Y-75642397D01*
X63066173Y-75475460D01*
X63066167Y-75475454D01*
X62913939Y-75330305D01*
X62913937Y-75330303D01*
X62736986Y-75216584D01*
X62736984Y-75216583D01*
X62541721Y-75138410D01*
X62541714Y-75138407D01*
X62541712Y-75138407D01*
X62541709Y-75138406D01*
X62541708Y-75138406D01*
X62335172Y-75098600D01*
X62335171Y-75098600D01*
X62177532Y-75098600D01*
X62020610Y-75113584D01*
X62020611Y-75113584D01*
X62020607Y-75113585D01*
X61818791Y-75172843D01*
X61631831Y-75269228D01*
X61466490Y-75399252D01*
X61466489Y-75399253D01*
X61328749Y-75558214D01*
X61328740Y-75558225D01*
X61223574Y-75740379D01*
X61154779Y-75939148D01*
X61154776Y-75939163D01*
X61150822Y-75966661D01*
X61121796Y-76030216D01*
X61063017Y-76067989D01*
X60993147Y-76067987D01*
X60934370Y-76030211D01*
X60905347Y-75966655D01*
X60905157Y-75965282D01*
X60895044Y-75888463D01*
X60834538Y-75742388D01*
X60834538Y-75742387D01*
X60834536Y-75742384D01*
X60762450Y-75648440D01*
X60750366Y-75632691D01*
X60738283Y-75616943D01*
X60710009Y-75595248D01*
X60703912Y-75589902D01*
X58326819Y-73212809D01*
X58293334Y-73151486D01*
X58290500Y-73125128D01*
X58290500Y-72500321D01*
X58310185Y-72433282D01*
X58362989Y-72387527D01*
X58432147Y-72377583D01*
X58491699Y-72404779D01*
X58492392Y-72403912D01*
X58496015Y-72406801D01*
X58496019Y-72406805D01*
X58701143Y-72570386D01*
X58928357Y-72701568D01*
X59172584Y-72797420D01*
X59428370Y-72855802D01*
X59428376Y-72855802D01*
X59428379Y-72855803D01*
X59624500Y-72870500D01*
X59624506Y-72870500D01*
X59755500Y-72870500D01*
X59951620Y-72855803D01*
X59951622Y-72855802D01*
X59951630Y-72855802D01*
X60207416Y-72797420D01*
X60451643Y-72701568D01*
X60678857Y-72570386D01*
X60883981Y-72406805D01*
X60886447Y-72404148D01*
X60989680Y-72292888D01*
X61062433Y-72214479D01*
X61210228Y-71997704D01*
X61214765Y-71988284D01*
X61245627Y-71924197D01*
X61324063Y-71761323D01*
X61401396Y-71510615D01*
X61440500Y-71251182D01*
X61440500Y-70988818D01*
X61401396Y-70729385D01*
X61324063Y-70478677D01*
X61265793Y-70357677D01*
X61210232Y-70242303D01*
X61210231Y-70242302D01*
X61210230Y-70242301D01*
X61210228Y-70242296D01*
X61062433Y-70025521D01*
X61014861Y-69974250D01*
X60883985Y-69833198D01*
X60754078Y-69729601D01*
X60678857Y-69669614D01*
X60451643Y-69538432D01*
X60207416Y-69442580D01*
X60207411Y-69442578D01*
X60207402Y-69442576D01*
X59989818Y-69392914D01*
X59951630Y-69384198D01*
X59951629Y-69384197D01*
X59951625Y-69384197D01*
X59951620Y-69384196D01*
X59755500Y-69369500D01*
X59755494Y-69369500D01*
X59624506Y-69369500D01*
X59624500Y-69369500D01*
X59428379Y-69384196D01*
X59428374Y-69384197D01*
X59172597Y-69442576D01*
X59172578Y-69442582D01*
X58928356Y-69538432D01*
X58816023Y-69603288D01*
X58701143Y-69669614D01*
X58496019Y-69833195D01*
X58496017Y-69833197D01*
X58492392Y-69836088D01*
X58491085Y-69834449D01*
X58436283Y-69861750D01*
X58366828Y-69854148D01*
X58312508Y-69810203D01*
X58290571Y-69743866D01*
X58290500Y-69739678D01*
X58290500Y-68482892D01*
X58290500Y-67170142D01*
X58310184Y-67103107D01*
X58326813Y-67082470D01*
X62234560Y-63174723D01*
X62295881Y-63141240D01*
X62365573Y-63146224D01*
X62421506Y-63188096D01*
X62445923Y-63253560D01*
X62446239Y-63262407D01*
X62446238Y-63413310D01*
X62445707Y-63421410D01*
X62441057Y-63456739D01*
X62446239Y-63496099D01*
X62461694Y-63613499D01*
X62461695Y-63613501D01*
X62520498Y-63755465D01*
X62522203Y-63759580D01*
X62618457Y-63885021D01*
X62646734Y-63906719D01*
X62652824Y-63912059D01*
X64926613Y-66185848D01*
X67162334Y-68421569D01*
X67195819Y-68482892D01*
X67190835Y-68552584D01*
X67148963Y-68608517D01*
X67083499Y-68632934D01*
X67074653Y-68633250D01*
X66038087Y-68633250D01*
X65971048Y-68613565D01*
X65965202Y-68609568D01*
X65951484Y-68599601D01*
X65951479Y-68599598D01*
X65778557Y-68522607D01*
X65778552Y-68522605D01*
X65632751Y-68491615D01*
X65593396Y-68483250D01*
X65404104Y-68483250D01*
X65371647Y-68490148D01*
X65218947Y-68522605D01*
X65218942Y-68522607D01*
X65046020Y-68599598D01*
X65046015Y-68599601D01*
X64957385Y-68663995D01*
X64891579Y-68687475D01*
X64823525Y-68671649D01*
X64774830Y-68621543D01*
X64760500Y-68563677D01*
X64760500Y-68396452D01*
X64780185Y-68329413D01*
X64792350Y-68313480D01*
X64892533Y-68202216D01*
X64987179Y-68038284D01*
X65045674Y-67858256D01*
X65065460Y-67670000D01*
X65045674Y-67481744D01*
X64987179Y-67301716D01*
X64892533Y-67137784D01*
X64765871Y-66997112D01*
X64765870Y-66997111D01*
X64612734Y-66885851D01*
X64612729Y-66885848D01*
X64439807Y-66808857D01*
X64439802Y-66808855D01*
X64290825Y-66777190D01*
X64254646Y-66769500D01*
X64065354Y-66769500D01*
X64032897Y-66776398D01*
X63880197Y-66808855D01*
X63880192Y-66808857D01*
X63707270Y-66885848D01*
X63707265Y-66885851D01*
X63554129Y-66997111D01*
X63427466Y-67137785D01*
X63332821Y-67301715D01*
X63332818Y-67301722D01*
X63274327Y-67481740D01*
X63274326Y-67481744D01*
X63254540Y-67670000D01*
X63274326Y-67858256D01*
X63274327Y-67858259D01*
X63332818Y-68038277D01*
X63332821Y-68038284D01*
X63427467Y-68202216D01*
X63527650Y-68313480D01*
X63557880Y-68376471D01*
X63559500Y-68396452D01*
X63559500Y-71166571D01*
X63558969Y-71174669D01*
X63554318Y-71210000D01*
X63559500Y-71249361D01*
X63559810Y-71251715D01*
X63574955Y-71366760D01*
X63574956Y-71366762D01*
X63633573Y-71508277D01*
X63635464Y-71512841D01*
X63731718Y-71638282D01*
X63759995Y-71659980D01*
X63766085Y-71665320D01*
X64883061Y-72782296D01*
X65999289Y-73898524D01*
X66032774Y-73959847D01*
X66035608Y-73986205D01*
X66035608Y-73991065D01*
X66035608Y-73991068D01*
X66055394Y-74179324D01*
X66055395Y-74179327D01*
X66113886Y-74359345D01*
X66113889Y-74359352D01*
X66208535Y-74523284D01*
X66335197Y-74663956D01*
X66488333Y-74775216D01*
X66488338Y-74775219D01*
X66661260Y-74852210D01*
X66661265Y-74852212D01*
X66846422Y-74891568D01*
X66846423Y-74891568D01*
X67035712Y-74891568D01*
X67035714Y-74891568D01*
X67220871Y-74852212D01*
X67393798Y-74775219D01*
X67546939Y-74663956D01*
X67673601Y-74523284D01*
X67768247Y-74359352D01*
X67826742Y-74179324D01*
X67846528Y-73991068D01*
X67826742Y-73802812D01*
X67768247Y-73622784D01*
X67673601Y-73458852D01*
X67546939Y-73318180D01*
X67546938Y-73318179D01*
X67393802Y-73206919D01*
X67393797Y-73206916D01*
X67220875Y-73129925D01*
X67220870Y-73129923D01*
X67075069Y-73098933D01*
X67035714Y-73090568D01*
X67035713Y-73090568D01*
X66941165Y-73090568D01*
X66874126Y-73070883D01*
X66853484Y-73054249D01*
X64796819Y-70997584D01*
X64763334Y-70936261D01*
X64760500Y-70909903D01*
X64760500Y-70203822D01*
X64780185Y-70136783D01*
X64832989Y-70091028D01*
X64902147Y-70081084D01*
X64957383Y-70103502D01*
X65015141Y-70145466D01*
X65046020Y-70167901D01*
X65218942Y-70244892D01*
X65218947Y-70244894D01*
X65239908Y-70249349D01*
X65301389Y-70282539D01*
X65335167Y-70343702D01*
X65337448Y-70357675D01*
X65354326Y-70518256D01*
X65354327Y-70518259D01*
X65412818Y-70698277D01*
X65412821Y-70698284D01*
X65507467Y-70862216D01*
X65618987Y-70986071D01*
X65634129Y-71002888D01*
X65787265Y-71114148D01*
X65787270Y-71114151D01*
X65960192Y-71191142D01*
X65960193Y-71191142D01*
X65960197Y-71191144D01*
X66145354Y-71230500D01*
X66145355Y-71230500D01*
X66148479Y-71231164D01*
X66209961Y-71264356D01*
X66241909Y-71322208D01*
X66242318Y-71322076D01*
X66243006Y-71324193D01*
X66243738Y-71325519D01*
X66243988Y-71326669D01*
X66244324Y-71328250D01*
X66302818Y-71508277D01*
X66302821Y-71508284D01*
X66397467Y-71672216D01*
X66506077Y-71792839D01*
X66524129Y-71812888D01*
X66677265Y-71924148D01*
X66677270Y-71924151D01*
X66850192Y-72001142D01*
X66850197Y-72001144D01*
X67035354Y-72040500D01*
X67035355Y-72040500D01*
X67224644Y-72040500D01*
X67224646Y-72040500D01*
X67409803Y-72001144D01*
X67582730Y-71924151D01*
X67735871Y-71812888D01*
X67764108Y-71781527D01*
X67823595Y-71744879D01*
X67856258Y-71740500D01*
X71834703Y-71740500D01*
X71901742Y-71760185D01*
X71947497Y-71812989D01*
X71957441Y-71882147D01*
X71928416Y-71945703D01*
X71876409Y-71979628D01*
X71876903Y-71980885D01*
X71872584Y-71982579D01*
X71872584Y-71982580D01*
X71834069Y-71997696D01*
X71628356Y-72078432D01*
X71401143Y-72209614D01*
X71196014Y-72373198D01*
X71017567Y-72565520D01*
X70869768Y-72782302D01*
X70869767Y-72782303D01*
X70755938Y-73018673D01*
X70678606Y-73269376D01*
X70678605Y-73269381D01*
X70678604Y-73269385D01*
X70663853Y-73367247D01*
X70639500Y-73528812D01*
X70639500Y-73791187D01*
X70656758Y-73905677D01*
X70678604Y-74050615D01*
X70678605Y-74050617D01*
X70678606Y-74050623D01*
X70737422Y-74241298D01*
X70753004Y-74291816D01*
X70755938Y-74301326D01*
X70869767Y-74537696D01*
X70869768Y-74537697D01*
X70869770Y-74537700D01*
X70869772Y-74537704D01*
X70994910Y-74721247D01*
X71017567Y-74754479D01*
X71144282Y-74891046D01*
X71175450Y-74953579D01*
X71167863Y-75023035D01*
X71123929Y-75077364D01*
X71065171Y-75098825D01*
X70910610Y-75113583D01*
X70910611Y-75113584D01*
X70910607Y-75113585D01*
X70708791Y-75172843D01*
X70521831Y-75269228D01*
X70356490Y-75399252D01*
X70356489Y-75399253D01*
X70218749Y-75558214D01*
X70218740Y-75558225D01*
X70113574Y-75740379D01*
X70044779Y-75939148D01*
X70044778Y-75939153D01*
X70044778Y-75939154D01*
X70014843Y-76147355D01*
X70024852Y-76357459D01*
X70074442Y-76561871D01*
X70119082Y-76659619D01*
X70161820Y-76753204D01*
X70161824Y-76753210D01*
X70283826Y-76924539D01*
X70283831Y-76924544D01*
X70436063Y-77069697D01*
X70613014Y-77183416D01*
X70808288Y-77261593D01*
X70937084Y-77286416D01*
X71014828Y-77301400D01*
X71014829Y-77301400D01*
X71172461Y-77301400D01*
X71172468Y-77301400D01*
X71329389Y-77286416D01*
X71531211Y-77227156D01*
X71718170Y-77130771D01*
X71883510Y-77000747D01*
X72021255Y-76841781D01*
X72126426Y-76659619D01*
X72195222Y-76460846D01*
X72225157Y-76252645D01*
X72215148Y-76042541D01*
X72165558Y-75838129D01*
X72078179Y-75646795D01*
X72039881Y-75593013D01*
X72017030Y-75526988D01*
X72033503Y-75459088D01*
X72084070Y-75410872D01*
X72150157Y-75397435D01*
X72324500Y-75410500D01*
X72324506Y-75410500D01*
X72455500Y-75410500D01*
X72651620Y-75395803D01*
X72651622Y-75395802D01*
X72651630Y-75395802D01*
X72907416Y-75337420D01*
X73151643Y-75241568D01*
X73378857Y-75110386D01*
X73583981Y-74946805D01*
X73762433Y-74754479D01*
X73910228Y-74537704D01*
X74024063Y-74301323D01*
X74101396Y-74050615D01*
X74140500Y-73791182D01*
X74140500Y-73528818D01*
X74101396Y-73269385D01*
X74024063Y-73018677D01*
X73959699Y-72885023D01*
X73910232Y-72782303D01*
X73910231Y-72782302D01*
X73910230Y-72782301D01*
X73910228Y-72782296D01*
X73762433Y-72565521D01*
X73720660Y-72520500D01*
X73583985Y-72373198D01*
X73483279Y-72292888D01*
X73378857Y-72209614D01*
X73151643Y-72078432D01*
X72907416Y-71982580D01*
X72907415Y-71982579D01*
X72903097Y-71980885D01*
X72903605Y-71979588D01*
X72850485Y-71944416D01*
X72822330Y-71880470D01*
X72833216Y-71811454D01*
X72879687Y-71759279D01*
X72945297Y-71740500D01*
X74521153Y-71740500D01*
X74588192Y-71760185D01*
X74608834Y-71776819D01*
X76596088Y-73764073D01*
X76629573Y-73825396D01*
X76624589Y-73895088D01*
X76582717Y-73951021D01*
X76517253Y-73975438D01*
X76491880Y-73974648D01*
X76427830Y-73966034D01*
X76350245Y-73955600D01*
X76124967Y-73955600D01*
X76124959Y-73955600D01*
X75900183Y-73970647D01*
X75900174Y-73970649D01*
X75605710Y-74030501D01*
X75321847Y-74129069D01*
X75321844Y-74129071D01*
X75053662Y-74264589D01*
X74805918Y-74434655D01*
X74583062Y-74636216D01*
X74389058Y-74865686D01*
X74389056Y-74865688D01*
X74227366Y-75118972D01*
X74125996Y-75337420D01*
X74100882Y-75391540D01*
X74074852Y-75475454D01*
X74011854Y-75678535D01*
X73961874Y-75974842D01*
X73951833Y-76275167D01*
X73981910Y-76574142D01*
X73981911Y-76574149D01*
X74051568Y-76866441D01*
X74051571Y-76866453D01*
X74159566Y-77146853D01*
X74159573Y-77146868D01*
X74303979Y-77410375D01*
X74303983Y-77410381D01*
X74402546Y-77544151D01*
X74482223Y-77652290D01*
X74641625Y-77817110D01*
X74691120Y-77868288D01*
X74691127Y-77868294D01*
X74761308Y-77923715D01*
X74926946Y-78054518D01*
X75185487Y-78207652D01*
X75462133Y-78324960D01*
X75462136Y-78324960D01*
X75462139Y-78324962D01*
X75607039Y-78364654D01*
X75751946Y-78404348D01*
X76049755Y-78444400D01*
X76049760Y-78444400D01*
X76275041Y-78444400D01*
X76438513Y-78433456D01*
X76499819Y-78429352D01*
X76794287Y-78369499D01*
X77078151Y-78270931D01*
X77346343Y-78135407D01*
X77594080Y-77965346D01*
X77816939Y-77763782D01*
X78010943Y-77534312D01*
X78172631Y-77281032D01*
X78299118Y-77008460D01*
X78388146Y-76721462D01*
X78438126Y-76425158D01*
X78448167Y-76124836D01*
X78418089Y-75825855D01*
X78396953Y-75737164D01*
X78400560Y-75667392D01*
X78441318Y-75610642D01*
X78506287Y-75584937D01*
X78533757Y-75585482D01*
X78607928Y-75595248D01*
X78680349Y-75604783D01*
X78680350Y-75604783D01*
X78715684Y-75600130D01*
X78723784Y-75599600D01*
X80148165Y-75599600D01*
X80215204Y-75619285D01*
X80260959Y-75672089D01*
X80270903Y-75741247D01*
X80265345Y-75764156D01*
X80204779Y-75939148D01*
X80204778Y-75939153D01*
X80204778Y-75939154D01*
X80174843Y-76147355D01*
X80184852Y-76357459D01*
X80234442Y-76561871D01*
X80279082Y-76659619D01*
X80321820Y-76753204D01*
X80321824Y-76753210D01*
X80443826Y-76924539D01*
X80443831Y-76924544D01*
X80596063Y-77069697D01*
X80773014Y-77183416D01*
X80968288Y-77261593D01*
X81097084Y-77286416D01*
X81174828Y-77301400D01*
X81174829Y-77301400D01*
X81332461Y-77301400D01*
X81332468Y-77301400D01*
X81489389Y-77286416D01*
X81691211Y-77227156D01*
X81878170Y-77130771D01*
X82043510Y-77000747D01*
X82181255Y-76841781D01*
X82286426Y-76659619D01*
X82355222Y-76460846D01*
X82385157Y-76252645D01*
X82375148Y-76042541D01*
X82325558Y-75838129D01*
X82311007Y-75806267D01*
X82296779Y-75775111D01*
X82286835Y-75705953D01*
X82315860Y-75642397D01*
X82374638Y-75604623D01*
X82409573Y-75599600D01*
X86970674Y-75599600D01*
X87037713Y-75619285D01*
X87058355Y-75635919D01*
X88403171Y-76980735D01*
X88436656Y-77042058D01*
X88431672Y-77111750D01*
X88389800Y-77167683D01*
X88324336Y-77192100D01*
X88289710Y-77189706D01*
X88194646Y-77169500D01*
X88005354Y-77169500D01*
X87972897Y-77176398D01*
X87820197Y-77208855D01*
X87820192Y-77208857D01*
X87647270Y-77285848D01*
X87647265Y-77285851D01*
X87494135Y-77397106D01*
X87494128Y-77397112D01*
X87465891Y-77428473D01*
X87406405Y-77465121D01*
X87373742Y-77469500D01*
X87290097Y-77469500D01*
X87223058Y-77449815D01*
X87202416Y-77433181D01*
X86621779Y-76852544D01*
X86588294Y-76791221D01*
X86585460Y-76764863D01*
X86585460Y-76760002D01*
X86584746Y-76753205D01*
X86565674Y-76571744D01*
X86507179Y-76391716D01*
X86412533Y-76227784D01*
X86285871Y-76087112D01*
X86282403Y-76084592D01*
X86132734Y-75975851D01*
X86132729Y-75975848D01*
X85959807Y-75898857D01*
X85959802Y-75898855D01*
X85814001Y-75867865D01*
X85774646Y-75859500D01*
X85585354Y-75859500D01*
X85552897Y-75866398D01*
X85400197Y-75898855D01*
X85400192Y-75898857D01*
X85227270Y-75975848D01*
X85227265Y-75975851D01*
X85074129Y-76087111D01*
X84947466Y-76227785D01*
X84852821Y-76391715D01*
X84852818Y-76391722D01*
X84797534Y-76561871D01*
X84794326Y-76571744D01*
X84774540Y-76760000D01*
X84794326Y-76948256D01*
X84794327Y-76948259D01*
X84852818Y-77128277D01*
X84852821Y-77128284D01*
X84947467Y-77292216D01*
X85011705Y-77363559D01*
X85074129Y-77432888D01*
X85227265Y-77544148D01*
X85227270Y-77544151D01*
X85400192Y-77621142D01*
X85400197Y-77621144D01*
X85585354Y-77660500D01*
X85679903Y-77660500D01*
X85746942Y-77680185D01*
X85767584Y-77696819D01*
X86534669Y-78463904D01*
X86540020Y-78470005D01*
X86561718Y-78498282D01*
X86664866Y-78577430D01*
X86687159Y-78594536D01*
X86687162Y-78594537D01*
X86687163Y-78594538D01*
X86760198Y-78624789D01*
X86833238Y-78655044D01*
X86911619Y-78665363D01*
X86989999Y-78675682D01*
X86990000Y-78675682D01*
X87025329Y-78671030D01*
X87033428Y-78670500D01*
X87373742Y-78670500D01*
X87440781Y-78690185D01*
X87465891Y-78711527D01*
X87494128Y-78742887D01*
X87494135Y-78742893D01*
X87647265Y-78854148D01*
X87647270Y-78854151D01*
X87820192Y-78931142D01*
X87820197Y-78931144D01*
X88005354Y-78970500D01*
X88005355Y-78970500D01*
X88194644Y-78970500D01*
X88194646Y-78970500D01*
X88379803Y-78931144D01*
X88552730Y-78854151D01*
X88705871Y-78742888D01*
X88832533Y-78602216D01*
X88927179Y-78438284D01*
X88985674Y-78258256D01*
X89005460Y-78070000D01*
X88985674Y-77881744D01*
X88985672Y-77881740D01*
X88984994Y-77875281D01*
X88987636Y-77875003D01*
X88992031Y-77817110D01*
X89034145Y-77761359D01*
X89099715Y-77737228D01*
X89167923Y-77752376D01*
X89195704Y-77773268D01*
X90360240Y-78937804D01*
X90365591Y-78943905D01*
X90387289Y-78972182D01*
X90452069Y-79021889D01*
X90512730Y-79068436D01*
X90512733Y-79068437D01*
X90512734Y-79068438D01*
X90585769Y-79098689D01*
X90658809Y-79128944D01*
X90737190Y-79139262D01*
X90815570Y-79149582D01*
X90815571Y-79149582D01*
X90850900Y-79144930D01*
X90858999Y-79144400D01*
X100475172Y-79144400D01*
X100483270Y-79144930D01*
X100518600Y-79149582D01*
X100518601Y-79149582D01*
X100570854Y-79142702D01*
X100675362Y-79128944D01*
X100821441Y-79068436D01*
X100882102Y-79021889D01*
X100946882Y-78972182D01*
X100968583Y-78943899D01*
X100973911Y-78937822D01*
X105160294Y-74751439D01*
X105204199Y-74724538D01*
X105203865Y-74723788D01*
X105209571Y-74721247D01*
X105209673Y-74721185D01*
X105209783Y-74721148D01*
X105209803Y-74721144D01*
X105382730Y-74644151D01*
X105535871Y-74532888D01*
X105662533Y-74392216D01*
X105757179Y-74228284D01*
X105815674Y-74048256D01*
X105835460Y-73860000D01*
X105815674Y-73671744D01*
X105757179Y-73491716D01*
X105662533Y-73327784D01*
X105535871Y-73187112D01*
X105486836Y-73151486D01*
X105382734Y-73075851D01*
X105382729Y-73075848D01*
X105209807Y-72998857D01*
X105209802Y-72998855D01*
X105060439Y-72967108D01*
X105024646Y-72959500D01*
X104835354Y-72959500D01*
X104802897Y-72966398D01*
X104650197Y-72998855D01*
X104650192Y-72998857D01*
X104477270Y-73075848D01*
X104477265Y-73075851D01*
X104324129Y-73187111D01*
X104197466Y-73327785D01*
X104102821Y-73491715D01*
X104102818Y-73491722D01*
X104044327Y-73671740D01*
X104044326Y-73671744D01*
X104024540Y-73860000D01*
X104038809Y-73995766D01*
X104044327Y-74048261D01*
X104050440Y-74067075D01*
X104052435Y-74136917D01*
X104020190Y-74193073D01*
X101602620Y-76610643D01*
X101541297Y-76644128D01*
X101471605Y-76639144D01*
X101415672Y-76597272D01*
X101391255Y-76531808D01*
X101397758Y-76482409D01*
X101405222Y-76460846D01*
X101435157Y-76252645D01*
X101425148Y-76042541D01*
X101375558Y-75838129D01*
X101288179Y-75646795D01*
X101285047Y-75642397D01*
X101166173Y-75475460D01*
X101166167Y-75475454D01*
X101013939Y-75330305D01*
X101013937Y-75330303D01*
X100836986Y-75216584D01*
X100836984Y-75216583D01*
X100641721Y-75138410D01*
X100641714Y-75138407D01*
X100641712Y-75138407D01*
X100641709Y-75138406D01*
X100641708Y-75138406D01*
X100435172Y-75098600D01*
X100435171Y-75098600D01*
X100277532Y-75098600D01*
X100120610Y-75113584D01*
X100120611Y-75113584D01*
X100120607Y-75113585D01*
X99918791Y-75172843D01*
X99731831Y-75269228D01*
X99566490Y-75399252D01*
X99566489Y-75399253D01*
X99428749Y-75558214D01*
X99428740Y-75558225D01*
X99323574Y-75740379D01*
X99254779Y-75939148D01*
X99254778Y-75939153D01*
X99254778Y-75939154D01*
X99224843Y-76147355D01*
X99234852Y-76357459D01*
X99284442Y-76561871D01*
X99329082Y-76659619D01*
X99371820Y-76753204D01*
X99371824Y-76753210D01*
X99493826Y-76924539D01*
X99493831Y-76924544D01*
X99646063Y-77069697D01*
X99823014Y-77183416D01*
X100018288Y-77261593D01*
X100147084Y-77286416D01*
X100224828Y-77301400D01*
X100224829Y-77301400D01*
X100382461Y-77301400D01*
X100382468Y-77301400D01*
X100539389Y-77286416D01*
X100621763Y-77262229D01*
X100691631Y-77262229D01*
X100750409Y-77300003D01*
X100779434Y-77363559D01*
X100769490Y-77432717D01*
X100744377Y-77468887D01*
X100306184Y-77907081D01*
X100244861Y-77940566D01*
X100218503Y-77943400D01*
X96982294Y-77943400D01*
X96915255Y-77923715D01*
X96869500Y-77870911D01*
X96859556Y-77801753D01*
X96887600Y-77739343D01*
X97060943Y-77534312D01*
X97222631Y-77281032D01*
X97349118Y-77008460D01*
X97438146Y-76721462D01*
X97488126Y-76425158D01*
X97498167Y-76124836D01*
X97468089Y-75825855D01*
X97398430Y-75533551D01*
X97290431Y-75253140D01*
X97146021Y-74989625D01*
X96967777Y-74747710D01*
X96758879Y-74531711D01*
X96758872Y-74531705D01*
X96582234Y-74392216D01*
X96523054Y-74345482D01*
X96264513Y-74192348D01*
X95987867Y-74075040D01*
X95987860Y-74075037D01*
X95698059Y-73995653D01*
X95698056Y-73995652D01*
X95698054Y-73995652D01*
X95400245Y-73955600D01*
X95174967Y-73955600D01*
X95174959Y-73955600D01*
X94950183Y-73970647D01*
X94950174Y-73970649D01*
X94655710Y-74030501D01*
X94371847Y-74129069D01*
X94371844Y-74129071D01*
X94103662Y-74264589D01*
X93855918Y-74434655D01*
X93633062Y-74636216D01*
X93439058Y-74865686D01*
X93439056Y-74865688D01*
X93277366Y-75118972D01*
X93175996Y-75337420D01*
X93150882Y-75391540D01*
X93124852Y-75475454D01*
X93061854Y-75678535D01*
X93011874Y-75974842D01*
X93001833Y-76275167D01*
X93031910Y-76574142D01*
X93031911Y-76574149D01*
X93101568Y-76866441D01*
X93101571Y-76866453D01*
X93209566Y-77146853D01*
X93209573Y-77146868D01*
X93353979Y-77410375D01*
X93353983Y-77410381D01*
X93452546Y-77544151D01*
X93532223Y-77652290D01*
X93559201Y-77680185D01*
X93610469Y-77733196D01*
X93642925Y-77795070D01*
X93636776Y-77864669D01*
X93593976Y-77919895D01*
X93528113Y-77943215D01*
X93521335Y-77943400D01*
X91115668Y-77943400D01*
X91048629Y-77923715D01*
X91027987Y-77907081D01*
X90547452Y-77426546D01*
X90513967Y-77365223D01*
X90518951Y-77295531D01*
X90560823Y-77239598D01*
X90578313Y-77228649D01*
X90581206Y-77227157D01*
X90581211Y-77227156D01*
X90768170Y-77130771D01*
X90933510Y-77000747D01*
X91071255Y-76841781D01*
X91176426Y-76659619D01*
X91245222Y-76460846D01*
X91275157Y-76252645D01*
X91265148Y-76042541D01*
X91215558Y-75838129D01*
X91128179Y-75646795D01*
X91089881Y-75593013D01*
X91067030Y-75526988D01*
X91083503Y-75459088D01*
X91134070Y-75410872D01*
X91200157Y-75397435D01*
X91374500Y-75410500D01*
X91374506Y-75410500D01*
X91505500Y-75410500D01*
X91701620Y-75395803D01*
X91701622Y-75395802D01*
X91701630Y-75395802D01*
X91957416Y-75337420D01*
X92201643Y-75241568D01*
X92428857Y-75110386D01*
X92633981Y-74946805D01*
X92812433Y-74754479D01*
X92960228Y-74537704D01*
X93074063Y-74301323D01*
X93151396Y-74050615D01*
X93190500Y-73791182D01*
X93190500Y-73528818D01*
X93151396Y-73269385D01*
X93074063Y-73018677D01*
X93009699Y-72885023D01*
X92960232Y-72782303D01*
X92960231Y-72782302D01*
X92960230Y-72782301D01*
X92960228Y-72782296D01*
X92812433Y-72565521D01*
X92770660Y-72520500D01*
X92633985Y-72373198D01*
X92533279Y-72292888D01*
X92428857Y-72209614D01*
X92201643Y-72078432D01*
X91957416Y-71982580D01*
X91957411Y-71982578D01*
X91957402Y-71982576D01*
X91739818Y-71932914D01*
X91701630Y-71924198D01*
X91701629Y-71924197D01*
X91701625Y-71924197D01*
X91701620Y-71924196D01*
X91505500Y-71909500D01*
X91505494Y-71909500D01*
X91374506Y-71909500D01*
X91374500Y-71909500D01*
X91178379Y-71924196D01*
X91178374Y-71924197D01*
X90922597Y-71982576D01*
X90922578Y-71982582D01*
X90678356Y-72078432D01*
X90451143Y-72209614D01*
X90246014Y-72373198D01*
X90067567Y-72565520D01*
X89919768Y-72782302D01*
X89919767Y-72782303D01*
X89805938Y-73018673D01*
X89728606Y-73269376D01*
X89728605Y-73269381D01*
X89728604Y-73269385D01*
X89713853Y-73367247D01*
X89689500Y-73528812D01*
X89689500Y-73791187D01*
X89706758Y-73905677D01*
X89728604Y-74050615D01*
X89728605Y-74050617D01*
X89728606Y-74050623D01*
X89787422Y-74241298D01*
X89803004Y-74291816D01*
X89805938Y-74301326D01*
X89919767Y-74537696D01*
X89919768Y-74537697D01*
X89919770Y-74537700D01*
X89919772Y-74537704D01*
X90044910Y-74721247D01*
X90067567Y-74754479D01*
X90194282Y-74891046D01*
X90225450Y-74953579D01*
X90217863Y-75023035D01*
X90173929Y-75077364D01*
X90115171Y-75098825D01*
X89960610Y-75113583D01*
X89960611Y-75113584D01*
X89960607Y-75113585D01*
X89758791Y-75172843D01*
X89571831Y-75269228D01*
X89406490Y-75399252D01*
X89406489Y-75399253D01*
X89268749Y-75558214D01*
X89268740Y-75558225D01*
X89163574Y-75740380D01*
X89150639Y-75777751D01*
X89110109Y-75834665D01*
X89045244Y-75860631D01*
X88976637Y-75847406D01*
X88945779Y-75824873D01*
X87726099Y-74605193D01*
X87720745Y-74599088D01*
X87699057Y-74570822D01*
X87699054Y-74570820D01*
X87699053Y-74570818D01*
X87573612Y-74474564D01*
X87427533Y-74414056D01*
X87427531Y-74414055D01*
X87310132Y-74398600D01*
X87270771Y-74393418D01*
X87235441Y-74398069D01*
X87227343Y-74398600D01*
X85239997Y-74398600D01*
X85172958Y-74378915D01*
X85127203Y-74326111D01*
X85117259Y-74256953D01*
X85146284Y-74193397D01*
X85152316Y-74186919D01*
X86782416Y-72556819D01*
X86843739Y-72523334D01*
X86870097Y-72520500D01*
X86964644Y-72520500D01*
X86964646Y-72520500D01*
X87149803Y-72481144D01*
X87322730Y-72404151D01*
X87475871Y-72292888D01*
X87602533Y-72152216D01*
X87697179Y-71988284D01*
X87755674Y-71808256D01*
X87775460Y-71620000D01*
X87755674Y-71431744D01*
X87697179Y-71251716D01*
X87696874Y-71251187D01*
X96039500Y-71251187D01*
X96050878Y-71326669D01*
X96078604Y-71510615D01*
X96078605Y-71510617D01*
X96078606Y-71510623D01*
X96128451Y-71672216D01*
X96153008Y-71751829D01*
X96155938Y-71761326D01*
X96269767Y-71997696D01*
X96269768Y-71997697D01*
X96269770Y-71997700D01*
X96269772Y-71997704D01*
X96375117Y-72152216D01*
X96417567Y-72214479D01*
X96596014Y-72406801D01*
X96596018Y-72406804D01*
X96596019Y-72406805D01*
X96801143Y-72570386D01*
X97028357Y-72701568D01*
X97272584Y-72797420D01*
X97528370Y-72855802D01*
X97528376Y-72855802D01*
X97528379Y-72855803D01*
X97724500Y-72870500D01*
X97724506Y-72870500D01*
X97855500Y-72870500D01*
X98051620Y-72855803D01*
X98051622Y-72855802D01*
X98051630Y-72855802D01*
X98307416Y-72797420D01*
X98551643Y-72701568D01*
X98778857Y-72570386D01*
X98983981Y-72406805D01*
X98986447Y-72404148D01*
X99089680Y-72292888D01*
X99162433Y-72214479D01*
X99310228Y-71997704D01*
X99314765Y-71988284D01*
X99345627Y-71924197D01*
X99424063Y-71761323D01*
X99501396Y-71510615D01*
X99540500Y-71251182D01*
X99540500Y-70988818D01*
X99501396Y-70729385D01*
X99424063Y-70478677D01*
X99365793Y-70357677D01*
X99310232Y-70242303D01*
X99310231Y-70242302D01*
X99310230Y-70242301D01*
X99310228Y-70242296D01*
X99162433Y-70025521D01*
X99114861Y-69974250D01*
X98983985Y-69833198D01*
X98854078Y-69729601D01*
X98778857Y-69669614D01*
X98551643Y-69538432D01*
X98307416Y-69442580D01*
X98307411Y-69442578D01*
X98307402Y-69442576D01*
X98089818Y-69392914D01*
X98051630Y-69384198D01*
X98051629Y-69384197D01*
X98051625Y-69384197D01*
X98051620Y-69384196D01*
X97855500Y-69369500D01*
X97855494Y-69369500D01*
X97724506Y-69369500D01*
X97724500Y-69369500D01*
X97528379Y-69384196D01*
X97528374Y-69384197D01*
X97272597Y-69442576D01*
X97272578Y-69442582D01*
X97028356Y-69538432D01*
X96801143Y-69669614D01*
X96596014Y-69833198D01*
X96417567Y-70025520D01*
X96269768Y-70242302D01*
X96269767Y-70242303D01*
X96155938Y-70478673D01*
X96078606Y-70729376D01*
X96078605Y-70729381D01*
X96078604Y-70729385D01*
X96074162Y-70758855D01*
X96039500Y-70988812D01*
X96039500Y-71251187D01*
X87696874Y-71251187D01*
X87602533Y-71087784D01*
X87475871Y-70947112D01*
X87460936Y-70936261D01*
X87322734Y-70835851D01*
X87322729Y-70835848D01*
X87149807Y-70758857D01*
X87149802Y-70758855D01*
X87004000Y-70727865D01*
X86964646Y-70719500D01*
X86775354Y-70719500D01*
X86742897Y-70726398D01*
X86590197Y-70758855D01*
X86590192Y-70758857D01*
X86417270Y-70835848D01*
X86417265Y-70835851D01*
X86264129Y-70947111D01*
X86137466Y-71087785D01*
X86042821Y-71251715D01*
X86042818Y-71251722D01*
X85984327Y-71431740D01*
X85984326Y-71431744D01*
X85976036Y-71510623D01*
X85964540Y-71620002D01*
X85964540Y-71624862D01*
X85944855Y-71691901D01*
X85928221Y-71712543D01*
X83678484Y-73962281D01*
X83617161Y-73995766D01*
X83590803Y-73998600D01*
X79146133Y-73998600D01*
X79079094Y-73978915D01*
X79058452Y-73962281D01*
X78100391Y-73004220D01*
X78066906Y-72942897D01*
X78071890Y-72873205D01*
X78113762Y-72817272D01*
X78179226Y-72792855D01*
X78217856Y-72797281D01*
X78218060Y-72796388D01*
X78319462Y-72819532D01*
X78478370Y-72855802D01*
X78478376Y-72855802D01*
X78478379Y-72855803D01*
X78674500Y-72870500D01*
X78674506Y-72870500D01*
X78805500Y-72870500D01*
X79001620Y-72855803D01*
X79001622Y-72855802D01*
X79001630Y-72855802D01*
X79257416Y-72797420D01*
X79501643Y-72701568D01*
X79728857Y-72570386D01*
X79933981Y-72406805D01*
X79936447Y-72404148D01*
X80039680Y-72292888D01*
X80112433Y-72214479D01*
X80260228Y-71997704D01*
X80264765Y-71988284D01*
X80295627Y-71924197D01*
X80374063Y-71761323D01*
X80451396Y-71510615D01*
X80490500Y-71251182D01*
X80490500Y-70988818D01*
X80451396Y-70729385D01*
X80374063Y-70478677D01*
X80315793Y-70357677D01*
X80260232Y-70242303D01*
X80260231Y-70242302D01*
X80260230Y-70242301D01*
X80260228Y-70242296D01*
X80138906Y-70064350D01*
X80117407Y-69997872D01*
X80135261Y-69930322D01*
X80186801Y-69883148D01*
X80241361Y-69870500D01*
X86296414Y-69870500D01*
X86363453Y-69890185D01*
X86403801Y-69932500D01*
X86446215Y-70005964D01*
X86572879Y-70146638D01*
X86726015Y-70257898D01*
X86726020Y-70257901D01*
X86898942Y-70334892D01*
X86898947Y-70334894D01*
X87084104Y-70374250D01*
X87084105Y-70374250D01*
X87273394Y-70374250D01*
X87273396Y-70374250D01*
X87458553Y-70334894D01*
X87631480Y-70257901D01*
X87784621Y-70146638D01*
X87911283Y-70005966D01*
X88005929Y-69842034D01*
X88064424Y-69662006D01*
X88084210Y-69473750D01*
X88066732Y-69307458D01*
X88079301Y-69238732D01*
X88127033Y-69187708D01*
X88190053Y-69170500D01*
X88586622Y-69170500D01*
X88594720Y-69171030D01*
X88630050Y-69175682D01*
X88630051Y-69175682D01*
X88682303Y-69168802D01*
X88786812Y-69155044D01*
X88932891Y-69094536D01*
X88946011Y-69084469D01*
X88995984Y-69046123D01*
X89061152Y-69020930D01*
X89071469Y-69020500D01*
X102076936Y-69020500D01*
X102143975Y-69040185D01*
X102189730Y-69092989D01*
X102200257Y-69157461D01*
X102197247Y-69186105D01*
X102193290Y-69223750D01*
X102213076Y-69412006D01*
X102213077Y-69412009D01*
X102271568Y-69592027D01*
X102271571Y-69592034D01*
X102366217Y-69755966D01*
X102480733Y-69883148D01*
X102492879Y-69896638D01*
X102646015Y-70007898D01*
X102646020Y-70007901D01*
X102818942Y-70084892D01*
X102818947Y-70084894D01*
X103004104Y-70124250D01*
X103004105Y-70124250D01*
X103193394Y-70124250D01*
X103193396Y-70124250D01*
X103378553Y-70084894D01*
X103551480Y-70007901D01*
X103554146Y-70005964D01*
X103565202Y-69997932D01*
X103631008Y-69974452D01*
X103638087Y-69974250D01*
X108519947Y-69974250D01*
X108586986Y-69993935D01*
X108607628Y-70010569D01*
X110309703Y-71712644D01*
X110343188Y-71773967D01*
X110338204Y-71843659D01*
X110296332Y-71899592D01*
X110232949Y-71923358D01*
X110232971Y-71923504D01*
X110232286Y-71923607D01*
X110231298Y-71923978D01*
X110228374Y-71924197D01*
X109972597Y-71982576D01*
X109972578Y-71982582D01*
X109728356Y-72078432D01*
X109501143Y-72209614D01*
X109296014Y-72373198D01*
X109117567Y-72565520D01*
X108969768Y-72782302D01*
X108969767Y-72782303D01*
X108855938Y-73018673D01*
X108778606Y-73269376D01*
X108778605Y-73269381D01*
X108778604Y-73269385D01*
X108763853Y-73367247D01*
X108739500Y-73528812D01*
X108739500Y-73791187D01*
X108756758Y-73905677D01*
X108778604Y-74050615D01*
X108778605Y-74050617D01*
X108778606Y-74050623D01*
X108837422Y-74241298D01*
X108853004Y-74291816D01*
X108855938Y-74301326D01*
X108969767Y-74537696D01*
X108969768Y-74537697D01*
X108969770Y-74537700D01*
X108969772Y-74537704D01*
X109094910Y-74721247D01*
X109117567Y-74754479D01*
X109244282Y-74891046D01*
X109275450Y-74953579D01*
X109267863Y-75023035D01*
X109223929Y-75077364D01*
X109165171Y-75098825D01*
X109010610Y-75113583D01*
X109010611Y-75113584D01*
X109010607Y-75113585D01*
X108808791Y-75172843D01*
X108621831Y-75269228D01*
X108456490Y-75399252D01*
X108456489Y-75399253D01*
X108318749Y-75558214D01*
X108318740Y-75558225D01*
X108213574Y-75740379D01*
X108144779Y-75939148D01*
X108144778Y-75939153D01*
X108144778Y-75939154D01*
X108114843Y-76147355D01*
X108124852Y-76357459D01*
X108174442Y-76561871D01*
X108219082Y-76659619D01*
X108261820Y-76753204D01*
X108261824Y-76753210D01*
X108383826Y-76924539D01*
X108383831Y-76924544D01*
X108536063Y-77069697D01*
X108713014Y-77183416D01*
X108908288Y-77261593D01*
X109037084Y-77286416D01*
X109114828Y-77301400D01*
X109114829Y-77301400D01*
X109272461Y-77301400D01*
X109272468Y-77301400D01*
X109429389Y-77286416D01*
X109631211Y-77227156D01*
X109818170Y-77130771D01*
X109983510Y-77000747D01*
X110121255Y-76841781D01*
X110226426Y-76659619D01*
X110295222Y-76460846D01*
X110325157Y-76252645D01*
X110315148Y-76042541D01*
X110265558Y-75838129D01*
X110178179Y-75646795D01*
X110139881Y-75593013D01*
X110117030Y-75526988D01*
X110133503Y-75459088D01*
X110184070Y-75410872D01*
X110250157Y-75397435D01*
X110424500Y-75410500D01*
X110424506Y-75410500D01*
X110555500Y-75410500D01*
X110751620Y-75395803D01*
X110751622Y-75395802D01*
X110751630Y-75395802D01*
X111007416Y-75337420D01*
X111251643Y-75241568D01*
X111478857Y-75110386D01*
X111683981Y-74946805D01*
X111862433Y-74754479D01*
X112010228Y-74537704D01*
X112124063Y-74301323D01*
X112201396Y-74050615D01*
X112223242Y-73905675D01*
X112252699Y-73842320D01*
X112311733Y-73804947D01*
X112381601Y-73805422D01*
X112433538Y-73836478D01*
X112692694Y-74095634D01*
X112704475Y-74109266D01*
X112718817Y-74128530D01*
X112758847Y-74162119D01*
X112762819Y-74165759D01*
X112768650Y-74171590D01*
X112768649Y-74171590D01*
X112790454Y-74188830D01*
X112794371Y-74191927D01*
X112853213Y-74241302D01*
X112853221Y-74241306D01*
X112859251Y-74245273D01*
X112859217Y-74245323D01*
X112865566Y-74249367D01*
X112865598Y-74249317D01*
X112870816Y-74252535D01*
X112871187Y-74252948D01*
X112873021Y-74254116D01*
X112877416Y-74257591D01*
X112876456Y-74258804D01*
X112917544Y-74304480D01*
X112928771Y-74373441D01*
X112900932Y-74437525D01*
X112888904Y-74450042D01*
X112683063Y-74636215D01*
X112489058Y-74865686D01*
X112489056Y-74865688D01*
X112327366Y-75118972D01*
X112225996Y-75337420D01*
X112200882Y-75391540D01*
X112174852Y-75475454D01*
X112111854Y-75678535D01*
X112061874Y-75974842D01*
X112051833Y-76275167D01*
X112081910Y-76574142D01*
X112081911Y-76574149D01*
X112151568Y-76866441D01*
X112151571Y-76866453D01*
X112259566Y-77146853D01*
X112259573Y-77146868D01*
X112403979Y-77410375D01*
X112403983Y-77410381D01*
X112502546Y-77544151D01*
X112582223Y-77652290D01*
X112741625Y-77817110D01*
X112791120Y-77868288D01*
X112791127Y-77868294D01*
X112861308Y-77923715D01*
X113026946Y-78054518D01*
X113285487Y-78207652D01*
X113562133Y-78324960D01*
X113562136Y-78324960D01*
X113562139Y-78324962D01*
X113707039Y-78364653D01*
X113851946Y-78404348D01*
X114149755Y-78444400D01*
X114149760Y-78444400D01*
X114375041Y-78444400D01*
X114538513Y-78433456D01*
X114599819Y-78429352D01*
X114894287Y-78369499D01*
X115178151Y-78270931D01*
X115446343Y-78135407D01*
X115694080Y-77965346D01*
X115916939Y-77763782D01*
X116110943Y-77534312D01*
X116272631Y-77281032D01*
X116399118Y-77008460D01*
X116488146Y-76721462D01*
X116538126Y-76425158D01*
X116547414Y-76147355D01*
X118274843Y-76147355D01*
X118284852Y-76357459D01*
X118334442Y-76561871D01*
X118379082Y-76659619D01*
X118421820Y-76753204D01*
X118421824Y-76753210D01*
X118543826Y-76924539D01*
X118543831Y-76924544D01*
X118696063Y-77069697D01*
X118873014Y-77183416D01*
X119068288Y-77261593D01*
X119197084Y-77286416D01*
X119274828Y-77301400D01*
X119274829Y-77301400D01*
X119432461Y-77301400D01*
X119432468Y-77301400D01*
X119589389Y-77286416D01*
X119791211Y-77227156D01*
X119978170Y-77130771D01*
X120143510Y-77000747D01*
X120281255Y-76841781D01*
X120386426Y-76659619D01*
X120455222Y-76460846D01*
X120485157Y-76252645D01*
X120475148Y-76042541D01*
X120425558Y-75838129D01*
X120338179Y-75646795D01*
X120335047Y-75642397D01*
X120216173Y-75475460D01*
X120216167Y-75475454D01*
X120063939Y-75330305D01*
X120063937Y-75330303D01*
X119886986Y-75216584D01*
X119886984Y-75216583D01*
X119691721Y-75138410D01*
X119691714Y-75138407D01*
X119691712Y-75138407D01*
X119691709Y-75138406D01*
X119691708Y-75138406D01*
X119485172Y-75098600D01*
X119485171Y-75098600D01*
X119327532Y-75098600D01*
X119170611Y-75113584D01*
X119170607Y-75113585D01*
X118968791Y-75172843D01*
X118781831Y-75269228D01*
X118616490Y-75399252D01*
X118616489Y-75399253D01*
X118478749Y-75558214D01*
X118478740Y-75558225D01*
X118373574Y-75740379D01*
X118304779Y-75939148D01*
X118304778Y-75939153D01*
X118304778Y-75939154D01*
X118274843Y-76147355D01*
X116547414Y-76147355D01*
X116548167Y-76124836D01*
X116518089Y-75825855D01*
X116448430Y-75533551D01*
X116340431Y-75253140D01*
X116196021Y-74989625D01*
X116017777Y-74747710D01*
X115846589Y-74570703D01*
X115814134Y-74508830D01*
X115820283Y-74439231D01*
X115863083Y-74384005D01*
X115928946Y-74360685D01*
X115935724Y-74360500D01*
X123528377Y-74360500D01*
X123546347Y-74361809D01*
X123570105Y-74365289D01*
X123622150Y-74360735D01*
X123627552Y-74360500D01*
X123635786Y-74360500D01*
X123635791Y-74360500D01*
X123647409Y-74359141D01*
X123668358Y-74356693D01*
X123681110Y-74355577D01*
X123744879Y-74349999D01*
X123744887Y-74349996D01*
X123751948Y-74348539D01*
X123751960Y-74348598D01*
X123759325Y-74346965D01*
X123759311Y-74346906D01*
X123766328Y-74345241D01*
X123766337Y-74345241D01*
X123838505Y-74318974D01*
X123911416Y-74294814D01*
X123911425Y-74294807D01*
X123917964Y-74291760D01*
X123917990Y-74291816D01*
X123924772Y-74288532D01*
X123924745Y-74288478D01*
X123931188Y-74285240D01*
X123931199Y-74285237D01*
X123995365Y-74243034D01*
X124060738Y-74202712D01*
X124060744Y-74202705D01*
X124066407Y-74198229D01*
X124066444Y-74198277D01*
X124072286Y-74193518D01*
X124072246Y-74193471D01*
X124077768Y-74188836D01*
X124077778Y-74188830D01*
X124102986Y-74162111D01*
X124130469Y-74132981D01*
X124734637Y-73528812D01*
X124965142Y-73298306D01*
X124978757Y-73286540D01*
X124998030Y-73272192D01*
X125031623Y-73232156D01*
X125035257Y-73228190D01*
X125041091Y-73222358D01*
X125061430Y-73196634D01*
X125110802Y-73137796D01*
X125110806Y-73137787D01*
X125114774Y-73131757D01*
X125114825Y-73131790D01*
X125118869Y-73125442D01*
X125118817Y-73125410D01*
X125122604Y-73119267D01*
X125122611Y-73119259D01*
X125155072Y-73049645D01*
X125189540Y-72981015D01*
X125189541Y-72981009D01*
X125192008Y-72974232D01*
X125192066Y-72974253D01*
X125194543Y-72967126D01*
X125194486Y-72967108D01*
X125196755Y-72960261D01*
X125196756Y-72960256D01*
X125196757Y-72960254D01*
X125212290Y-72885023D01*
X125230000Y-72810303D01*
X125230000Y-72810300D01*
X125230839Y-72803130D01*
X125230898Y-72803136D01*
X125231664Y-72795636D01*
X125231605Y-72795631D01*
X125232234Y-72788441D01*
X125232192Y-72787011D01*
X125230000Y-72711664D01*
X125230000Y-71048071D01*
X125246613Y-70986071D01*
X125269106Y-70947112D01*
X125306679Y-70882034D01*
X125365174Y-70702006D01*
X125384960Y-70513750D01*
X125365174Y-70325494D01*
X125306679Y-70145466D01*
X125212033Y-69981534D01*
X125085371Y-69840862D01*
X125085370Y-69840861D01*
X124932234Y-69729601D01*
X124932229Y-69729598D01*
X124759307Y-69652607D01*
X124759302Y-69652605D01*
X124613500Y-69621615D01*
X124574146Y-69613250D01*
X124452025Y-69613250D01*
X124384986Y-69593565D01*
X124339231Y-69540761D01*
X124337464Y-69536703D01*
X124316001Y-69484888D01*
X124304536Y-69457209D01*
X124283274Y-69429500D01*
X124208282Y-69331768D01*
X124180005Y-69310070D01*
X124173904Y-69304719D01*
X123540834Y-68671649D01*
X122895270Y-68026085D01*
X122889930Y-68019995D01*
X122868232Y-67991718D01*
X122742791Y-67895464D01*
X122736352Y-67892797D01*
X122652963Y-67858256D01*
X122598582Y-67835730D01*
X122596935Y-67834984D01*
X122439951Y-67814318D01*
X122439949Y-67814318D01*
X122426742Y-67816056D01*
X122404620Y-67818969D01*
X122396523Y-67819500D01*
X95175357Y-67819500D01*
X95108318Y-67799815D01*
X95062563Y-67747011D01*
X95052619Y-67677853D01*
X95081644Y-67614297D01*
X95083207Y-67612528D01*
X95102267Y-67591360D01*
X95182533Y-67502216D01*
X95277179Y-67338284D01*
X95335674Y-67158256D01*
X95355460Y-66970000D01*
X95355460Y-66969997D01*
X95355460Y-66965136D01*
X95375145Y-66898097D01*
X95391779Y-66877455D01*
X96162416Y-66106819D01*
X96223739Y-66073334D01*
X96250097Y-66070500D01*
X111133742Y-66070500D01*
X111200781Y-66090185D01*
X111225891Y-66111527D01*
X111254128Y-66142887D01*
X111254135Y-66142893D01*
X111407265Y-66254148D01*
X111407270Y-66254151D01*
X111580192Y-66331142D01*
X111580197Y-66331144D01*
X111765354Y-66370500D01*
X111765355Y-66370500D01*
X111954644Y-66370500D01*
X111954646Y-66370500D01*
X112139803Y-66331144D01*
X112312730Y-66254151D01*
X112465871Y-66142888D01*
X112592533Y-66002216D01*
X112687179Y-65838284D01*
X112745674Y-65658256D01*
X112765460Y-65470000D01*
X112745674Y-65281744D01*
X112687536Y-65102817D01*
X112685542Y-65032977D01*
X112721622Y-64973144D01*
X112784323Y-64942316D01*
X112805468Y-64940500D01*
X116412881Y-64940500D01*
X116463316Y-64951220D01*
X116538947Y-64984894D01*
X116724104Y-65024250D01*
X116724105Y-65024250D01*
X116913394Y-65024250D01*
X116913396Y-65024250D01*
X117098553Y-64984894D01*
X117271480Y-64907901D01*
X117424621Y-64796638D01*
X117551283Y-64655966D01*
X117645929Y-64492034D01*
X117704424Y-64312006D01*
X117724210Y-64123750D01*
X117704424Y-63935494D01*
X117645929Y-63755466D01*
X117551283Y-63591534D01*
X117424621Y-63450862D01*
X117424620Y-63450861D01*
X117271484Y-63339601D01*
X117271479Y-63339598D01*
X117098557Y-63262607D01*
X117098552Y-63262605D01*
X116952750Y-63231615D01*
X116913396Y-63223250D01*
X116724104Y-63223250D01*
X116691647Y-63230148D01*
X116538947Y-63262605D01*
X116538942Y-63262607D01*
X116366020Y-63339598D01*
X116366015Y-63339601D01*
X116261113Y-63415818D01*
X116195307Y-63439298D01*
X116188228Y-63439500D01*
X102299337Y-63439500D01*
X102232298Y-63419815D01*
X102226452Y-63415818D01*
X102212734Y-63405851D01*
X102212729Y-63405848D01*
X102039807Y-63328857D01*
X102039802Y-63328855D01*
X101893944Y-63297853D01*
X101854646Y-63289500D01*
X101665354Y-63289500D01*
X101632897Y-63296398D01*
X101480197Y-63328855D01*
X101480192Y-63328857D01*
X101307270Y-63405848D01*
X101307265Y-63405851D01*
X101293548Y-63415818D01*
X101227742Y-63439298D01*
X101220663Y-63439500D01*
X100479097Y-63439500D01*
X100412058Y-63419815D01*
X100366303Y-63367011D01*
X100356359Y-63297853D01*
X100385384Y-63234297D01*
X100391416Y-63227819D01*
X100580846Y-63038389D01*
X113249416Y-63038389D01*
X113249459Y-63062501D01*
X113249500Y-63062599D01*
X113249616Y-63062882D01*
X113249618Y-63062884D01*
X113249808Y-63062962D01*
X113250000Y-63063041D01*
X113250002Y-63063039D01*
X113274616Y-63063024D01*
X113274616Y-63063028D01*
X113274760Y-63063000D01*
X115325240Y-63063000D01*
X115325383Y-63063028D01*
X115325384Y-63063024D01*
X115349997Y-63063039D01*
X115350000Y-63063041D01*
X115350383Y-63062883D01*
X115350500Y-63062599D01*
X115350541Y-63062500D01*
X115350540Y-63062497D01*
X115350583Y-63038389D01*
X115350500Y-63037967D01*
X115350500Y-60787259D01*
X115350528Y-60787116D01*
X115350524Y-60787116D01*
X115350539Y-60762502D01*
X115350541Y-60762500D01*
X115350462Y-60762308D01*
X115350384Y-60762118D01*
X115350382Y-60762116D01*
X115350099Y-60762000D01*
X115350000Y-60761959D01*
X115325446Y-60761959D01*
X115325240Y-60762000D01*
X113274760Y-60762000D01*
X113274554Y-60761959D01*
X113250000Y-60761959D01*
X113249901Y-60762000D01*
X113249617Y-60762116D01*
X113249615Y-60762118D01*
X113249459Y-60762499D01*
X113249476Y-60787116D01*
X113249471Y-60787116D01*
X113249499Y-60787259D01*
X113249499Y-63037967D01*
X113249416Y-63038389D01*
X100580846Y-63038389D01*
X101261442Y-62357793D01*
X105663923Y-57955310D01*
X105669998Y-57949984D01*
X105698282Y-57928282D01*
X105794536Y-57802841D01*
X105855044Y-57656762D01*
X105870500Y-57539361D01*
X105875682Y-57500000D01*
X105871030Y-57464669D01*
X105870500Y-57456571D01*
X105870500Y-57097355D01*
X108114843Y-57097355D01*
X108124852Y-57307459D01*
X108174442Y-57511871D01*
X108219082Y-57609619D01*
X108261820Y-57703204D01*
X108261824Y-57703210D01*
X108383826Y-57874539D01*
X108383831Y-57874544D01*
X108536063Y-58019697D01*
X108713014Y-58133416D01*
X108908288Y-58211593D01*
X109037084Y-58236416D01*
X109114828Y-58251400D01*
X109114829Y-58251400D01*
X109272461Y-58251400D01*
X109272468Y-58251400D01*
X109429389Y-58236416D01*
X109631211Y-58177156D01*
X109818170Y-58080771D01*
X109983510Y-57950747D01*
X110121255Y-57791781D01*
X110226426Y-57609619D01*
X110295222Y-57410846D01*
X110321919Y-57225167D01*
X112051833Y-57225167D01*
X112081910Y-57524142D01*
X112081911Y-57524149D01*
X112151568Y-57816441D01*
X112151571Y-57816453D01*
X112259566Y-58096853D01*
X112259573Y-58096868D01*
X112403979Y-58360375D01*
X112403983Y-58360381D01*
X112501708Y-58493014D01*
X112582223Y-58602290D01*
X112791121Y-58818289D01*
X113026946Y-59004518D01*
X113285487Y-59157652D01*
X113562133Y-59274960D01*
X113562136Y-59274960D01*
X113562139Y-59274962D01*
X113703086Y-59313571D01*
X113851946Y-59354348D01*
X114149755Y-59394400D01*
X114149760Y-59394400D01*
X114375041Y-59394400D01*
X114538513Y-59383456D01*
X114599819Y-59379352D01*
X114894287Y-59319499D01*
X115178151Y-59220931D01*
X115446343Y-59085407D01*
X115694080Y-58915346D01*
X115916939Y-58713782D01*
X116110943Y-58484312D01*
X116272631Y-58231032D01*
X116399118Y-57958460D01*
X116488146Y-57671462D01*
X116538126Y-57375158D01*
X116547414Y-57097355D01*
X118274843Y-57097355D01*
X118284852Y-57307459D01*
X118334442Y-57511871D01*
X118379082Y-57609619D01*
X118421820Y-57703204D01*
X118421824Y-57703210D01*
X118543826Y-57874539D01*
X118543831Y-57874544D01*
X118696063Y-58019697D01*
X118873014Y-58133416D01*
X119068288Y-58211593D01*
X119197084Y-58236416D01*
X119274828Y-58251400D01*
X119274829Y-58251400D01*
X119432461Y-58251400D01*
X119432468Y-58251400D01*
X119589389Y-58236416D01*
X119791211Y-58177156D01*
X119978170Y-58080771D01*
X120143510Y-57950747D01*
X120281255Y-57791781D01*
X120386426Y-57609619D01*
X120455222Y-57410846D01*
X120485157Y-57202645D01*
X120475148Y-56992541D01*
X120425558Y-56788129D01*
X120338179Y-56596795D01*
X120338175Y-56596789D01*
X120216173Y-56425460D01*
X120216167Y-56425454D01*
X120063939Y-56280305D01*
X120063937Y-56280303D01*
X119886986Y-56166584D01*
X119884858Y-56165732D01*
X119691721Y-56088410D01*
X119691714Y-56088407D01*
X119691712Y-56088407D01*
X119691709Y-56088406D01*
X119691708Y-56088406D01*
X119485172Y-56048600D01*
X119485171Y-56048600D01*
X119327532Y-56048600D01*
X119170611Y-56063584D01*
X119170607Y-56063585D01*
X118968791Y-56122843D01*
X118781831Y-56219228D01*
X118616490Y-56349252D01*
X118616489Y-56349253D01*
X118478749Y-56508214D01*
X118478740Y-56508225D01*
X118373574Y-56690379D01*
X118304779Y-56889148D01*
X118304778Y-56889153D01*
X118304778Y-56889154D01*
X118274843Y-57097355D01*
X116547414Y-57097355D01*
X116548167Y-57074836D01*
X116518089Y-56775855D01*
X116512789Y-56753617D01*
X116496813Y-56686578D01*
X116448430Y-56483551D01*
X116340431Y-56203140D01*
X116196021Y-55939625D01*
X116017777Y-55697710D01*
X115808879Y-55481711D01*
X115808872Y-55481705D01*
X115573055Y-55295483D01*
X115573056Y-55295483D01*
X115573054Y-55295482D01*
X115314513Y-55142348D01*
X115037867Y-55025040D01*
X115037860Y-55025037D01*
X114748059Y-54945653D01*
X114748056Y-54945652D01*
X114748054Y-54945652D01*
X114450245Y-54905600D01*
X114224967Y-54905600D01*
X114224959Y-54905600D01*
X114000183Y-54920647D01*
X114000174Y-54920649D01*
X113705710Y-54980501D01*
X113421847Y-55079069D01*
X113421844Y-55079071D01*
X113153662Y-55214589D01*
X112905918Y-55384655D01*
X112683062Y-55586216D01*
X112489058Y-55815686D01*
X112489056Y-55815688D01*
X112327366Y-56068972D01*
X112200886Y-56341531D01*
X112200882Y-56341540D01*
X112174852Y-56425454D01*
X112111854Y-56628535D01*
X112061874Y-56924842D01*
X112051833Y-57225167D01*
X110321919Y-57225167D01*
X110325157Y-57202645D01*
X110315148Y-56992541D01*
X110265558Y-56788129D01*
X110178179Y-56596795D01*
X110139881Y-56543013D01*
X110117030Y-56476988D01*
X110133503Y-56409088D01*
X110184070Y-56360872D01*
X110250157Y-56347435D01*
X110424500Y-56360500D01*
X110424506Y-56360500D01*
X110555500Y-56360500D01*
X110751620Y-56345803D01*
X110751622Y-56345802D01*
X110751630Y-56345802D01*
X111007416Y-56287420D01*
X111251643Y-56191568D01*
X111478857Y-56060386D01*
X111683981Y-55896805D01*
X111862433Y-55704479D01*
X112010228Y-55487704D01*
X112124063Y-55251323D01*
X112201396Y-55000615D01*
X112240500Y-54741182D01*
X112240500Y-54478818D01*
X112201396Y-54219385D01*
X112124063Y-53968677D01*
X112066361Y-53848857D01*
X112010232Y-53732303D01*
X112010231Y-53732302D01*
X112010230Y-53732301D01*
X112010228Y-53732296D01*
X111862433Y-53515521D01*
X111852441Y-53504753D01*
X111683985Y-53323198D01*
X111637788Y-53286357D01*
X111478857Y-53159614D01*
X111251643Y-53028432D01*
X111007416Y-52932580D01*
X111007411Y-52932578D01*
X111007402Y-52932576D01*
X110789818Y-52882914D01*
X110751630Y-52874198D01*
X110751629Y-52874197D01*
X110751625Y-52874197D01*
X110751620Y-52874196D01*
X110555500Y-52859500D01*
X110555494Y-52859500D01*
X110424506Y-52859500D01*
X110424500Y-52859500D01*
X110228379Y-52874196D01*
X110228374Y-52874197D01*
X109972597Y-52932576D01*
X109972578Y-52932582D01*
X109728356Y-53028432D01*
X109501143Y-53159614D01*
X109296014Y-53323198D01*
X109117567Y-53515520D01*
X108969768Y-53732302D01*
X108969767Y-53732303D01*
X108855938Y-53968673D01*
X108778606Y-54219376D01*
X108778605Y-54219381D01*
X108778604Y-54219385D01*
X108773731Y-54251715D01*
X108739500Y-54478812D01*
X108739500Y-54741187D01*
X108749610Y-54808256D01*
X108778604Y-55000615D01*
X108778605Y-55000617D01*
X108778606Y-55000623D01*
X108855938Y-55251326D01*
X108969767Y-55487696D01*
X108969768Y-55487697D01*
X108969770Y-55487700D01*
X108969772Y-55487704D01*
X109112952Y-55697710D01*
X109117567Y-55704479D01*
X109244282Y-55841046D01*
X109275450Y-55903579D01*
X109267863Y-55973035D01*
X109223929Y-56027364D01*
X109165171Y-56048825D01*
X109010611Y-56063584D01*
X109010607Y-56063585D01*
X108808791Y-56122843D01*
X108621831Y-56219228D01*
X108456490Y-56349252D01*
X108456489Y-56349253D01*
X108318749Y-56508214D01*
X108318740Y-56508225D01*
X108213574Y-56690379D01*
X108144779Y-56889148D01*
X108144778Y-56889153D01*
X108144778Y-56889154D01*
X108114843Y-57097355D01*
X105870500Y-57097355D01*
X105870500Y-55346452D01*
X105890185Y-55279413D01*
X105902350Y-55263480D01*
X106002533Y-55152216D01*
X106097179Y-54988284D01*
X106155674Y-54808256D01*
X106175460Y-54620000D01*
X106155674Y-54431744D01*
X106097179Y-54251716D01*
X106002533Y-54087784D01*
X105875871Y-53947112D01*
X105846605Y-53925849D01*
X105722734Y-53835851D01*
X105722729Y-53835848D01*
X105549807Y-53758857D01*
X105549802Y-53758855D01*
X105404000Y-53727865D01*
X105364646Y-53719500D01*
X105175354Y-53719500D01*
X105142897Y-53726398D01*
X104990197Y-53758855D01*
X104990192Y-53758857D01*
X104817270Y-53835848D01*
X104817265Y-53835851D01*
X104664129Y-53947111D01*
X104537466Y-54087785D01*
X104442821Y-54251715D01*
X104442818Y-54251722D01*
X104384327Y-54431740D01*
X104384326Y-54431744D01*
X104364540Y-54620000D01*
X104384326Y-54808256D01*
X104384327Y-54808259D01*
X104442818Y-54988277D01*
X104442821Y-54988284D01*
X104537467Y-55152216D01*
X104637650Y-55263480D01*
X104667880Y-55326471D01*
X104669500Y-55346452D01*
X104669500Y-57199902D01*
X104649815Y-57266941D01*
X104633181Y-57287583D01*
X99167584Y-62753181D01*
X99106261Y-62786666D01*
X99079903Y-62789500D01*
X96424500Y-62789500D01*
X96357461Y-62769815D01*
X96311706Y-62717011D01*
X96300500Y-62665500D01*
X96300500Y-60787259D01*
X96300528Y-60787116D01*
X96300524Y-60787116D01*
X96300539Y-60762502D01*
X96300541Y-60762500D01*
X96300462Y-60762308D01*
X96300384Y-60762118D01*
X96300382Y-60762116D01*
X96300099Y-60762000D01*
X96300000Y-60761959D01*
X96275446Y-60761959D01*
X96275240Y-60762000D01*
X94224760Y-60762000D01*
X94224554Y-60761959D01*
X94200000Y-60761959D01*
X94199901Y-60762000D01*
X94199617Y-60762116D01*
X94199615Y-60762118D01*
X94199459Y-60762499D01*
X94199476Y-60787116D01*
X94199471Y-60787116D01*
X94199500Y-60787259D01*
X94199500Y-62665500D01*
X94179815Y-62732539D01*
X94127011Y-62778294D01*
X94075500Y-62789500D01*
X81845480Y-62789500D01*
X81778441Y-62769815D01*
X81732686Y-62717011D01*
X81722742Y-62647853D01*
X81751767Y-62584297D01*
X81757798Y-62577819D01*
X81832356Y-62503261D01*
X82059398Y-62276218D01*
X82073021Y-62264447D01*
X82092280Y-62250110D01*
X82125851Y-62210101D01*
X82129511Y-62206106D01*
X82135340Y-62200278D01*
X82155691Y-62174539D01*
X82161698Y-62167379D01*
X82205052Y-62115714D01*
X82205056Y-62115705D01*
X82209024Y-62109675D01*
X82209075Y-62109708D01*
X82213122Y-62103356D01*
X82213070Y-62103324D01*
X82216862Y-62097175D01*
X82249325Y-62027558D01*
X82283786Y-61958940D01*
X82283790Y-61958933D01*
X82283792Y-61958921D01*
X82286259Y-61952146D01*
X82286317Y-61952167D01*
X82288793Y-61945046D01*
X82288736Y-61945028D01*
X82291007Y-61938173D01*
X82306542Y-61862934D01*
X82309201Y-61851715D01*
X82324250Y-61788221D01*
X82324250Y-61788210D01*
X82325088Y-61781048D01*
X82325148Y-61781055D01*
X82325914Y-61773555D01*
X82325855Y-61773550D01*
X82326484Y-61766360D01*
X82324250Y-61689582D01*
X82324250Y-59338071D01*
X82340863Y-59276071D01*
X82400929Y-59172034D01*
X82459424Y-58992006D01*
X82479210Y-58803750D01*
X82459424Y-58615494D01*
X82400929Y-58435466D01*
X82306283Y-58271534D01*
X82179621Y-58130862D01*
X82109621Y-58080004D01*
X82066957Y-58024675D01*
X82060978Y-57955061D01*
X82088796Y-57898484D01*
X82109540Y-57874544D01*
X82181255Y-57791781D01*
X82286426Y-57609619D01*
X82355222Y-57410846D01*
X82385157Y-57202645D01*
X82380141Y-57097355D01*
X89064843Y-57097355D01*
X89074852Y-57307459D01*
X89124442Y-57511871D01*
X89169082Y-57609619D01*
X89211820Y-57703204D01*
X89211824Y-57703210D01*
X89333826Y-57874539D01*
X89333831Y-57874544D01*
X89486063Y-58019697D01*
X89663014Y-58133416D01*
X89858288Y-58211593D01*
X89987084Y-58236416D01*
X90064828Y-58251400D01*
X90064829Y-58251400D01*
X90222461Y-58251400D01*
X90222468Y-58251400D01*
X90379389Y-58236416D01*
X90581211Y-58177156D01*
X90768170Y-58080771D01*
X90933510Y-57950747D01*
X91071255Y-57791781D01*
X91176426Y-57609619D01*
X91245222Y-57410846D01*
X91271919Y-57225167D01*
X93001833Y-57225167D01*
X93031910Y-57524142D01*
X93031911Y-57524149D01*
X93101568Y-57816441D01*
X93101571Y-57816453D01*
X93209566Y-58096853D01*
X93209573Y-58096868D01*
X93353979Y-58360375D01*
X93353983Y-58360381D01*
X93451708Y-58493014D01*
X93532223Y-58602290D01*
X93741121Y-58818289D01*
X93976946Y-59004518D01*
X94235487Y-59157652D01*
X94512133Y-59274960D01*
X94512136Y-59274960D01*
X94512139Y-59274962D01*
X94653086Y-59313571D01*
X94801946Y-59354348D01*
X95099755Y-59394400D01*
X95099760Y-59394400D01*
X95325041Y-59394400D01*
X95488513Y-59383456D01*
X95549819Y-59379352D01*
X95844287Y-59319499D01*
X96128151Y-59220931D01*
X96396343Y-59085407D01*
X96644080Y-58915346D01*
X96866939Y-58713782D01*
X97060943Y-58484312D01*
X97222631Y-58231032D01*
X97349118Y-57958460D01*
X97438146Y-57671462D01*
X97488126Y-57375158D01*
X97497414Y-57097355D01*
X99224843Y-57097355D01*
X99234852Y-57307459D01*
X99284442Y-57511871D01*
X99329082Y-57609619D01*
X99371820Y-57703204D01*
X99371824Y-57703210D01*
X99493826Y-57874539D01*
X99493831Y-57874544D01*
X99646063Y-58019697D01*
X99823014Y-58133416D01*
X100018288Y-58211593D01*
X100147084Y-58236416D01*
X100224828Y-58251400D01*
X100224829Y-58251400D01*
X100382461Y-58251400D01*
X100382468Y-58251400D01*
X100539389Y-58236416D01*
X100741211Y-58177156D01*
X100928170Y-58080771D01*
X101093510Y-57950747D01*
X101231255Y-57791781D01*
X101336426Y-57609619D01*
X101405222Y-57410846D01*
X101435157Y-57202645D01*
X101425148Y-56992541D01*
X101375558Y-56788129D01*
X101288179Y-56596795D01*
X101288175Y-56596789D01*
X101166173Y-56425460D01*
X101166167Y-56425454D01*
X101013939Y-56280305D01*
X101013937Y-56280303D01*
X100836986Y-56166584D01*
X100834858Y-56165732D01*
X100641721Y-56088410D01*
X100641714Y-56088407D01*
X100641712Y-56088407D01*
X100641709Y-56088406D01*
X100641708Y-56088406D01*
X100435172Y-56048600D01*
X100435171Y-56048600D01*
X100277532Y-56048600D01*
X100120610Y-56063584D01*
X100120611Y-56063584D01*
X100120607Y-56063585D01*
X99918791Y-56122843D01*
X99731831Y-56219228D01*
X99566490Y-56349252D01*
X99566489Y-56349253D01*
X99428749Y-56508214D01*
X99428740Y-56508225D01*
X99323574Y-56690379D01*
X99254779Y-56889148D01*
X99254778Y-56889153D01*
X99254778Y-56889154D01*
X99224843Y-57097355D01*
X97497414Y-57097355D01*
X97498167Y-57074836D01*
X97468089Y-56775855D01*
X97462789Y-56753617D01*
X97446813Y-56686578D01*
X97398430Y-56483551D01*
X97290431Y-56203140D01*
X97146021Y-55939625D01*
X96967777Y-55697710D01*
X96758879Y-55481711D01*
X96758872Y-55481705D01*
X96523055Y-55295483D01*
X96523056Y-55295483D01*
X96523054Y-55295482D01*
X96264513Y-55142348D01*
X95987867Y-55025040D01*
X95987860Y-55025037D01*
X95698059Y-54945653D01*
X95698056Y-54945652D01*
X95698054Y-54945652D01*
X95400245Y-54905600D01*
X95174967Y-54905600D01*
X95174959Y-54905600D01*
X94950183Y-54920647D01*
X94950174Y-54920649D01*
X94655710Y-54980501D01*
X94371847Y-55079069D01*
X94371844Y-55079071D01*
X94103662Y-55214589D01*
X93855918Y-55384655D01*
X93633062Y-55586216D01*
X93439058Y-55815686D01*
X93439056Y-55815688D01*
X93277366Y-56068972D01*
X93150886Y-56341531D01*
X93150882Y-56341540D01*
X93124852Y-56425454D01*
X93061854Y-56628535D01*
X93011874Y-56924842D01*
X93001833Y-57225167D01*
X91271919Y-57225167D01*
X91275157Y-57202645D01*
X91265148Y-56992541D01*
X91215558Y-56788129D01*
X91128179Y-56596795D01*
X91089881Y-56543013D01*
X91067030Y-56476988D01*
X91083503Y-56409088D01*
X91134070Y-56360872D01*
X91200157Y-56347435D01*
X91374500Y-56360500D01*
X91374506Y-56360500D01*
X91505500Y-56360500D01*
X91701620Y-56345803D01*
X91701622Y-56345802D01*
X91701630Y-56345802D01*
X91957416Y-56287420D01*
X92201643Y-56191568D01*
X92428857Y-56060386D01*
X92633981Y-55896805D01*
X92812433Y-55704479D01*
X92960228Y-55487704D01*
X93074063Y-55251323D01*
X93151396Y-55000615D01*
X93190500Y-54741182D01*
X93190500Y-54478818D01*
X93151396Y-54219385D01*
X93074063Y-53968677D01*
X93016361Y-53848857D01*
X92960232Y-53732303D01*
X92960231Y-53732302D01*
X92960230Y-53732301D01*
X92960228Y-53732296D01*
X92812433Y-53515521D01*
X92802441Y-53504753D01*
X92633985Y-53323198D01*
X92587788Y-53286357D01*
X92428857Y-53159614D01*
X92201643Y-53028432D01*
X91957416Y-52932580D01*
X91957411Y-52932578D01*
X91957402Y-52932576D01*
X91739818Y-52882914D01*
X91701630Y-52874198D01*
X91701629Y-52874197D01*
X91701625Y-52874197D01*
X91701620Y-52874196D01*
X91505500Y-52859500D01*
X91505494Y-52859500D01*
X91374506Y-52859500D01*
X91374500Y-52859500D01*
X91178379Y-52874196D01*
X91178374Y-52874197D01*
X90922597Y-52932576D01*
X90922578Y-52932582D01*
X90678356Y-53028432D01*
X90451143Y-53159614D01*
X90246014Y-53323198D01*
X90067567Y-53515520D01*
X89919768Y-53732302D01*
X89919767Y-53732303D01*
X89805938Y-53968673D01*
X89728606Y-54219376D01*
X89728605Y-54219381D01*
X89728604Y-54219385D01*
X89723731Y-54251715D01*
X89689500Y-54478812D01*
X89689500Y-54741187D01*
X89699610Y-54808256D01*
X89728604Y-55000615D01*
X89728605Y-55000617D01*
X89728606Y-55000623D01*
X89805938Y-55251326D01*
X89919767Y-55487696D01*
X89919768Y-55487697D01*
X89919770Y-55487700D01*
X89919772Y-55487704D01*
X90062952Y-55697710D01*
X90067567Y-55704479D01*
X90194282Y-55841046D01*
X90225450Y-55903579D01*
X90217863Y-55973035D01*
X90173929Y-56027364D01*
X90115171Y-56048825D01*
X89960610Y-56063584D01*
X89960611Y-56063584D01*
X89960607Y-56063585D01*
X89758791Y-56122843D01*
X89571831Y-56219228D01*
X89406490Y-56349252D01*
X89406489Y-56349253D01*
X89268749Y-56508214D01*
X89268740Y-56508225D01*
X89163574Y-56690379D01*
X89094779Y-56889148D01*
X89094778Y-56889153D01*
X89094778Y-56889154D01*
X89064843Y-57097355D01*
X82380141Y-57097355D01*
X82375148Y-56992541D01*
X82325558Y-56788129D01*
X82238179Y-56596795D01*
X82238175Y-56596789D01*
X82116173Y-56425460D01*
X82116167Y-56425454D01*
X81963939Y-56280305D01*
X81963937Y-56280303D01*
X81786986Y-56166584D01*
X81784858Y-56165732D01*
X81591721Y-56088410D01*
X81591714Y-56088407D01*
X81591712Y-56088407D01*
X81591709Y-56088406D01*
X81591708Y-56088406D01*
X81385172Y-56048600D01*
X81385171Y-56048600D01*
X81227532Y-56048600D01*
X81070611Y-56063584D01*
X81070607Y-56063585D01*
X80868791Y-56122843D01*
X80681831Y-56219228D01*
X80516490Y-56349252D01*
X80516489Y-56349253D01*
X80378749Y-56508214D01*
X80378740Y-56508225D01*
X80273574Y-56690379D01*
X80204779Y-56889148D01*
X80204778Y-56889153D01*
X80204778Y-56889154D01*
X80174843Y-57097355D01*
X80184852Y-57307459D01*
X80234442Y-57511871D01*
X80279082Y-57609619D01*
X80321820Y-57703204D01*
X80321824Y-57703210D01*
X80443826Y-57874539D01*
X80443831Y-57874544D01*
X80596063Y-58019697D01*
X80773014Y-58133416D01*
X80773015Y-58133416D01*
X80777983Y-58136609D01*
X80777090Y-58137998D01*
X80821993Y-58180804D01*
X80838473Y-58248703D01*
X80822001Y-58304815D01*
X80746570Y-58435468D01*
X80746568Y-58435472D01*
X80703341Y-58568513D01*
X80688076Y-58615494D01*
X80668290Y-58803750D01*
X80688076Y-58992006D01*
X80688077Y-58992009D01*
X80746568Y-59172027D01*
X80746571Y-59172034D01*
X80806179Y-59275279D01*
X80806637Y-59276071D01*
X80823250Y-59338071D01*
X80823250Y-61319250D01*
X80803565Y-61386289D01*
X80750761Y-61432044D01*
X80699250Y-61443250D01*
X80065709Y-61443250D01*
X80015273Y-61432529D01*
X79849807Y-61358857D01*
X79849802Y-61358855D01*
X79704000Y-61327865D01*
X79664646Y-61319500D01*
X79475354Y-61319500D01*
X79442897Y-61326398D01*
X79290197Y-61358855D01*
X79290192Y-61358857D01*
X79117270Y-61435848D01*
X79117265Y-61435851D01*
X78964129Y-61547111D01*
X78837466Y-61687785D01*
X78742821Y-61851715D01*
X78742818Y-61851722D01*
X78685686Y-62027557D01*
X78684326Y-62031744D01*
X78664540Y-62220000D01*
X78684326Y-62408256D01*
X78684327Y-62408259D01*
X78742818Y-62588277D01*
X78742820Y-62588281D01*
X78742821Y-62588284D01*
X78751607Y-62603501D01*
X78768078Y-62671401D01*
X78745226Y-62737428D01*
X78690304Y-62780618D01*
X78644219Y-62789500D01*
X77374500Y-62789500D01*
X77307461Y-62769815D01*
X77261706Y-62717011D01*
X77250500Y-62665500D01*
X77250500Y-61192433D01*
X77270185Y-61125394D01*
X77299015Y-61094055D01*
X77303282Y-61090782D01*
X77324983Y-61062499D01*
X77330311Y-61056422D01*
X79417672Y-58969061D01*
X79423749Y-58963733D01*
X79452032Y-58942032D01*
X79548286Y-58816591D01*
X79608794Y-58670512D01*
X79624250Y-58553111D01*
X79629432Y-58513750D01*
X79628515Y-58506788D01*
X79627623Y-58500016D01*
X79624780Y-58478419D01*
X79624250Y-58470321D01*
X79624250Y-56343847D01*
X79643935Y-56276808D01*
X79660569Y-56256166D01*
X80509916Y-55406819D01*
X80571239Y-55373334D01*
X80597597Y-55370500D01*
X85236789Y-55370500D01*
X85303828Y-55390185D01*
X85309674Y-55394182D01*
X85447265Y-55494148D01*
X85447270Y-55494151D01*
X85620192Y-55571142D01*
X85620197Y-55571144D01*
X85805354Y-55610500D01*
X85805355Y-55610500D01*
X85994644Y-55610500D01*
X85994646Y-55610500D01*
X86179803Y-55571144D01*
X86352730Y-55494151D01*
X86505871Y-55382888D01*
X86632533Y-55242216D01*
X86727179Y-55078284D01*
X86785674Y-54898256D01*
X86805460Y-54710000D01*
X86785674Y-54521744D01*
X86727179Y-54341716D01*
X86632533Y-54177784D01*
X86505871Y-54037112D01*
X86505870Y-54037111D01*
X86352734Y-53925851D01*
X86352729Y-53925848D01*
X86179807Y-53848857D01*
X86179802Y-53848855D01*
X86034001Y-53817865D01*
X85994646Y-53809500D01*
X85805354Y-53809500D01*
X85772897Y-53816398D01*
X85620197Y-53848855D01*
X85620192Y-53848857D01*
X85447270Y-53925848D01*
X85447265Y-53925851D01*
X85294129Y-54037111D01*
X85211868Y-54128472D01*
X85152381Y-54165121D01*
X85119718Y-54169500D01*
X80340934Y-54169500D01*
X80332834Y-54168969D01*
X80297500Y-54164317D01*
X80297499Y-54164317D01*
X80126931Y-54186772D01*
X80114025Y-54196020D01*
X79994659Y-54245464D01*
X79869214Y-54341721D01*
X79847524Y-54369990D01*
X79842171Y-54376094D01*
X78629846Y-55588418D01*
X78623744Y-55593769D01*
X78595466Y-55615468D01*
X78532361Y-55697710D01*
X78532362Y-55697710D01*
X78501228Y-55738285D01*
X78499212Y-55740912D01*
X78499211Y-55740913D01*
X78438707Y-55886984D01*
X78438705Y-55886989D01*
X78417007Y-56051808D01*
X78415536Y-56051614D01*
X78398383Y-56110033D01*
X78345579Y-56155788D01*
X78276421Y-56165732D01*
X78212865Y-56136707D01*
X78185326Y-56102586D01*
X78157499Y-56051808D01*
X78096021Y-55939625D01*
X77917777Y-55697710D01*
X77708879Y-55481711D01*
X77708872Y-55481705D01*
X77473055Y-55295483D01*
X77473056Y-55295483D01*
X77473054Y-55295482D01*
X77214513Y-55142348D01*
X76937867Y-55025040D01*
X76937860Y-55025037D01*
X76648059Y-54945653D01*
X76648056Y-54945652D01*
X76648054Y-54945652D01*
X76350245Y-54905600D01*
X76124967Y-54905600D01*
X76124959Y-54905600D01*
X75900183Y-54920647D01*
X75900174Y-54920649D01*
X75605710Y-54980501D01*
X75321847Y-55079069D01*
X75321844Y-55079071D01*
X75053662Y-55214589D01*
X74805918Y-55384655D01*
X74583062Y-55586216D01*
X74389058Y-55815686D01*
X74389056Y-55815688D01*
X74227366Y-56068972D01*
X74100886Y-56341531D01*
X74100882Y-56341540D01*
X74074852Y-56425454D01*
X74011854Y-56628535D01*
X73961874Y-56924842D01*
X73951833Y-57225167D01*
X73981910Y-57524142D01*
X73981911Y-57524149D01*
X74051568Y-57816441D01*
X74051571Y-57816453D01*
X74159566Y-58096853D01*
X74159573Y-58096868D01*
X74303979Y-58360375D01*
X74303983Y-58360381D01*
X74401708Y-58493014D01*
X74482223Y-58602290D01*
X74691121Y-58818289D01*
X74926946Y-59004518D01*
X75185487Y-59157652D01*
X75462133Y-59274960D01*
X75462136Y-59274960D01*
X75462139Y-59274962D01*
X75603086Y-59313571D01*
X75751946Y-59354348D01*
X76049755Y-59394400D01*
X76049760Y-59394400D01*
X76275041Y-59394400D01*
X76438513Y-59383456D01*
X76499819Y-59379352D01*
X76794287Y-59319499D01*
X77078151Y-59220931D01*
X77173615Y-59172690D01*
X77242323Y-59160024D01*
X77306976Y-59186516D01*
X77347042Y-59243756D01*
X77349802Y-59313571D01*
X77317219Y-59371044D01*
X76662584Y-60025681D01*
X76601261Y-60059166D01*
X76574903Y-60062000D01*
X72459440Y-60062000D01*
X72451341Y-60061469D01*
X72416012Y-60056818D01*
X72376651Y-60062000D01*
X72259251Y-60077455D01*
X72259246Y-60077457D01*
X72202802Y-60100837D01*
X72155350Y-60110276D01*
X71973090Y-60110276D01*
X71963747Y-60112262D01*
X71787935Y-60149631D01*
X71653792Y-60209356D01*
X71584542Y-60218640D01*
X71521265Y-60189012D01*
X71484052Y-60129877D01*
X71480417Y-60112262D01*
X71475835Y-60077457D01*
X71466294Y-60004988D01*
X71405788Y-59858913D01*
X71405788Y-59858912D01*
X71405786Y-59858909D01*
X71377615Y-59822196D01*
X71309532Y-59733468D01*
X71281255Y-59711770D01*
X71275154Y-59706419D01*
X68666091Y-57097355D01*
X70014843Y-57097355D01*
X70024852Y-57307459D01*
X70074442Y-57511871D01*
X70119082Y-57609619D01*
X70161820Y-57703204D01*
X70161824Y-57703210D01*
X70283826Y-57874539D01*
X70283831Y-57874544D01*
X70436063Y-58019697D01*
X70613014Y-58133416D01*
X70808288Y-58211593D01*
X70937084Y-58236416D01*
X71014828Y-58251400D01*
X71014829Y-58251400D01*
X71172461Y-58251400D01*
X71172468Y-58251400D01*
X71329389Y-58236416D01*
X71531211Y-58177156D01*
X71718170Y-58080771D01*
X71883510Y-57950747D01*
X72021255Y-57791781D01*
X72126426Y-57609619D01*
X72195222Y-57410846D01*
X72225157Y-57202645D01*
X72215148Y-56992541D01*
X72165558Y-56788129D01*
X72078179Y-56596795D01*
X72039881Y-56543013D01*
X72017030Y-56476988D01*
X72033503Y-56409088D01*
X72084070Y-56360872D01*
X72150157Y-56347435D01*
X72324500Y-56360500D01*
X72324506Y-56360500D01*
X72455500Y-56360500D01*
X72651620Y-56345803D01*
X72651622Y-56345802D01*
X72651630Y-56345802D01*
X72907416Y-56287420D01*
X73151643Y-56191568D01*
X73378857Y-56060386D01*
X73583981Y-55896805D01*
X73762433Y-55704479D01*
X73910228Y-55487704D01*
X74024063Y-55251323D01*
X74101396Y-55000615D01*
X74140500Y-54741182D01*
X74140500Y-54478818D01*
X74101396Y-54219385D01*
X74024063Y-53968677D01*
X73966361Y-53848857D01*
X73910232Y-53732303D01*
X73910231Y-53732302D01*
X73910230Y-53732301D01*
X73910228Y-53732296D01*
X73762433Y-53515521D01*
X73752441Y-53504753D01*
X73583985Y-53323198D01*
X73537788Y-53286357D01*
X73378857Y-53159614D01*
X73151643Y-53028432D01*
X72907416Y-52932580D01*
X72907411Y-52932578D01*
X72907402Y-52932576D01*
X72689818Y-52882914D01*
X72651630Y-52874198D01*
X72651629Y-52874197D01*
X72651625Y-52874197D01*
X72651620Y-52874196D01*
X72455500Y-52859500D01*
X72455494Y-52859500D01*
X72324506Y-52859500D01*
X72324500Y-52859500D01*
X72128379Y-52874196D01*
X72128374Y-52874197D01*
X71872597Y-52932576D01*
X71872578Y-52932582D01*
X71628356Y-53028432D01*
X71401143Y-53159614D01*
X71196014Y-53323198D01*
X71017567Y-53515520D01*
X70869768Y-53732302D01*
X70869767Y-53732303D01*
X70755938Y-53968673D01*
X70678606Y-54219376D01*
X70678605Y-54219381D01*
X70678604Y-54219385D01*
X70673731Y-54251715D01*
X70639500Y-54478812D01*
X70639500Y-54741187D01*
X70649610Y-54808256D01*
X70678604Y-55000615D01*
X70678605Y-55000617D01*
X70678606Y-55000623D01*
X70755938Y-55251326D01*
X70869767Y-55487696D01*
X70869768Y-55487697D01*
X70869770Y-55487700D01*
X70869772Y-55487704D01*
X71012952Y-55697710D01*
X71017567Y-55704479D01*
X71144282Y-55841046D01*
X71175450Y-55903579D01*
X71167863Y-55973035D01*
X71123929Y-56027364D01*
X71065171Y-56048825D01*
X70910611Y-56063584D01*
X70910607Y-56063585D01*
X70708791Y-56122843D01*
X70521831Y-56219228D01*
X70356490Y-56349252D01*
X70356489Y-56349253D01*
X70218749Y-56508214D01*
X70218740Y-56508225D01*
X70113574Y-56690379D01*
X70044779Y-56889148D01*
X70044778Y-56889153D01*
X70044778Y-56889154D01*
X70014843Y-57097355D01*
X68666091Y-57097355D01*
X67931779Y-56363043D01*
X67898294Y-56301720D01*
X67895460Y-56275362D01*
X67895460Y-56270502D01*
X67890071Y-56219228D01*
X67875674Y-56082244D01*
X67817179Y-55902216D01*
X67722533Y-55738284D01*
X67595871Y-55597612D01*
X67590582Y-55593769D01*
X67442734Y-55486351D01*
X67442729Y-55486348D01*
X67269807Y-55409357D01*
X67269802Y-55409355D01*
X67100331Y-55373334D01*
X67084646Y-55370000D01*
X66895354Y-55370000D01*
X66879669Y-55373334D01*
X66710197Y-55409355D01*
X66710192Y-55409357D01*
X66537270Y-55486348D01*
X66537265Y-55486351D01*
X66384129Y-55597611D01*
X66257466Y-55738285D01*
X66162821Y-55902215D01*
X66162818Y-55902222D01*
X66108638Y-56068972D01*
X66104326Y-56082244D01*
X66095462Y-56166583D01*
X66086047Y-56256166D01*
X66084540Y-56270500D01*
X66104326Y-56458756D01*
X66104327Y-56458759D01*
X66162818Y-56638777D01*
X66162821Y-56638784D01*
X66257467Y-56802716D01*
X66263410Y-56809316D01*
X66275306Y-56822528D01*
X66305536Y-56885519D01*
X66296911Y-56954854D01*
X66252170Y-57008520D01*
X66185517Y-57029478D01*
X66183156Y-57029500D01*
X65114500Y-57029500D01*
X65047461Y-57009815D01*
X65001706Y-56957011D01*
X64990500Y-56905500D01*
X64990500Y-53192230D01*
X65010185Y-53125191D01*
X65026819Y-53104549D01*
X65930181Y-52201187D01*
X76989500Y-52201187D01*
X77001439Y-52280390D01*
X77028604Y-52460615D01*
X77028605Y-52460617D01*
X77028606Y-52460623D01*
X77105938Y-52711326D01*
X77219767Y-52947696D01*
X77219768Y-52947697D01*
X77219770Y-52947700D01*
X77219772Y-52947704D01*
X77367566Y-53164479D01*
X77367567Y-53164479D01*
X77546014Y-53356801D01*
X77546018Y-53356804D01*
X77546019Y-53356805D01*
X77751143Y-53520386D01*
X77978357Y-53651568D01*
X78222584Y-53747420D01*
X78478370Y-53805802D01*
X78478376Y-53805802D01*
X78478379Y-53805803D01*
X78674500Y-53820500D01*
X78674506Y-53820500D01*
X78805500Y-53820500D01*
X79001620Y-53805803D01*
X79001622Y-53805802D01*
X79001630Y-53805802D01*
X79257416Y-53747420D01*
X79501643Y-53651568D01*
X79728857Y-53520386D01*
X79933981Y-53356805D01*
X79965167Y-53323195D01*
X80038886Y-53243744D01*
X80112433Y-53164479D01*
X80260228Y-52947704D01*
X80374063Y-52711323D01*
X80451396Y-52460615D01*
X80490499Y-52201187D01*
X96039500Y-52201187D01*
X96051439Y-52280390D01*
X96078604Y-52460615D01*
X96078605Y-52460617D01*
X96078606Y-52460623D01*
X96155938Y-52711326D01*
X96269767Y-52947696D01*
X96269768Y-52947697D01*
X96269770Y-52947700D01*
X96269772Y-52947704D01*
X96417567Y-53164478D01*
X96417567Y-53164479D01*
X96596014Y-53356801D01*
X96596018Y-53356804D01*
X96596019Y-53356805D01*
X96801143Y-53520386D01*
X97028357Y-53651568D01*
X97272584Y-53747420D01*
X97528370Y-53805802D01*
X97528376Y-53805802D01*
X97528379Y-53805803D01*
X97724500Y-53820500D01*
X97724506Y-53820500D01*
X97855500Y-53820500D01*
X98051620Y-53805803D01*
X98051622Y-53805802D01*
X98051630Y-53805802D01*
X98307416Y-53747420D01*
X98551643Y-53651568D01*
X98778857Y-53520386D01*
X98983981Y-53356805D01*
X99015167Y-53323195D01*
X99088886Y-53243744D01*
X99162433Y-53164479D01*
X99310228Y-52947704D01*
X99424063Y-52711323D01*
X99501396Y-52460615D01*
X99540499Y-52201187D01*
X115089500Y-52201187D01*
X115101439Y-52280390D01*
X115128604Y-52460615D01*
X115128605Y-52460617D01*
X115128606Y-52460623D01*
X115205938Y-52711326D01*
X115319767Y-52947696D01*
X115319768Y-52947697D01*
X115319770Y-52947700D01*
X115319772Y-52947704D01*
X115467566Y-53164479D01*
X115467567Y-53164479D01*
X115646014Y-53356801D01*
X115646018Y-53356804D01*
X115646019Y-53356805D01*
X115851143Y-53520386D01*
X116078357Y-53651568D01*
X116322584Y-53747420D01*
X116578370Y-53805802D01*
X116578376Y-53805802D01*
X116578379Y-53805803D01*
X116774500Y-53820500D01*
X116774506Y-53820500D01*
X116905500Y-53820500D01*
X117101620Y-53805803D01*
X117101622Y-53805802D01*
X117101630Y-53805802D01*
X117357416Y-53747420D01*
X117601643Y-53651568D01*
X117828857Y-53520386D01*
X118033981Y-53356805D01*
X118065167Y-53323195D01*
X118138886Y-53243744D01*
X118212433Y-53164479D01*
X118360228Y-52947704D01*
X118474063Y-52711323D01*
X118551396Y-52460615D01*
X118590500Y-52201182D01*
X118590500Y-51938818D01*
X118551396Y-51679385D01*
X118474063Y-51428677D01*
X118462121Y-51403880D01*
X118360232Y-51192303D01*
X118360231Y-51192302D01*
X118360230Y-51192301D01*
X118360228Y-51192296D01*
X118212433Y-50975521D01*
X118148687Y-50906819D01*
X118033985Y-50783198D01*
X117938765Y-50707263D01*
X117828857Y-50619614D01*
X117601643Y-50488432D01*
X117357416Y-50392580D01*
X117357411Y-50392578D01*
X117357402Y-50392576D01*
X117139818Y-50342914D01*
X117101630Y-50334198D01*
X117101629Y-50334197D01*
X117101625Y-50334197D01*
X117101620Y-50334196D01*
X116905500Y-50319500D01*
X116905494Y-50319500D01*
X116774506Y-50319500D01*
X116774500Y-50319500D01*
X116578379Y-50334196D01*
X116578374Y-50334197D01*
X116322597Y-50392576D01*
X116322578Y-50392582D01*
X116078356Y-50488432D01*
X115851143Y-50619614D01*
X115646014Y-50783198D01*
X115467567Y-50975520D01*
X115319768Y-51192302D01*
X115319767Y-51192303D01*
X115205938Y-51428673D01*
X115128606Y-51679376D01*
X115128605Y-51679381D01*
X115128604Y-51679385D01*
X115113853Y-51777247D01*
X115089500Y-51938812D01*
X115089500Y-52201187D01*
X99540499Y-52201187D01*
X99540500Y-52201182D01*
X99540500Y-51938818D01*
X99501396Y-51679385D01*
X99424063Y-51428677D01*
X99412121Y-51403880D01*
X99310232Y-51192303D01*
X99310231Y-51192302D01*
X99310230Y-51192301D01*
X99310228Y-51192296D01*
X99162433Y-50975521D01*
X99098687Y-50906819D01*
X98983985Y-50783198D01*
X98888765Y-50707263D01*
X98778857Y-50619614D01*
X98551643Y-50488432D01*
X98307416Y-50392580D01*
X98307411Y-50392578D01*
X98307402Y-50392576D01*
X98089818Y-50342914D01*
X98051630Y-50334198D01*
X98051629Y-50334197D01*
X98051625Y-50334197D01*
X98051620Y-50334196D01*
X97855500Y-50319500D01*
X97855494Y-50319500D01*
X97724506Y-50319500D01*
X97724500Y-50319500D01*
X97528379Y-50334196D01*
X97528374Y-50334197D01*
X97272597Y-50392576D01*
X97272578Y-50392582D01*
X97028356Y-50488432D01*
X96801143Y-50619614D01*
X96596014Y-50783198D01*
X96417567Y-50975520D01*
X96269768Y-51192302D01*
X96269767Y-51192303D01*
X96155938Y-51428673D01*
X96078606Y-51679376D01*
X96078605Y-51679381D01*
X96078604Y-51679385D01*
X96063853Y-51777247D01*
X96039500Y-51938812D01*
X96039500Y-52201187D01*
X80490499Y-52201187D01*
X80490500Y-52201182D01*
X80490500Y-51938818D01*
X80451396Y-51679385D01*
X80374063Y-51428677D01*
X80362121Y-51403880D01*
X80260232Y-51192303D01*
X80260231Y-51192302D01*
X80260230Y-51192301D01*
X80260228Y-51192296D01*
X80112433Y-50975521D01*
X80048687Y-50906819D01*
X79933985Y-50783198D01*
X79838765Y-50707263D01*
X79728857Y-50619614D01*
X79501643Y-50488432D01*
X79257416Y-50392580D01*
X79257411Y-50392578D01*
X79257402Y-50392576D01*
X79039818Y-50342914D01*
X79001630Y-50334198D01*
X79001629Y-50334197D01*
X79001625Y-50334197D01*
X79001620Y-50334196D01*
X78805500Y-50319500D01*
X78805494Y-50319500D01*
X78674506Y-50319500D01*
X78674500Y-50319500D01*
X78478379Y-50334196D01*
X78478374Y-50334197D01*
X78222597Y-50392576D01*
X78222578Y-50392582D01*
X77978356Y-50488432D01*
X77751143Y-50619614D01*
X77546014Y-50783198D01*
X77367567Y-50975520D01*
X77219768Y-51192302D01*
X77219767Y-51192303D01*
X77105938Y-51428673D01*
X77028606Y-51679376D01*
X77028605Y-51679381D01*
X77028604Y-51679385D01*
X77013853Y-51777247D01*
X76989500Y-51938812D01*
X76989500Y-52201187D01*
X65930181Y-52201187D01*
X67224549Y-50906819D01*
X67285872Y-50873334D01*
X67312230Y-50870500D01*
X73987868Y-50870500D01*
X74005838Y-50871809D01*
X74029596Y-50875289D01*
X74081641Y-50870735D01*
X74087043Y-50870500D01*
X74095277Y-50870500D01*
X74095282Y-50870500D01*
X74106900Y-50869141D01*
X74127849Y-50866693D01*
X74140601Y-50865577D01*
X74204370Y-50859999D01*
X74204378Y-50859996D01*
X74211439Y-50858539D01*
X74211451Y-50858598D01*
X74218816Y-50856965D01*
X74218802Y-50856906D01*
X74225819Y-50855241D01*
X74225828Y-50855241D01*
X74297996Y-50828974D01*
X74370907Y-50804814D01*
X74370916Y-50804807D01*
X74377455Y-50801760D01*
X74377481Y-50801816D01*
X74384243Y-50798542D01*
X74384216Y-50798488D01*
X74385040Y-50798074D01*
X74385375Y-50797994D01*
X74392236Y-50794673D01*
X74397501Y-50792758D01*
X74398291Y-50794932D01*
X74440710Y-50784875D01*
X74651288Y-50784875D01*
X74718327Y-50804560D01*
X74724173Y-50808557D01*
X74737890Y-50818523D01*
X74737895Y-50818526D01*
X74910817Y-50895517D01*
X74910822Y-50895519D01*
X75095979Y-50934875D01*
X75095980Y-50934875D01*
X75285269Y-50934875D01*
X75285271Y-50934875D01*
X75470428Y-50895519D01*
X75643355Y-50818526D01*
X75796496Y-50707263D01*
X75923158Y-50566591D01*
X76017804Y-50402659D01*
X76076299Y-50222631D01*
X76096085Y-50034375D01*
X76076299Y-49846119D01*
X76017804Y-49666091D01*
X75923158Y-49502159D01*
X75796496Y-49361487D01*
X75789357Y-49356300D01*
X75643359Y-49250226D01*
X75643354Y-49250223D01*
X75470432Y-49173232D01*
X75470427Y-49173230D01*
X75324625Y-49142240D01*
X75285271Y-49133875D01*
X75095979Y-49133875D01*
X75063522Y-49140773D01*
X74910822Y-49173230D01*
X74910817Y-49173232D01*
X74737895Y-49250223D01*
X74737890Y-49250226D01*
X74724173Y-49260193D01*
X74658367Y-49283673D01*
X74651288Y-49283875D01*
X74200903Y-49283875D01*
X74182933Y-49282566D01*
X74159170Y-49279085D01*
X74113731Y-49283061D01*
X74107129Y-49283639D01*
X74101728Y-49283875D01*
X74093487Y-49283875D01*
X74071777Y-49286412D01*
X74060922Y-49287681D01*
X74045617Y-49289020D01*
X73984397Y-49294376D01*
X73977330Y-49295835D01*
X73977318Y-49295779D01*
X73969961Y-49297410D01*
X73969975Y-49297467D01*
X73962941Y-49299134D01*
X73890773Y-49325400D01*
X73817863Y-49349560D01*
X73811324Y-49352610D01*
X73811299Y-49352558D01*
X73804521Y-49355839D01*
X73804547Y-49355890D01*
X73803731Y-49356300D01*
X73803415Y-49356374D01*
X73796581Y-49359683D01*
X73791306Y-49361604D01*
X73790515Y-49359433D01*
X73748059Y-49369500D01*
X67013705Y-49369500D01*
X66995735Y-49368191D01*
X66971972Y-49364710D01*
X66926533Y-49368686D01*
X66919931Y-49369264D01*
X66914530Y-49369500D01*
X66906289Y-49369500D01*
X66884579Y-49372037D01*
X66873724Y-49373306D01*
X66858419Y-49374645D01*
X66797199Y-49380001D01*
X66790132Y-49381460D01*
X66790120Y-49381404D01*
X66782763Y-49383035D01*
X66782777Y-49383092D01*
X66775743Y-49384759D01*
X66703575Y-49411025D01*
X66630675Y-49435181D01*
X66624126Y-49438236D01*
X66624101Y-49438183D01*
X66617308Y-49441471D01*
X66617334Y-49441523D01*
X66610880Y-49444764D01*
X66546708Y-49486971D01*
X66481347Y-49527285D01*
X66475683Y-49531765D01*
X66475647Y-49531719D01*
X66469798Y-49536484D01*
X66469835Y-49536528D01*
X66464310Y-49541164D01*
X66411597Y-49597035D01*
X63754358Y-52254272D01*
X63740729Y-52266051D01*
X63721468Y-52280390D01*
X63687898Y-52320397D01*
X63684253Y-52324376D01*
X63678409Y-52330222D01*
X63658059Y-52355959D01*
X63608695Y-52414789D01*
X63604729Y-52420819D01*
X63604682Y-52420788D01*
X63600630Y-52427147D01*
X63600679Y-52427177D01*
X63596889Y-52433321D01*
X63564424Y-52502941D01*
X63529960Y-52571566D01*
X63527488Y-52578357D01*
X63527432Y-52578336D01*
X63524960Y-52585450D01*
X63525015Y-52585469D01*
X63522742Y-52592327D01*
X63514974Y-52629945D01*
X63507207Y-52667565D01*
X63496836Y-52711326D01*
X63489498Y-52742286D01*
X63488661Y-52749454D01*
X63488601Y-52749447D01*
X63487835Y-52756945D01*
X63487895Y-52756951D01*
X63487265Y-52764140D01*
X63489500Y-52840916D01*
X63489500Y-56686578D01*
X63469815Y-56753617D01*
X63417011Y-56799372D01*
X63347853Y-56809316D01*
X63284297Y-56780291D01*
X63252706Y-56738090D01*
X63188179Y-56596795D01*
X63188175Y-56596789D01*
X63066173Y-56425460D01*
X63066167Y-56425454D01*
X62913939Y-56280305D01*
X62913937Y-56280303D01*
X62736986Y-56166584D01*
X62734858Y-56165732D01*
X62541721Y-56088410D01*
X62541714Y-56088407D01*
X62541712Y-56088407D01*
X62541709Y-56088406D01*
X62541708Y-56088406D01*
X62335172Y-56048600D01*
X62335171Y-56048600D01*
X62177532Y-56048600D01*
X62020610Y-56063584D01*
X62020611Y-56063584D01*
X62020607Y-56063585D01*
X61818791Y-56122843D01*
X61631831Y-56219228D01*
X61466490Y-56349252D01*
X61466489Y-56349253D01*
X61328749Y-56508214D01*
X61328740Y-56508225D01*
X61223574Y-56690379D01*
X61154779Y-56889148D01*
X61154778Y-56889153D01*
X61154778Y-56889154D01*
X61124843Y-57097355D01*
X61134852Y-57307459D01*
X61184442Y-57511871D01*
X61229082Y-57609619D01*
X61271820Y-57703204D01*
X61271824Y-57703210D01*
X61393826Y-57874539D01*
X61393831Y-57874544D01*
X61546063Y-58019697D01*
X61723014Y-58133416D01*
X61918288Y-58211593D01*
X62047084Y-58236416D01*
X62104546Y-58247491D01*
X62166649Y-58279507D01*
X62201584Y-58340016D01*
X62198259Y-58409806D01*
X62157731Y-58466721D01*
X62092866Y-58492689D01*
X62081079Y-58493250D01*
X60882455Y-58493250D01*
X60864485Y-58491941D01*
X60840722Y-58488460D01*
X60795640Y-58492405D01*
X60788683Y-58493014D01*
X60783282Y-58493250D01*
X60775038Y-58493250D01*
X60742457Y-58497058D01*
X60665949Y-58503751D01*
X60658883Y-58505211D01*
X60658871Y-58505154D01*
X60651504Y-58506788D01*
X60651518Y-58506844D01*
X60644501Y-58508506D01*
X60572323Y-58534776D01*
X60499412Y-58558937D01*
X60492869Y-58561988D01*
X60492844Y-58561936D01*
X60486060Y-58565220D01*
X60486086Y-58565271D01*
X60479635Y-58568511D01*
X60415473Y-58610711D01*
X60350096Y-58651035D01*
X60344432Y-58655515D01*
X60344396Y-58655469D01*
X60338548Y-58660234D01*
X60338585Y-58660278D01*
X60333060Y-58664914D01*
X60333054Y-58664919D01*
X60333054Y-58664920D01*
X60280364Y-58720767D01*
X60098085Y-58903047D01*
X59929201Y-59071931D01*
X59867878Y-59105416D01*
X59841520Y-59108250D01*
X58652755Y-59108250D01*
X58585716Y-59088565D01*
X58539961Y-59035761D01*
X58530017Y-58966603D01*
X58559042Y-58903047D01*
X58569578Y-58892285D01*
X58667467Y-58803749D01*
X58766939Y-58713782D01*
X58960943Y-58484312D01*
X59122631Y-58231032D01*
X59249118Y-57958460D01*
X59338146Y-57671462D01*
X59388126Y-57375158D01*
X59398167Y-57074836D01*
X59368089Y-56775855D01*
X59362789Y-56753617D01*
X59346813Y-56686578D01*
X59298430Y-56483551D01*
X59190431Y-56203140D01*
X59046021Y-55939625D01*
X58867777Y-55697710D01*
X58658879Y-55481711D01*
X58658872Y-55481705D01*
X58423055Y-55295483D01*
X58423056Y-55295483D01*
X58423054Y-55295482D01*
X58164513Y-55142348D01*
X57887867Y-55025040D01*
X57887860Y-55025037D01*
X57598059Y-54945653D01*
X57598056Y-54945652D01*
X57598054Y-54945652D01*
X57300245Y-54905600D01*
X57074967Y-54905600D01*
X57074959Y-54905600D01*
X56850183Y-54920647D01*
X56850174Y-54920649D01*
X56555710Y-54980501D01*
X56271847Y-55079069D01*
X56271844Y-55079071D01*
X56003662Y-55214589D01*
X55755918Y-55384655D01*
X55533062Y-55586216D01*
X55339058Y-55815686D01*
X55339056Y-55815688D01*
X55177366Y-56068972D01*
X55050886Y-56341531D01*
X55050882Y-56341540D01*
X55024852Y-56425454D01*
X54961854Y-56628535D01*
X54911874Y-56924842D01*
X54901833Y-57225167D01*
X54931910Y-57524142D01*
X54931911Y-57524149D01*
X55001568Y-57816441D01*
X55001571Y-57816453D01*
X55109566Y-58096853D01*
X55109573Y-58096868D01*
X55253979Y-58360375D01*
X55253983Y-58360381D01*
X55351708Y-58493014D01*
X55432223Y-58602290D01*
X55641121Y-58818289D01*
X55786684Y-58933238D01*
X55827096Y-58990232D01*
X55830279Y-59060029D01*
X55795223Y-59120468D01*
X55752261Y-59147068D01*
X55747840Y-59148677D01*
X55744823Y-59149776D01*
X55677676Y-59172027D01*
X55671912Y-59173937D01*
X55665369Y-59176988D01*
X55665344Y-59176936D01*
X55658564Y-59180218D01*
X55658590Y-59180270D01*
X55652131Y-59183514D01*
X55587959Y-59225720D01*
X55522595Y-59266038D01*
X55516927Y-59270520D01*
X55516891Y-59270474D01*
X55511047Y-59275235D01*
X55511084Y-59275279D01*
X55505559Y-59279915D01*
X55496512Y-59289504D01*
X55436187Y-59324756D01*
X55432102Y-59325697D01*
X55370196Y-59338856D01*
X55370192Y-59338857D01*
X55197270Y-59415848D01*
X55197265Y-59415851D01*
X55183548Y-59425818D01*
X55117742Y-59449298D01*
X55110663Y-59449500D01*
X53571768Y-59449500D01*
X53504729Y-59429815D01*
X53484087Y-59413181D01*
X52447452Y-58376546D01*
X52413967Y-58315223D01*
X52418951Y-58245531D01*
X52460823Y-58189598D01*
X52478313Y-58178649D01*
X52481206Y-58177157D01*
X52481211Y-58177156D01*
X52668170Y-58080771D01*
X52833510Y-57950747D01*
X52971255Y-57791781D01*
X53076426Y-57609619D01*
X53145222Y-57410846D01*
X53175157Y-57202645D01*
X53165148Y-56992541D01*
X53115558Y-56788129D01*
X53028179Y-56596795D01*
X52989881Y-56543013D01*
X52967030Y-56476988D01*
X52983503Y-56409088D01*
X53034070Y-56360872D01*
X53100157Y-56347435D01*
X53274500Y-56360500D01*
X53274506Y-56360500D01*
X53405500Y-56360500D01*
X53601620Y-56345803D01*
X53601622Y-56345802D01*
X53601630Y-56345802D01*
X53857416Y-56287420D01*
X54101643Y-56191568D01*
X54328857Y-56060386D01*
X54533981Y-55896805D01*
X54712433Y-55704479D01*
X54860228Y-55487704D01*
X54974063Y-55251323D01*
X55051396Y-55000615D01*
X55090500Y-54741182D01*
X55090500Y-54478818D01*
X55051396Y-54219385D01*
X54974063Y-53968677D01*
X54916361Y-53848857D01*
X54860232Y-53732303D01*
X54860231Y-53732302D01*
X54860230Y-53732301D01*
X54860228Y-53732296D01*
X54712433Y-53515521D01*
X54702441Y-53504753D01*
X54533985Y-53323198D01*
X54487788Y-53286357D01*
X54328857Y-53159614D01*
X54101643Y-53028432D01*
X53857416Y-52932580D01*
X53857411Y-52932578D01*
X53857402Y-52932576D01*
X53639818Y-52882914D01*
X53601630Y-52874198D01*
X53601629Y-52874197D01*
X53601625Y-52874197D01*
X53601620Y-52874196D01*
X53405500Y-52859500D01*
X53405494Y-52859500D01*
X53274506Y-52859500D01*
X53274500Y-52859500D01*
X53078379Y-52874196D01*
X53078374Y-52874197D01*
X52822597Y-52932576D01*
X52822578Y-52932582D01*
X52578356Y-53028432D01*
X52351143Y-53159614D01*
X52146014Y-53323198D01*
X51967567Y-53515520D01*
X51819768Y-53732302D01*
X51819767Y-53732303D01*
X51705938Y-53968673D01*
X51628606Y-54219376D01*
X51628605Y-54219381D01*
X51628604Y-54219385D01*
X51623731Y-54251715D01*
X51589500Y-54478812D01*
X51589500Y-54741187D01*
X51599610Y-54808256D01*
X51628604Y-55000615D01*
X51628605Y-55000617D01*
X51628606Y-55000623D01*
X51705938Y-55251326D01*
X51819767Y-55487696D01*
X51819768Y-55487697D01*
X51819770Y-55487700D01*
X51819772Y-55487704D01*
X51962952Y-55697710D01*
X51967567Y-55704479D01*
X52094282Y-55841046D01*
X52125450Y-55903579D01*
X52117863Y-55973035D01*
X52073929Y-56027364D01*
X52015171Y-56048825D01*
X51860610Y-56063584D01*
X51860611Y-56063584D01*
X51860607Y-56063585D01*
X51658791Y-56122843D01*
X51471831Y-56219228D01*
X51306490Y-56349252D01*
X51306489Y-56349253D01*
X51168749Y-56508214D01*
X51168740Y-56508225D01*
X51063574Y-56690380D01*
X51050639Y-56727751D01*
X51010109Y-56784665D01*
X50945244Y-56810631D01*
X50876637Y-56797406D01*
X50845779Y-56774873D01*
X48780906Y-54710000D01*
X46636819Y-52565912D01*
X46603334Y-52504589D01*
X46600500Y-52478231D01*
X46600500Y-52201187D01*
X57939500Y-52201187D01*
X57951439Y-52280390D01*
X57978604Y-52460615D01*
X57978605Y-52460617D01*
X57978606Y-52460623D01*
X58055938Y-52711326D01*
X58169767Y-52947696D01*
X58169768Y-52947697D01*
X58169770Y-52947700D01*
X58169772Y-52947704D01*
X58317566Y-53164478D01*
X58317567Y-53164479D01*
X58496014Y-53356801D01*
X58496018Y-53356804D01*
X58496019Y-53356805D01*
X58701143Y-53520386D01*
X58928357Y-53651568D01*
X59172584Y-53747420D01*
X59428370Y-53805802D01*
X59428376Y-53805802D01*
X59428379Y-53805803D01*
X59624500Y-53820500D01*
X59624506Y-53820500D01*
X59755500Y-53820500D01*
X59951620Y-53805803D01*
X59951622Y-53805802D01*
X59951630Y-53805802D01*
X60207416Y-53747420D01*
X60451643Y-53651568D01*
X60678857Y-53520386D01*
X60883981Y-53356805D01*
X60915167Y-53323195D01*
X60988886Y-53243744D01*
X61062433Y-53164479D01*
X61210228Y-52947704D01*
X61324063Y-52711323D01*
X61401396Y-52460615D01*
X61440500Y-52201182D01*
X61440500Y-51938818D01*
X61401396Y-51679385D01*
X61324063Y-51428677D01*
X61312121Y-51403880D01*
X61210232Y-51192303D01*
X61210231Y-51192302D01*
X61210230Y-51192301D01*
X61210228Y-51192296D01*
X61062433Y-50975521D01*
X60998687Y-50906819D01*
X60883985Y-50783198D01*
X60788765Y-50707263D01*
X60678857Y-50619614D01*
X60451643Y-50488432D01*
X60207416Y-50392580D01*
X60207411Y-50392578D01*
X60207402Y-50392576D01*
X59989818Y-50342914D01*
X59951630Y-50334198D01*
X59951629Y-50334197D01*
X59951625Y-50334197D01*
X59951620Y-50334196D01*
X59755500Y-50319500D01*
X59755494Y-50319500D01*
X59624506Y-50319500D01*
X59624500Y-50319500D01*
X59428379Y-50334196D01*
X59428374Y-50334197D01*
X59172597Y-50392576D01*
X59172578Y-50392582D01*
X58928356Y-50488432D01*
X58701143Y-50619614D01*
X58496014Y-50783198D01*
X58317567Y-50975520D01*
X58169768Y-51192302D01*
X58169767Y-51192303D01*
X58055938Y-51428673D01*
X57978606Y-51679376D01*
X57978605Y-51679381D01*
X57978604Y-51679385D01*
X57963853Y-51777247D01*
X57939500Y-51938812D01*
X57939500Y-52201187D01*
X46600500Y-52201187D01*
X46600500Y-50484321D01*
X46617113Y-50422321D01*
X46634284Y-50392580D01*
X46677179Y-50318284D01*
X46735674Y-50138256D01*
X46755460Y-49950000D01*
X46735674Y-49761744D01*
X46677179Y-49581716D01*
X46582533Y-49417784D01*
X46455871Y-49277112D01*
X46432584Y-49260193D01*
X46302734Y-49165851D01*
X46302729Y-49165848D01*
X46129807Y-49088857D01*
X46129802Y-49088855D01*
X45976106Y-49056187D01*
X45944646Y-49049500D01*
X45755354Y-49049500D01*
X45723894Y-49056187D01*
X45570197Y-49088855D01*
X45465060Y-49135666D01*
X45395810Y-49144950D01*
X45332534Y-49115322D01*
X45295321Y-49056187D01*
X45290625Y-49022386D01*
X45290625Y-47050000D01*
X48864540Y-47050000D01*
X48884326Y-47238256D01*
X48884327Y-47238259D01*
X48942818Y-47418277D01*
X48942821Y-47418284D01*
X49037467Y-47582216D01*
X49069493Y-47617784D01*
X49164129Y-47722888D01*
X49317265Y-47834148D01*
X49317270Y-47834151D01*
X49490192Y-47911142D01*
X49490197Y-47911144D01*
X49675354Y-47950500D01*
X49769903Y-47950500D01*
X49836942Y-47970185D01*
X49857584Y-47986819D01*
X50404669Y-48533904D01*
X50410020Y-48540005D01*
X50431718Y-48568282D01*
X50557159Y-48664536D01*
X50703238Y-48725044D01*
X50781619Y-48735363D01*
X50859999Y-48745682D01*
X50860000Y-48745682D01*
X50895329Y-48741030D01*
X50903428Y-48740500D01*
X82784738Y-48740500D01*
X82851777Y-48760185D01*
X82876884Y-48781523D01*
X82914129Y-48822888D01*
X82914133Y-48822892D01*
X82914135Y-48822893D01*
X83067265Y-48934148D01*
X83067270Y-48934151D01*
X83240192Y-49011142D01*
X83240197Y-49011144D01*
X83425354Y-49050500D01*
X83425355Y-49050500D01*
X83614644Y-49050500D01*
X83614646Y-49050500D01*
X83799803Y-49011144D01*
X83972730Y-48934151D01*
X84125871Y-48822888D01*
X84252533Y-48682216D01*
X84347179Y-48518284D01*
X84405674Y-48338256D01*
X84425460Y-48150000D01*
X84405674Y-47961744D01*
X84347179Y-47781716D01*
X84252533Y-47617784D01*
X84125871Y-47477112D01*
X84125863Y-47477106D01*
X83972734Y-47365851D01*
X83972729Y-47365848D01*
X83799807Y-47288857D01*
X83799802Y-47288855D01*
X83625184Y-47251740D01*
X83614646Y-47249500D01*
X83425354Y-47249500D01*
X83414816Y-47251740D01*
X83240197Y-47288855D01*
X83240192Y-47288857D01*
X83067270Y-47365848D01*
X83067265Y-47365851D01*
X82914135Y-47477106D01*
X82914128Y-47477112D01*
X82894895Y-47498473D01*
X82835408Y-47535121D01*
X82802746Y-47539500D01*
X70465468Y-47539500D01*
X70398429Y-47519815D01*
X70352674Y-47467011D01*
X70342730Y-47397853D01*
X70347537Y-47377182D01*
X70351220Y-47365848D01*
X70405674Y-47198256D01*
X70425460Y-47010000D01*
X70405674Y-46821744D01*
X70347179Y-46641716D01*
X70252533Y-46477784D01*
X70125871Y-46337112D01*
X70125870Y-46337111D01*
X69972734Y-46225851D01*
X69972729Y-46225848D01*
X69799807Y-46148857D01*
X69799803Y-46148856D01*
X69734670Y-46135011D01*
X69673188Y-46101818D01*
X69672771Y-46101402D01*
X69604477Y-46033108D01*
X69592694Y-46019473D01*
X69578365Y-46000226D01*
X69578363Y-46000224D01*
X69578362Y-46000223D01*
X69578360Y-46000220D01*
X69538337Y-45966636D01*
X69534362Y-45962994D01*
X69531440Y-45960072D01*
X69528530Y-45957161D01*
X69502790Y-45936809D01*
X69443959Y-45887444D01*
X69437930Y-45883479D01*
X69437962Y-45883430D01*
X69431603Y-45879378D01*
X69431572Y-45879429D01*
X69425430Y-45875641D01*
X69425428Y-45875640D01*
X69425427Y-45875639D01*
X69386224Y-45857358D01*
X69355808Y-45843174D01*
X69321644Y-45826017D01*
X69287183Y-45808710D01*
X69287181Y-45808709D01*
X69287180Y-45808709D01*
X69280395Y-45806239D01*
X69280415Y-45806183D01*
X69273299Y-45803709D01*
X69273281Y-45803765D01*
X69266421Y-45801492D01*
X69238591Y-45795746D01*
X69191184Y-45785957D01*
X69142222Y-45774353D01*
X69116469Y-45768249D01*
X69109297Y-45767411D01*
X69109303Y-45767351D01*
X69101805Y-45766585D01*
X69101800Y-45766645D01*
X69094610Y-45766015D01*
X69017833Y-45768250D01*
X64834955Y-45768250D01*
X64816985Y-45766941D01*
X64793222Y-45763460D01*
X64748140Y-45767405D01*
X64741183Y-45768014D01*
X64735782Y-45768250D01*
X64727537Y-45768250D01*
X64701472Y-45771296D01*
X64694955Y-45772058D01*
X64689653Y-45772521D01*
X64618451Y-45778751D01*
X64611384Y-45780211D01*
X64611372Y-45780154D01*
X64604003Y-45781788D01*
X64604017Y-45781845D01*
X64596989Y-45783510D01*
X64527755Y-45808709D01*
X64524818Y-45809778D01*
X64451915Y-45833936D01*
X64451913Y-45833936D01*
X64451910Y-45833938D01*
X64445373Y-45836986D01*
X64445348Y-45836934D01*
X64438560Y-45840220D01*
X64438586Y-45840271D01*
X64432135Y-45843511D01*
X64367973Y-45885711D01*
X64302596Y-45926035D01*
X64296932Y-45930515D01*
X64296896Y-45930469D01*
X64291048Y-45935234D01*
X64291085Y-45935278D01*
X64285560Y-45939914D01*
X64232864Y-45995767D01*
X63697228Y-46531402D01*
X63635905Y-46564887D01*
X63635329Y-46565011D01*
X63570196Y-46578856D01*
X63570192Y-46578857D01*
X63397270Y-46655848D01*
X63397265Y-46655851D01*
X63244129Y-46767111D01*
X63117466Y-46907785D01*
X63022821Y-47071715D01*
X63022818Y-47071722D01*
X62965055Y-47249500D01*
X62964326Y-47251744D01*
X62945753Y-47428462D01*
X62919168Y-47493076D01*
X62861871Y-47533061D01*
X62822432Y-47539500D01*
X51160097Y-47539500D01*
X51093058Y-47519815D01*
X51072416Y-47503181D01*
X50711779Y-47142544D01*
X50678294Y-47081221D01*
X50675460Y-47054863D01*
X50675460Y-47050002D01*
X50675460Y-47050000D01*
X50655674Y-46861744D01*
X50597179Y-46681716D01*
X50502533Y-46517784D01*
X50375871Y-46377112D01*
X50320816Y-46337112D01*
X50222734Y-46265851D01*
X50222729Y-46265848D01*
X50049807Y-46188857D01*
X50049802Y-46188855D01*
X49904001Y-46157865D01*
X49864646Y-46149500D01*
X49675354Y-46149500D01*
X49643866Y-46156193D01*
X49490197Y-46188855D01*
X49490192Y-46188857D01*
X49317270Y-46265848D01*
X49317265Y-46265851D01*
X49164129Y-46377111D01*
X49037466Y-46517785D01*
X48942821Y-46681715D01*
X48942818Y-46681722D01*
X48884327Y-46861740D01*
X48884326Y-46861744D01*
X48864540Y-47050000D01*
X45290625Y-47050000D01*
X45290625Y-45970062D01*
X45294849Y-45937973D01*
X45301708Y-45912371D01*
X45309101Y-45892058D01*
X45311253Y-45887444D01*
X45373557Y-45753822D01*
X45384364Y-45735104D01*
X45431572Y-45667682D01*
X45471856Y-45610148D01*
X45485740Y-45593602D01*
X45593602Y-45485740D01*
X45610148Y-45471856D01*
X45735107Y-45384362D01*
X45753824Y-45373557D01*
X45826855Y-45339504D01*
X45892061Y-45309099D01*
X45912366Y-45301709D01*
X46059716Y-45262232D01*
X46080983Y-45258482D01*
X46172163Y-45250509D01*
X46241059Y-45244486D01*
X46246462Y-45244250D01*
X58530750Y-45244250D01*
X58531250Y-45244250D01*
X58618784Y-45244254D01*
X58791192Y-45213861D01*
X58955703Y-45153989D01*
X59107318Y-45066458D01*
X59241428Y-44953928D01*
X59353958Y-44819818D01*
X59441489Y-44668203D01*
X59501361Y-44503692D01*
X59531754Y-44331284D01*
X59531750Y-44243750D01*
X59531750Y-44243250D01*
X59531750Y-41952229D01*
X61324500Y-41952229D01*
X61339699Y-42106557D01*
X61339700Y-42106559D01*
X61399768Y-42304579D01*
X61497315Y-42487075D01*
X61497317Y-42487077D01*
X61628589Y-42647035D01*
X61725209Y-42726327D01*
X61788550Y-42778310D01*
X61971046Y-42875857D01*
X62169066Y-42935925D01*
X62169065Y-42935925D01*
X62187529Y-42937743D01*
X62375000Y-42956208D01*
X62580934Y-42935925D01*
X62778954Y-42875857D01*
X62961450Y-42778310D01*
X63121410Y-42647035D01*
X63252685Y-42487075D01*
X63350232Y-42304579D01*
X63410300Y-42106559D01*
X63425500Y-41952233D01*
X63425499Y-41459209D01*
X63445185Y-41392171D01*
X63497989Y-41346416D01*
X63567147Y-41336472D01*
X63596948Y-41344648D01*
X63634764Y-41360312D01*
X63747280Y-41375125D01*
X63747287Y-41375125D01*
X63822713Y-41375125D01*
X63822720Y-41375125D01*
X63935236Y-41360312D01*
X64075233Y-41302323D01*
X64195451Y-41210076D01*
X64287698Y-41089858D01*
X64345687Y-40949861D01*
X64365466Y-40799625D01*
X68984534Y-40799625D01*
X69004312Y-40949859D01*
X69004313Y-40949861D01*
X69062302Y-41089858D01*
X69154549Y-41210076D01*
X69274767Y-41302323D01*
X69414764Y-41360312D01*
X69527280Y-41375125D01*
X69527287Y-41375125D01*
X69602713Y-41375125D01*
X69602720Y-41375125D01*
X69715236Y-41360312D01*
X69753047Y-41344649D01*
X69822515Y-41337180D01*
X69884994Y-41368454D01*
X69920648Y-41428542D01*
X69924500Y-41459210D01*
X69924500Y-41952229D01*
X69939699Y-42106557D01*
X69939700Y-42106559D01*
X69999768Y-42304579D01*
X70097315Y-42487075D01*
X70097317Y-42487077D01*
X70228589Y-42647035D01*
X70325209Y-42726327D01*
X70388550Y-42778310D01*
X70571046Y-42875857D01*
X70769066Y-42935925D01*
X70769065Y-42935925D01*
X70787529Y-42937743D01*
X70975000Y-42956208D01*
X71180934Y-42935925D01*
X71378954Y-42875857D01*
X71561450Y-42778310D01*
X71721410Y-42647035D01*
X71852685Y-42487075D01*
X71950232Y-42304579D01*
X72010300Y-42106559D01*
X72025500Y-41952233D01*
X72025500Y-40749017D01*
X72010300Y-40594691D01*
X71950232Y-40396671D01*
X71852685Y-40214175D01*
X71800702Y-40150834D01*
X71721410Y-40054214D01*
X71561452Y-39922942D01*
X71561453Y-39922942D01*
X71561450Y-39922940D01*
X71378954Y-39825393D01*
X71180934Y-39765325D01*
X71180932Y-39765324D01*
X71180934Y-39765324D01*
X70975000Y-39745042D01*
X70769067Y-39765324D01*
X70571043Y-39825394D01*
X70460898Y-39884268D01*
X70388550Y-39922940D01*
X70388548Y-39922941D01*
X70388547Y-39922942D01*
X70228589Y-40054214D01*
X70097315Y-40214173D01*
X70064431Y-40275694D01*
X70015468Y-40325538D01*
X69947330Y-40340997D01*
X69881651Y-40317164D01*
X69879588Y-40315615D01*
X69855233Y-40296927D01*
X69855230Y-40296925D01*
X69764731Y-40259439D01*
X69715236Y-40238938D01*
X69701171Y-40237086D01*
X69602727Y-40224125D01*
X69602720Y-40224125D01*
X69527280Y-40224125D01*
X69527272Y-40224125D01*
X69414764Y-40238938D01*
X69414763Y-40238938D01*
X69274770Y-40296925D01*
X69274767Y-40296926D01*
X69274767Y-40296927D01*
X69217579Y-40340809D01*
X69154549Y-40389174D01*
X69062300Y-40509395D01*
X69004313Y-40649388D01*
X69004312Y-40649390D01*
X68984534Y-40799624D01*
X68984534Y-40799625D01*
X64365466Y-40799625D01*
X64345687Y-40649389D01*
X64287698Y-40509392D01*
X64195451Y-40389174D01*
X64075233Y-40296927D01*
X64075229Y-40296925D01*
X64011801Y-40270652D01*
X63935236Y-40238938D01*
X63921171Y-40237086D01*
X63822727Y-40224125D01*
X63822720Y-40224125D01*
X63747280Y-40224125D01*
X63747272Y-40224125D01*
X63634764Y-40238938D01*
X63634763Y-40238938D01*
X63494769Y-40296925D01*
X63494762Y-40296929D01*
X63470409Y-40315616D01*
X63405240Y-40340809D01*
X63336795Y-40326769D01*
X63286806Y-40277955D01*
X63285567Y-40275693D01*
X63252685Y-40214175D01*
X63200702Y-40150834D01*
X63121410Y-40054214D01*
X62961452Y-39922942D01*
X62961453Y-39922942D01*
X62961450Y-39922940D01*
X62778954Y-39825393D01*
X62580934Y-39765325D01*
X62580932Y-39765324D01*
X62580934Y-39765324D01*
X62393463Y-39746860D01*
X62375000Y-39745042D01*
X62374999Y-39745042D01*
X62169067Y-39765324D01*
X61971043Y-39825394D01*
X61860898Y-39884268D01*
X61788550Y-39922940D01*
X61788548Y-39922941D01*
X61788547Y-39922942D01*
X61628589Y-40054214D01*
X61497317Y-40214172D01*
X61399769Y-40396668D01*
X61339699Y-40594692D01*
X61324500Y-40749020D01*
X61324500Y-41952229D01*
X59531750Y-41952229D01*
X59531750Y-36721461D01*
X59531986Y-36716058D01*
X59538783Y-36638315D01*
X59545982Y-36555983D01*
X59549732Y-36534716D01*
X59589209Y-36387366D01*
X59596601Y-36367058D01*
X59630531Y-36294292D01*
X59661057Y-36228822D01*
X59671864Y-36210104D01*
X59759356Y-36085148D01*
X59773240Y-36068602D01*
X59881102Y-35960740D01*
X59897648Y-35946856D01*
X60022605Y-35859363D01*
X60041324Y-35848557D01*
X60179561Y-35784099D01*
X60199866Y-35776709D01*
X60347216Y-35737232D01*
X60368483Y-35733482D01*
X60459663Y-35725509D01*
X60528559Y-35719486D01*
X60533962Y-35719250D01*
X61588234Y-35719250D01*
X61655273Y-35738935D01*
G37*
%TD.AperFunction*%
%TA.AperFunction,Conductor*%
G36*
X67060780Y-59889685D02*
G01*
X67085879Y-59911014D01*
X67087638Y-59912967D01*
X67117877Y-59975955D01*
X67119500Y-59995953D01*
X67119500Y-61864389D01*
X67118969Y-61872491D01*
X67114318Y-61907817D01*
X67114318Y-61907818D01*
X67119500Y-61947178D01*
X67134955Y-62064578D01*
X67134956Y-62064580D01*
X67191163Y-62200277D01*
X67195464Y-62210659D01*
X67291718Y-62336100D01*
X67319995Y-62357798D01*
X67326085Y-62363138D01*
X69530731Y-64567784D01*
X71656851Y-66693904D01*
X71662202Y-66700005D01*
X71683900Y-66728282D01*
X71763707Y-66789520D01*
X71809341Y-66824536D01*
X71955420Y-66885044D01*
X72033800Y-66895363D01*
X72112181Y-66905682D01*
X72112182Y-66905682D01*
X72147511Y-66901030D01*
X72155610Y-66900500D01*
X77243742Y-66900500D01*
X77310781Y-66920185D01*
X77335891Y-66941527D01*
X77364128Y-66972887D01*
X77364135Y-66972893D01*
X77517265Y-67084148D01*
X77517270Y-67084151D01*
X77690192Y-67161142D01*
X77690197Y-67161144D01*
X77875354Y-67200500D01*
X77875355Y-67200500D01*
X78064644Y-67200500D01*
X78064646Y-67200500D01*
X78249803Y-67161144D01*
X78422730Y-67084151D01*
X78575871Y-66972888D01*
X78702533Y-66832216D01*
X78797179Y-66668284D01*
X78855674Y-66488256D01*
X78875460Y-66300000D01*
X78855674Y-66111744D01*
X78797179Y-65931716D01*
X78702533Y-65767784D01*
X78575871Y-65627112D01*
X78575863Y-65627106D01*
X78422734Y-65515851D01*
X78422729Y-65515848D01*
X78249807Y-65438857D01*
X78249802Y-65438855D01*
X78104000Y-65407865D01*
X78064646Y-65399500D01*
X77875354Y-65399500D01*
X77842897Y-65406398D01*
X77690197Y-65438855D01*
X77690192Y-65438857D01*
X77517270Y-65515848D01*
X77517265Y-65515851D01*
X77364135Y-65627106D01*
X77364128Y-65627112D01*
X77335891Y-65658473D01*
X77276405Y-65695121D01*
X77243742Y-65699500D01*
X72412279Y-65699500D01*
X72345240Y-65679815D01*
X72324598Y-65663181D01*
X71813598Y-65152181D01*
X71780113Y-65090858D01*
X71785097Y-65021166D01*
X71826969Y-64965233D01*
X71892433Y-64940816D01*
X71901279Y-64940500D01*
X75790663Y-64940500D01*
X75857702Y-64960185D01*
X75863548Y-64964182D01*
X75877265Y-64974148D01*
X75877270Y-64974151D01*
X76050192Y-65051142D01*
X76050197Y-65051144D01*
X76235354Y-65090500D01*
X76235355Y-65090500D01*
X76424644Y-65090500D01*
X76424646Y-65090500D01*
X76609803Y-65051144D01*
X76782730Y-64974151D01*
X76795005Y-64965233D01*
X76796452Y-64964182D01*
X76862258Y-64940702D01*
X76869337Y-64940500D01*
X79892279Y-64940500D01*
X94749413Y-64940500D01*
X94816452Y-64960185D01*
X94822298Y-64964182D01*
X94836015Y-64974148D01*
X94836020Y-64974151D01*
X95008942Y-65051142D01*
X95008947Y-65051144D01*
X95194104Y-65090500D01*
X95194117Y-65090500D01*
X95194502Y-65090541D01*
X95194720Y-65090630D01*
X95200461Y-65091851D01*
X95200237Y-65092901D01*
X95259116Y-65117127D01*
X95299100Y-65174424D01*
X95301759Y-65244244D01*
X95269220Y-65301543D01*
X94537584Y-66033181D01*
X94476261Y-66066666D01*
X94449903Y-66069500D01*
X94355354Y-66069500D01*
X94322897Y-66076398D01*
X94170197Y-66108855D01*
X94170192Y-66108857D01*
X93997270Y-66185848D01*
X93997265Y-66185851D01*
X93844129Y-66297111D01*
X93717466Y-66437785D01*
X93622821Y-66601715D01*
X93622818Y-66601722D01*
X93564327Y-66781740D01*
X93564326Y-66781744D01*
X93544540Y-66970000D01*
X93564326Y-67158256D01*
X93564327Y-67158259D01*
X93622818Y-67338277D01*
X93622821Y-67338284D01*
X93717467Y-67502216D01*
X93797733Y-67591360D01*
X93816793Y-67612528D01*
X93847023Y-67675519D01*
X93838398Y-67744854D01*
X93793657Y-67798520D01*
X93727004Y-67819478D01*
X93724643Y-67819500D01*
X88823477Y-67819500D01*
X88815379Y-67818969D01*
X88793257Y-67816056D01*
X88780051Y-67814318D01*
X88780047Y-67814318D01*
X88601961Y-67837762D01*
X88601154Y-67838910D01*
X88571381Y-67856456D01*
X88497674Y-67886986D01*
X88477212Y-67895463D01*
X88477207Y-67895465D01*
X88414117Y-67943876D01*
X88348948Y-67969070D01*
X88338631Y-67969500D01*
X73050047Y-67969500D01*
X72983008Y-67949815D01*
X72962366Y-67933181D01*
X72719000Y-67689815D01*
X72455270Y-67426085D01*
X72449930Y-67419995D01*
X72428232Y-67391718D01*
X72302791Y-67295464D01*
X72300688Y-67294593D01*
X72156712Y-67234956D01*
X72156710Y-67234955D01*
X72039311Y-67219500D01*
X71999950Y-67214318D01*
X71964620Y-67218969D01*
X71956522Y-67219500D01*
X71163434Y-67219500D01*
X71155334Y-67218969D01*
X71120000Y-67214317D01*
X71119999Y-67214317D01*
X70963238Y-67234955D01*
X70817157Y-67295464D01*
X70691720Y-67391715D01*
X70670024Y-67419989D01*
X70664672Y-67426091D01*
X70535724Y-67555041D01*
X70474401Y-67588526D01*
X70448042Y-67591360D01*
X70353494Y-67591360D01*
X70321037Y-67598258D01*
X70168337Y-67630715D01*
X70168332Y-67630717D01*
X70015466Y-67698779D01*
X69965030Y-67709500D01*
X68200097Y-67709500D01*
X68133058Y-67689815D01*
X68112416Y-67673181D01*
X63718179Y-63278943D01*
X63684694Y-63217620D01*
X63689678Y-63147928D01*
X63713709Y-63108291D01*
X63779272Y-63035477D01*
X63873918Y-62871545D01*
X63932413Y-62691517D01*
X63952199Y-62503261D01*
X63952198Y-62503251D01*
X63952198Y-62498408D01*
X63971877Y-62431367D01*
X63988512Y-62410721D01*
X64373721Y-62025513D01*
X64435045Y-61992028D01*
X64461403Y-61989194D01*
X64555244Y-61989194D01*
X64555246Y-61989194D01*
X64740403Y-61949838D01*
X64913330Y-61872845D01*
X65066471Y-61761582D01*
X65193133Y-61620910D01*
X65287779Y-61456978D01*
X65346274Y-61276950D01*
X65366060Y-61088694D01*
X65346274Y-60900438D01*
X65287779Y-60720410D01*
X65193133Y-60556478D01*
X65110623Y-60464842D01*
X65080394Y-60401852D01*
X65089019Y-60332517D01*
X65115090Y-60294193D01*
X65502965Y-59906319D01*
X65564289Y-59872834D01*
X65590647Y-59870000D01*
X66993741Y-59870000D01*
X67060780Y-59889685D01*
G37*
%TD.AperFunction*%
%TD*%
M02*
