%TF.GenerationSoftware,KiCad,Pcbnew,7.0.7*%
%TF.CreationDate,2024-01-12T23:19:41+09:00*%
%TF.ProjectId,Skeleton8,536b656c-6574-46f6-9e38-2e6b69636164,rev?*%
%TF.SameCoordinates,Original*%
%TF.FileFunction,Legend,Bot*%
%TF.FilePolarity,Positive*%
%FSLAX46Y46*%
G04 Gerber Fmt 4.6, Leading zero omitted, Abs format (unit mm)*
G04 Created by KiCad (PCBNEW 7.0.7) date 2024-01-12 23:19:41*
%MOMM*%
%LPD*%
G01*
G04 APERTURE LIST*
G04 Aperture macros list*
%AMRoundRect*
0 Rectangle with rounded corners*
0 $1 Rounding radius*
0 $2 $3 $4 $5 $6 $7 $8 $9 X,Y pos of 4 corners*
0 Add a 4 corners polygon primitive as box body*
4,1,4,$2,$3,$4,$5,$6,$7,$8,$9,$2,$3,0*
0 Add four circle primitives for the rounded corners*
1,1,$1+$1,$2,$3*
1,1,$1+$1,$4,$5*
1,1,$1+$1,$6,$7*
1,1,$1+$1,$8,$9*
0 Add four rect primitives between the rounded corners*
20,1,$1+$1,$2,$3,$4,$5,0*
20,1,$1+$1,$4,$5,$6,$7,0*
20,1,$1+$1,$6,$7,$8,$9,0*
20,1,$1+$1,$8,$9,$2,$3,0*%
%AMRotRect*
0 Rectangle, with rotation*
0 The origin of the aperture is its center*
0 $1 length*
0 $2 width*
0 $3 Rotation angle, in degrees counterclockwise*
0 Add horizontal line*
21,1,$1,$2,0,0,$3*%
G04 Aperture macros list end*
%ADD10C,0.150000*%
%ADD11C,0.160000*%
%ADD12C,0.100000*%
%ADD13C,0.120000*%
%ADD14C,1.300000*%
%ADD15C,1.701800*%
%ADD16C,3.000000*%
%ADD17C,3.987800*%
%ADD18RoundRect,0.200000X1.075000X1.050000X-1.075000X1.050000X-1.075000X-1.050000X1.075000X-1.050000X0*%
%ADD19RoundRect,0.140000X0.140000X0.170000X-0.140000X0.170000X-0.140000X-0.170000X0.140000X-0.170000X0*%
%ADD20RoundRect,0.135000X0.135000X0.185000X-0.135000X0.185000X-0.135000X-0.185000X0.135000X-0.185000X0*%
%ADD21RoundRect,0.175000X-0.175000X-0.175000X0.175000X-0.175000X0.175000X0.175000X-0.175000X0.175000X0*%
%ADD22R,0.700000X0.700000*%
%ADD23R,1.400000X2.300000*%
%ADD24RoundRect,0.175000X0.175000X0.175000X-0.175000X0.175000X-0.175000X-0.175000X0.175000X-0.175000X0*%
%ADD25RoundRect,0.200000X0.200000X0.275000X-0.200000X0.275000X-0.200000X-0.275000X0.200000X-0.275000X0*%
%ADD26RoundRect,0.140000X-0.170000X0.140000X-0.170000X-0.140000X0.170000X-0.140000X0.170000X0.140000X0*%
%ADD27RoundRect,0.140000X-0.140000X-0.170000X0.140000X-0.170000X0.140000X0.170000X-0.140000X0.170000X0*%
%ADD28RoundRect,0.140000X0.170000X-0.140000X0.170000X0.140000X-0.170000X0.140000X-0.170000X-0.140000X0*%
%ADD29RoundRect,0.050000X0.238649X0.309359X-0.309359X-0.238649X-0.238649X-0.309359X0.309359X0.238649X0*%
%ADD30RoundRect,0.050000X-0.238649X0.309359X-0.309359X0.238649X0.238649X-0.309359X0.309359X-0.238649X0*%
%ADD31RotRect,3.200000X3.200000X225.000000*%
%ADD32RoundRect,0.150000X0.150000X-0.512500X0.150000X0.512500X-0.150000X0.512500X-0.150000X-0.512500X0*%
%ADD33RoundRect,0.135000X0.185000X-0.135000X0.185000X0.135000X-0.185000X0.135000X-0.185000X-0.135000X0*%
%ADD34RoundRect,0.150000X-0.150000X0.587500X-0.150000X-0.587500X0.150000X-0.587500X0.150000X0.587500X0*%
%ADD35RoundRect,0.135000X-0.135000X-0.185000X0.135000X-0.185000X0.135000X0.185000X-0.135000X0.185000X0*%
%ADD36RoundRect,0.200000X-0.275000X0.200000X-0.275000X-0.200000X0.275000X-0.200000X0.275000X0.200000X0*%
%ADD37RoundRect,0.337500X-0.562500X0.337500X-0.562500X-0.337500X0.562500X-0.337500X0.562500X0.337500X0*%
%ADD38RoundRect,0.250000X-0.375000X-0.625000X0.375000X-0.625000X0.375000X0.625000X-0.375000X0.625000X0*%
%ADD39RoundRect,0.200000X-0.200000X-0.275000X0.200000X-0.275000X0.200000X0.275000X-0.200000X0.275000X0*%
%ADD40R,1.200000X1.400000*%
%ADD41RoundRect,0.150000X-0.650000X-0.150000X0.650000X-0.150000X0.650000X0.150000X-0.650000X0.150000X0*%
%ADD42C,0.650000*%
%ADD43RoundRect,0.150000X-0.150000X-0.575000X0.150000X-0.575000X0.150000X0.575000X-0.150000X0.575000X0*%
%ADD44RoundRect,0.075000X-0.075000X-0.650000X0.075000X-0.650000X0.075000X0.650000X-0.075000X0.650000X0*%
%ADD45O,1.300000X1.900000*%
%ADD46O,1.100000X2.200000*%
G04 APERTURE END LIST*
D10*
X106218042Y-86653569D02*
X106551375Y-86177378D01*
X106789470Y-86653569D02*
X106789470Y-85653569D01*
X106789470Y-85653569D02*
X106408518Y-85653569D01*
X106408518Y-85653569D02*
X106313280Y-85701188D01*
X106313280Y-85701188D02*
X106265661Y-85748807D01*
X106265661Y-85748807D02*
X106218042Y-85844045D01*
X106218042Y-85844045D02*
X106218042Y-85986902D01*
X106218042Y-85986902D02*
X106265661Y-86082140D01*
X106265661Y-86082140D02*
X106313280Y-86129759D01*
X106313280Y-86129759D02*
X106408518Y-86177378D01*
X106408518Y-86177378D02*
X106789470Y-86177378D01*
X105789470Y-86129759D02*
X105456137Y-86129759D01*
X105313280Y-86653569D02*
X105789470Y-86653569D01*
X105789470Y-86653569D02*
X105789470Y-85653569D01*
X105789470Y-85653569D02*
X105313280Y-85653569D01*
X104932327Y-86605950D02*
X104789470Y-86653569D01*
X104789470Y-86653569D02*
X104551375Y-86653569D01*
X104551375Y-86653569D02*
X104456137Y-86605950D01*
X104456137Y-86605950D02*
X104408518Y-86558330D01*
X104408518Y-86558330D02*
X104360899Y-86463092D01*
X104360899Y-86463092D02*
X104360899Y-86367854D01*
X104360899Y-86367854D02*
X104408518Y-86272616D01*
X104408518Y-86272616D02*
X104456137Y-86224997D01*
X104456137Y-86224997D02*
X104551375Y-86177378D01*
X104551375Y-86177378D02*
X104741851Y-86129759D01*
X104741851Y-86129759D02*
X104837089Y-86082140D01*
X104837089Y-86082140D02*
X104884708Y-86034521D01*
X104884708Y-86034521D02*
X104932327Y-85939283D01*
X104932327Y-85939283D02*
X104932327Y-85844045D01*
X104932327Y-85844045D02*
X104884708Y-85748807D01*
X104884708Y-85748807D02*
X104837089Y-85701188D01*
X104837089Y-85701188D02*
X104741851Y-85653569D01*
X104741851Y-85653569D02*
X104503756Y-85653569D01*
X104503756Y-85653569D02*
X104360899Y-85701188D01*
X103932327Y-86129759D02*
X103598994Y-86129759D01*
X103456137Y-86653569D02*
X103932327Y-86653569D01*
X103932327Y-86653569D02*
X103932327Y-85653569D01*
X103932327Y-85653569D02*
X103456137Y-85653569D01*
X103170422Y-85653569D02*
X102598994Y-85653569D01*
X102884708Y-86653569D02*
X102884708Y-85653569D01*
X68136137Y-86129759D02*
X67993280Y-86177378D01*
X67993280Y-86177378D02*
X67945661Y-86224997D01*
X67945661Y-86224997D02*
X67898042Y-86320235D01*
X67898042Y-86320235D02*
X67898042Y-86463092D01*
X67898042Y-86463092D02*
X67945661Y-86558330D01*
X67945661Y-86558330D02*
X67993280Y-86605950D01*
X67993280Y-86605950D02*
X68088518Y-86653569D01*
X68088518Y-86653569D02*
X68469470Y-86653569D01*
X68469470Y-86653569D02*
X68469470Y-85653569D01*
X68469470Y-85653569D02*
X68136137Y-85653569D01*
X68136137Y-85653569D02*
X68040899Y-85701188D01*
X68040899Y-85701188D02*
X67993280Y-85748807D01*
X67993280Y-85748807D02*
X67945661Y-85844045D01*
X67945661Y-85844045D02*
X67945661Y-85939283D01*
X67945661Y-85939283D02*
X67993280Y-86034521D01*
X67993280Y-86034521D02*
X68040899Y-86082140D01*
X68040899Y-86082140D02*
X68136137Y-86129759D01*
X68136137Y-86129759D02*
X68469470Y-86129759D01*
X67278994Y-85653569D02*
X67088518Y-85653569D01*
X67088518Y-85653569D02*
X66993280Y-85701188D01*
X66993280Y-85701188D02*
X66898042Y-85796426D01*
X66898042Y-85796426D02*
X66850423Y-85986902D01*
X66850423Y-85986902D02*
X66850423Y-86320235D01*
X66850423Y-86320235D02*
X66898042Y-86510711D01*
X66898042Y-86510711D02*
X66993280Y-86605950D01*
X66993280Y-86605950D02*
X67088518Y-86653569D01*
X67088518Y-86653569D02*
X67278994Y-86653569D01*
X67278994Y-86653569D02*
X67374232Y-86605950D01*
X67374232Y-86605950D02*
X67469470Y-86510711D01*
X67469470Y-86510711D02*
X67517089Y-86320235D01*
X67517089Y-86320235D02*
X67517089Y-85986902D01*
X67517089Y-85986902D02*
X67469470Y-85796426D01*
X67469470Y-85796426D02*
X67374232Y-85701188D01*
X67374232Y-85701188D02*
X67278994Y-85653569D01*
X66231375Y-85653569D02*
X66040899Y-85653569D01*
X66040899Y-85653569D02*
X65945661Y-85701188D01*
X65945661Y-85701188D02*
X65850423Y-85796426D01*
X65850423Y-85796426D02*
X65802804Y-85986902D01*
X65802804Y-85986902D02*
X65802804Y-86320235D01*
X65802804Y-86320235D02*
X65850423Y-86510711D01*
X65850423Y-86510711D02*
X65945661Y-86605950D01*
X65945661Y-86605950D02*
X66040899Y-86653569D01*
X66040899Y-86653569D02*
X66231375Y-86653569D01*
X66231375Y-86653569D02*
X66326613Y-86605950D01*
X66326613Y-86605950D02*
X66421851Y-86510711D01*
X66421851Y-86510711D02*
X66469470Y-86320235D01*
X66469470Y-86320235D02*
X66469470Y-85986902D01*
X66469470Y-85986902D02*
X66421851Y-85796426D01*
X66421851Y-85796426D02*
X66326613Y-85701188D01*
X66326613Y-85701188D02*
X66231375Y-85653569D01*
X65517089Y-85653569D02*
X64945661Y-85653569D01*
X65231375Y-86653569D02*
X65231375Y-85653569D01*
X120636607Y-65563330D02*
X120684226Y-65610950D01*
X120684226Y-65610950D02*
X120827083Y-65658569D01*
X120827083Y-65658569D02*
X120922321Y-65658569D01*
X120922321Y-65658569D02*
X121065178Y-65610950D01*
X121065178Y-65610950D02*
X121160416Y-65515711D01*
X121160416Y-65515711D02*
X121208035Y-65420473D01*
X121208035Y-65420473D02*
X121255654Y-65229997D01*
X121255654Y-65229997D02*
X121255654Y-65087140D01*
X121255654Y-65087140D02*
X121208035Y-64896664D01*
X121208035Y-64896664D02*
X121160416Y-64801426D01*
X121160416Y-64801426D02*
X121065178Y-64706188D01*
X121065178Y-64706188D02*
X120922321Y-64658569D01*
X120922321Y-64658569D02*
X120827083Y-64658569D01*
X120827083Y-64658569D02*
X120684226Y-64706188D01*
X120684226Y-64706188D02*
X120636607Y-64753807D01*
X119684226Y-65658569D02*
X120255654Y-65658569D01*
X119969940Y-65658569D02*
X119969940Y-64658569D01*
X119969940Y-64658569D02*
X120065178Y-64801426D01*
X120065178Y-64801426D02*
X120160416Y-64896664D01*
X120160416Y-64896664D02*
X120255654Y-64944283D01*
X119303273Y-64753807D02*
X119255654Y-64706188D01*
X119255654Y-64706188D02*
X119160416Y-64658569D01*
X119160416Y-64658569D02*
X118922321Y-64658569D01*
X118922321Y-64658569D02*
X118827083Y-64706188D01*
X118827083Y-64706188D02*
X118779464Y-64753807D01*
X118779464Y-64753807D02*
X118731845Y-64849045D01*
X118731845Y-64849045D02*
X118731845Y-64944283D01*
X118731845Y-64944283D02*
X118779464Y-65087140D01*
X118779464Y-65087140D02*
X119350892Y-65658569D01*
X119350892Y-65658569D02*
X118731845Y-65658569D01*
X76816607Y-65718569D02*
X77149940Y-65242378D01*
X77388035Y-65718569D02*
X77388035Y-64718569D01*
X77388035Y-64718569D02*
X77007083Y-64718569D01*
X77007083Y-64718569D02*
X76911845Y-64766188D01*
X76911845Y-64766188D02*
X76864226Y-64813807D01*
X76864226Y-64813807D02*
X76816607Y-64909045D01*
X76816607Y-64909045D02*
X76816607Y-65051902D01*
X76816607Y-65051902D02*
X76864226Y-65147140D01*
X76864226Y-65147140D02*
X76911845Y-65194759D01*
X76911845Y-65194759D02*
X77007083Y-65242378D01*
X77007083Y-65242378D02*
X77388035Y-65242378D01*
X75864226Y-65718569D02*
X76435654Y-65718569D01*
X76149940Y-65718569D02*
X76149940Y-64718569D01*
X76149940Y-64718569D02*
X76245178Y-64861426D01*
X76245178Y-64861426D02*
X76340416Y-64956664D01*
X76340416Y-64956664D02*
X76435654Y-65004283D01*
X75530892Y-64718569D02*
X74864226Y-64718569D01*
X74864226Y-64718569D02*
X75292797Y-65718569D01*
D11*
X86658332Y-49764775D02*
X86924999Y-49383822D01*
X87115475Y-49764775D02*
X87115475Y-48964775D01*
X87115475Y-48964775D02*
X86810713Y-48964775D01*
X86810713Y-48964775D02*
X86734523Y-49002870D01*
X86734523Y-49002870D02*
X86696428Y-49040965D01*
X86696428Y-49040965D02*
X86658332Y-49117156D01*
X86658332Y-49117156D02*
X86658332Y-49231441D01*
X86658332Y-49231441D02*
X86696428Y-49307632D01*
X86696428Y-49307632D02*
X86734523Y-49345727D01*
X86734523Y-49345727D02*
X86810713Y-49383822D01*
X86810713Y-49383822D02*
X87115475Y-49383822D01*
X85896428Y-49002870D02*
X85972618Y-48964775D01*
X85972618Y-48964775D02*
X86086904Y-48964775D01*
X86086904Y-48964775D02*
X86201190Y-49002870D01*
X86201190Y-49002870D02*
X86277380Y-49079060D01*
X86277380Y-49079060D02*
X86315475Y-49155251D01*
X86315475Y-49155251D02*
X86353571Y-49307632D01*
X86353571Y-49307632D02*
X86353571Y-49421918D01*
X86353571Y-49421918D02*
X86315475Y-49574299D01*
X86315475Y-49574299D02*
X86277380Y-49650489D01*
X86277380Y-49650489D02*
X86201190Y-49726680D01*
X86201190Y-49726680D02*
X86086904Y-49764775D01*
X86086904Y-49764775D02*
X86010713Y-49764775D01*
X86010713Y-49764775D02*
X85896428Y-49726680D01*
X85896428Y-49726680D02*
X85858332Y-49688584D01*
X85858332Y-49688584D02*
X85858332Y-49421918D01*
X85858332Y-49421918D02*
X86010713Y-49421918D01*
X85248809Y-49345727D02*
X85134523Y-49383822D01*
X85134523Y-49383822D02*
X85096428Y-49421918D01*
X85096428Y-49421918D02*
X85058332Y-49498108D01*
X85058332Y-49498108D02*
X85058332Y-49612394D01*
X85058332Y-49612394D02*
X85096428Y-49688584D01*
X85096428Y-49688584D02*
X85134523Y-49726680D01*
X85134523Y-49726680D02*
X85210713Y-49764775D01*
X85210713Y-49764775D02*
X85515475Y-49764775D01*
X85515475Y-49764775D02*
X85515475Y-48964775D01*
X85515475Y-48964775D02*
X85248809Y-48964775D01*
X85248809Y-48964775D02*
X85172618Y-49002870D01*
X85172618Y-49002870D02*
X85134523Y-49040965D01*
X85134523Y-49040965D02*
X85096428Y-49117156D01*
X85096428Y-49117156D02*
X85096428Y-49193346D01*
X85096428Y-49193346D02*
X85134523Y-49269537D01*
X85134523Y-49269537D02*
X85172618Y-49307632D01*
X85172618Y-49307632D02*
X85248809Y-49345727D01*
X85248809Y-49345727D02*
X85515475Y-49345727D01*
X84753571Y-49040965D02*
X84715475Y-49002870D01*
X84715475Y-49002870D02*
X84639285Y-48964775D01*
X84639285Y-48964775D02*
X84448809Y-48964775D01*
X84448809Y-48964775D02*
X84372618Y-49002870D01*
X84372618Y-49002870D02*
X84334523Y-49040965D01*
X84334523Y-49040965D02*
X84296428Y-49117156D01*
X84296428Y-49117156D02*
X84296428Y-49193346D01*
X84296428Y-49193346D02*
X84334523Y-49307632D01*
X84334523Y-49307632D02*
X84791666Y-49764775D01*
X84791666Y-49764775D02*
X84296428Y-49764775D01*
D10*
X109890297Y-62383569D02*
X110366487Y-62383569D01*
X110366487Y-62383569D02*
X110366487Y-61383569D01*
X109556963Y-61859759D02*
X109223630Y-61859759D01*
X109080773Y-62383569D02*
X109556963Y-62383569D01*
X109556963Y-62383569D02*
X109556963Y-61383569D01*
X109556963Y-61383569D02*
X109080773Y-61383569D01*
X108652201Y-62383569D02*
X108652201Y-61383569D01*
X108652201Y-61383569D02*
X108414106Y-61383569D01*
X108414106Y-61383569D02*
X108271249Y-61431188D01*
X108271249Y-61431188D02*
X108176011Y-61526426D01*
X108176011Y-61526426D02*
X108128392Y-61621664D01*
X108128392Y-61621664D02*
X108080773Y-61812140D01*
X108080773Y-61812140D02*
X108080773Y-61954997D01*
X108080773Y-61954997D02*
X108128392Y-62145473D01*
X108128392Y-62145473D02*
X108176011Y-62240711D01*
X108176011Y-62240711D02*
X108271249Y-62335950D01*
X108271249Y-62335950D02*
X108414106Y-62383569D01*
X108414106Y-62383569D02*
X108652201Y-62383569D01*
X107223630Y-61716902D02*
X107223630Y-62383569D01*
X107461725Y-61335950D02*
X107699820Y-62050235D01*
X107699820Y-62050235D02*
X107080773Y-62050235D01*
D11*
X86658332Y-84308775D02*
X86924999Y-83927822D01*
X87115475Y-84308775D02*
X87115475Y-83508775D01*
X87115475Y-83508775D02*
X86810713Y-83508775D01*
X86810713Y-83508775D02*
X86734523Y-83546870D01*
X86734523Y-83546870D02*
X86696428Y-83584965D01*
X86696428Y-83584965D02*
X86658332Y-83661156D01*
X86658332Y-83661156D02*
X86658332Y-83775441D01*
X86658332Y-83775441D02*
X86696428Y-83851632D01*
X86696428Y-83851632D02*
X86734523Y-83889727D01*
X86734523Y-83889727D02*
X86810713Y-83927822D01*
X86810713Y-83927822D02*
X87115475Y-83927822D01*
X85896428Y-83546870D02*
X85972618Y-83508775D01*
X85972618Y-83508775D02*
X86086904Y-83508775D01*
X86086904Y-83508775D02*
X86201190Y-83546870D01*
X86201190Y-83546870D02*
X86277380Y-83623060D01*
X86277380Y-83623060D02*
X86315475Y-83699251D01*
X86315475Y-83699251D02*
X86353571Y-83851632D01*
X86353571Y-83851632D02*
X86353571Y-83965918D01*
X86353571Y-83965918D02*
X86315475Y-84118299D01*
X86315475Y-84118299D02*
X86277380Y-84194489D01*
X86277380Y-84194489D02*
X86201190Y-84270680D01*
X86201190Y-84270680D02*
X86086904Y-84308775D01*
X86086904Y-84308775D02*
X86010713Y-84308775D01*
X86010713Y-84308775D02*
X85896428Y-84270680D01*
X85896428Y-84270680D02*
X85858332Y-84232584D01*
X85858332Y-84232584D02*
X85858332Y-83965918D01*
X85858332Y-83965918D02*
X86010713Y-83965918D01*
X85248809Y-83889727D02*
X85134523Y-83927822D01*
X85134523Y-83927822D02*
X85096428Y-83965918D01*
X85096428Y-83965918D02*
X85058332Y-84042108D01*
X85058332Y-84042108D02*
X85058332Y-84156394D01*
X85058332Y-84156394D02*
X85096428Y-84232584D01*
X85096428Y-84232584D02*
X85134523Y-84270680D01*
X85134523Y-84270680D02*
X85210713Y-84308775D01*
X85210713Y-84308775D02*
X85515475Y-84308775D01*
X85515475Y-84308775D02*
X85515475Y-83508775D01*
X85515475Y-83508775D02*
X85248809Y-83508775D01*
X85248809Y-83508775D02*
X85172618Y-83546870D01*
X85172618Y-83546870D02*
X85134523Y-83584965D01*
X85134523Y-83584965D02*
X85096428Y-83661156D01*
X85096428Y-83661156D02*
X85096428Y-83737346D01*
X85096428Y-83737346D02*
X85134523Y-83813537D01*
X85134523Y-83813537D02*
X85172618Y-83851632D01*
X85172618Y-83851632D02*
X85248809Y-83889727D01*
X85248809Y-83889727D02*
X85515475Y-83889727D01*
X84334523Y-83508775D02*
X84715475Y-83508775D01*
X84715475Y-83508775D02*
X84753571Y-83889727D01*
X84753571Y-83889727D02*
X84715475Y-83851632D01*
X84715475Y-83851632D02*
X84639285Y-83813537D01*
X84639285Y-83813537D02*
X84448809Y-83813537D01*
X84448809Y-83813537D02*
X84372618Y-83851632D01*
X84372618Y-83851632D02*
X84334523Y-83889727D01*
X84334523Y-83889727D02*
X84296428Y-83965918D01*
X84296428Y-83965918D02*
X84296428Y-84156394D01*
X84296428Y-84156394D02*
X84334523Y-84232584D01*
X84334523Y-84232584D02*
X84372618Y-84270680D01*
X84372618Y-84270680D02*
X84448809Y-84308775D01*
X84448809Y-84308775D02*
X84639285Y-84308775D01*
X84639285Y-84308775D02*
X84715475Y-84270680D01*
X84715475Y-84270680D02*
X84753571Y-84232584D01*
D10*
X72540297Y-81283569D02*
X73016487Y-81283569D01*
X73016487Y-81283569D02*
X73016487Y-80283569D01*
X72206963Y-80759759D02*
X71873630Y-80759759D01*
X71730773Y-81283569D02*
X72206963Y-81283569D01*
X72206963Y-81283569D02*
X72206963Y-80283569D01*
X72206963Y-80283569D02*
X71730773Y-80283569D01*
X71302201Y-81283569D02*
X71302201Y-80283569D01*
X71302201Y-80283569D02*
X71064106Y-80283569D01*
X71064106Y-80283569D02*
X70921249Y-80331188D01*
X70921249Y-80331188D02*
X70826011Y-80426426D01*
X70826011Y-80426426D02*
X70778392Y-80521664D01*
X70778392Y-80521664D02*
X70730773Y-80712140D01*
X70730773Y-80712140D02*
X70730773Y-80854997D01*
X70730773Y-80854997D02*
X70778392Y-81045473D01*
X70778392Y-81045473D02*
X70826011Y-81140711D01*
X70826011Y-81140711D02*
X70921249Y-81235950D01*
X70921249Y-81235950D02*
X71064106Y-81283569D01*
X71064106Y-81283569D02*
X71302201Y-81283569D01*
X69873630Y-80283569D02*
X70064106Y-80283569D01*
X70064106Y-80283569D02*
X70159344Y-80331188D01*
X70159344Y-80331188D02*
X70206963Y-80378807D01*
X70206963Y-80378807D02*
X70302201Y-80521664D01*
X70302201Y-80521664D02*
X70349820Y-80712140D01*
X70349820Y-80712140D02*
X70349820Y-81093092D01*
X70349820Y-81093092D02*
X70302201Y-81188330D01*
X70302201Y-81188330D02*
X70254582Y-81235950D01*
X70254582Y-81235950D02*
X70159344Y-81283569D01*
X70159344Y-81283569D02*
X69968868Y-81283569D01*
X69968868Y-81283569D02*
X69873630Y-81235950D01*
X69873630Y-81235950D02*
X69826011Y-81188330D01*
X69826011Y-81188330D02*
X69778392Y-81093092D01*
X69778392Y-81093092D02*
X69778392Y-80854997D01*
X69778392Y-80854997D02*
X69826011Y-80759759D01*
X69826011Y-80759759D02*
X69873630Y-80712140D01*
X69873630Y-80712140D02*
X69968868Y-80664521D01*
X69968868Y-80664521D02*
X70159344Y-80664521D01*
X70159344Y-80664521D02*
X70254582Y-80712140D01*
X70254582Y-80712140D02*
X70302201Y-80759759D01*
X70302201Y-80759759D02*
X70349820Y-80854997D01*
X123277232Y-76590205D02*
X123324851Y-76637825D01*
X123324851Y-76637825D02*
X123467708Y-76685444D01*
X123467708Y-76685444D02*
X123562946Y-76685444D01*
X123562946Y-76685444D02*
X123705803Y-76637825D01*
X123705803Y-76637825D02*
X123801041Y-76542586D01*
X123801041Y-76542586D02*
X123848660Y-76447348D01*
X123848660Y-76447348D02*
X123896279Y-76256872D01*
X123896279Y-76256872D02*
X123896279Y-76114015D01*
X123896279Y-76114015D02*
X123848660Y-75923539D01*
X123848660Y-75923539D02*
X123801041Y-75828301D01*
X123801041Y-75828301D02*
X123705803Y-75733063D01*
X123705803Y-75733063D02*
X123562946Y-75685444D01*
X123562946Y-75685444D02*
X123467708Y-75685444D01*
X123467708Y-75685444D02*
X123324851Y-75733063D01*
X123324851Y-75733063D02*
X123277232Y-75780682D01*
X122324851Y-76685444D02*
X122896279Y-76685444D01*
X122610565Y-76685444D02*
X122610565Y-75685444D01*
X122610565Y-75685444D02*
X122705803Y-75828301D01*
X122705803Y-75828301D02*
X122801041Y-75923539D01*
X122801041Y-75923539D02*
X122896279Y-75971158D01*
X121467708Y-75685444D02*
X121658184Y-75685444D01*
X121658184Y-75685444D02*
X121753422Y-75733063D01*
X121753422Y-75733063D02*
X121801041Y-75780682D01*
X121801041Y-75780682D02*
X121896279Y-75923539D01*
X121896279Y-75923539D02*
X121943898Y-76114015D01*
X121943898Y-76114015D02*
X121943898Y-76494967D01*
X121943898Y-76494967D02*
X121896279Y-76590205D01*
X121896279Y-76590205D02*
X121848660Y-76637825D01*
X121848660Y-76637825D02*
X121753422Y-76685444D01*
X121753422Y-76685444D02*
X121562946Y-76685444D01*
X121562946Y-76685444D02*
X121467708Y-76637825D01*
X121467708Y-76637825D02*
X121420089Y-76590205D01*
X121420089Y-76590205D02*
X121372470Y-76494967D01*
X121372470Y-76494967D02*
X121372470Y-76256872D01*
X121372470Y-76256872D02*
X121420089Y-76161634D01*
X121420089Y-76161634D02*
X121467708Y-76114015D01*
X121467708Y-76114015D02*
X121562946Y-76066396D01*
X121562946Y-76066396D02*
X121753422Y-76066396D01*
X121753422Y-76066396D02*
X121848660Y-76114015D01*
X121848660Y-76114015D02*
X121896279Y-76161634D01*
X121896279Y-76161634D02*
X121943898Y-76256872D01*
X95416666Y-83559194D02*
X95749999Y-83083003D01*
X95988094Y-83559194D02*
X95988094Y-82559194D01*
X95988094Y-82559194D02*
X95607142Y-82559194D01*
X95607142Y-82559194D02*
X95511904Y-82606813D01*
X95511904Y-82606813D02*
X95464285Y-82654432D01*
X95464285Y-82654432D02*
X95416666Y-82749670D01*
X95416666Y-82749670D02*
X95416666Y-82892527D01*
X95416666Y-82892527D02*
X95464285Y-82987765D01*
X95464285Y-82987765D02*
X95511904Y-83035384D01*
X95511904Y-83035384D02*
X95607142Y-83083003D01*
X95607142Y-83083003D02*
X95988094Y-83083003D01*
X95083332Y-82559194D02*
X94416666Y-82559194D01*
X94416666Y-82559194D02*
X94845237Y-83559194D01*
X100402705Y-61745833D02*
X100450325Y-61698214D01*
X100450325Y-61698214D02*
X100497944Y-61555357D01*
X100497944Y-61555357D02*
X100497944Y-61460119D01*
X100497944Y-61460119D02*
X100450325Y-61317262D01*
X100450325Y-61317262D02*
X100355086Y-61222024D01*
X100355086Y-61222024D02*
X100259848Y-61174405D01*
X100259848Y-61174405D02*
X100069372Y-61126786D01*
X100069372Y-61126786D02*
X99926515Y-61126786D01*
X99926515Y-61126786D02*
X99736039Y-61174405D01*
X99736039Y-61174405D02*
X99640801Y-61222024D01*
X99640801Y-61222024D02*
X99545563Y-61317262D01*
X99545563Y-61317262D02*
X99497944Y-61460119D01*
X99497944Y-61460119D02*
X99497944Y-61555357D01*
X99497944Y-61555357D02*
X99545563Y-61698214D01*
X99545563Y-61698214D02*
X99593182Y-61745833D01*
X99831277Y-62602976D02*
X100497944Y-62602976D01*
X99450325Y-62364881D02*
X100164610Y-62126786D01*
X100164610Y-62126786D02*
X100164610Y-62745833D01*
X74235416Y-67903330D02*
X74283035Y-67950950D01*
X74283035Y-67950950D02*
X74425892Y-67998569D01*
X74425892Y-67998569D02*
X74521130Y-67998569D01*
X74521130Y-67998569D02*
X74663987Y-67950950D01*
X74663987Y-67950950D02*
X74759225Y-67855711D01*
X74759225Y-67855711D02*
X74806844Y-67760473D01*
X74806844Y-67760473D02*
X74854463Y-67569997D01*
X74854463Y-67569997D02*
X74854463Y-67427140D01*
X74854463Y-67427140D02*
X74806844Y-67236664D01*
X74806844Y-67236664D02*
X74759225Y-67141426D01*
X74759225Y-67141426D02*
X74663987Y-67046188D01*
X74663987Y-67046188D02*
X74521130Y-66998569D01*
X74521130Y-66998569D02*
X74425892Y-66998569D01*
X74425892Y-66998569D02*
X74283035Y-67046188D01*
X74283035Y-67046188D02*
X74235416Y-67093807D01*
X73854463Y-67093807D02*
X73806844Y-67046188D01*
X73806844Y-67046188D02*
X73711606Y-66998569D01*
X73711606Y-66998569D02*
X73473511Y-66998569D01*
X73473511Y-66998569D02*
X73378273Y-67046188D01*
X73378273Y-67046188D02*
X73330654Y-67093807D01*
X73330654Y-67093807D02*
X73283035Y-67189045D01*
X73283035Y-67189045D02*
X73283035Y-67284283D01*
X73283035Y-67284283D02*
X73330654Y-67427140D01*
X73330654Y-67427140D02*
X73902082Y-67998569D01*
X73902082Y-67998569D02*
X73283035Y-67998569D01*
D11*
X48558332Y-49764775D02*
X48824999Y-49383822D01*
X49015475Y-49764775D02*
X49015475Y-48964775D01*
X49015475Y-48964775D02*
X48710713Y-48964775D01*
X48710713Y-48964775D02*
X48634523Y-49002870D01*
X48634523Y-49002870D02*
X48596428Y-49040965D01*
X48596428Y-49040965D02*
X48558332Y-49117156D01*
X48558332Y-49117156D02*
X48558332Y-49231441D01*
X48558332Y-49231441D02*
X48596428Y-49307632D01*
X48596428Y-49307632D02*
X48634523Y-49345727D01*
X48634523Y-49345727D02*
X48710713Y-49383822D01*
X48710713Y-49383822D02*
X49015475Y-49383822D01*
X47796428Y-49002870D02*
X47872618Y-48964775D01*
X47872618Y-48964775D02*
X47986904Y-48964775D01*
X47986904Y-48964775D02*
X48101190Y-49002870D01*
X48101190Y-49002870D02*
X48177380Y-49079060D01*
X48177380Y-49079060D02*
X48215475Y-49155251D01*
X48215475Y-49155251D02*
X48253571Y-49307632D01*
X48253571Y-49307632D02*
X48253571Y-49421918D01*
X48253571Y-49421918D02*
X48215475Y-49574299D01*
X48215475Y-49574299D02*
X48177380Y-49650489D01*
X48177380Y-49650489D02*
X48101190Y-49726680D01*
X48101190Y-49726680D02*
X47986904Y-49764775D01*
X47986904Y-49764775D02*
X47910713Y-49764775D01*
X47910713Y-49764775D02*
X47796428Y-49726680D01*
X47796428Y-49726680D02*
X47758332Y-49688584D01*
X47758332Y-49688584D02*
X47758332Y-49421918D01*
X47758332Y-49421918D02*
X47910713Y-49421918D01*
X47148809Y-49345727D02*
X47034523Y-49383822D01*
X47034523Y-49383822D02*
X46996428Y-49421918D01*
X46996428Y-49421918D02*
X46958332Y-49498108D01*
X46958332Y-49498108D02*
X46958332Y-49612394D01*
X46958332Y-49612394D02*
X46996428Y-49688584D01*
X46996428Y-49688584D02*
X47034523Y-49726680D01*
X47034523Y-49726680D02*
X47110713Y-49764775D01*
X47110713Y-49764775D02*
X47415475Y-49764775D01*
X47415475Y-49764775D02*
X47415475Y-48964775D01*
X47415475Y-48964775D02*
X47148809Y-48964775D01*
X47148809Y-48964775D02*
X47072618Y-49002870D01*
X47072618Y-49002870D02*
X47034523Y-49040965D01*
X47034523Y-49040965D02*
X46996428Y-49117156D01*
X46996428Y-49117156D02*
X46996428Y-49193346D01*
X46996428Y-49193346D02*
X47034523Y-49269537D01*
X47034523Y-49269537D02*
X47072618Y-49307632D01*
X47072618Y-49307632D02*
X47148809Y-49345727D01*
X47148809Y-49345727D02*
X47415475Y-49345727D01*
X46196428Y-49764775D02*
X46653571Y-49764775D01*
X46424999Y-49764775D02*
X46424999Y-48964775D01*
X46424999Y-48964775D02*
X46501190Y-49079060D01*
X46501190Y-49079060D02*
X46577380Y-49155251D01*
X46577380Y-49155251D02*
X46653571Y-49193346D01*
D10*
X90059580Y-79383333D02*
X90107200Y-79335714D01*
X90107200Y-79335714D02*
X90154819Y-79192857D01*
X90154819Y-79192857D02*
X90154819Y-79097619D01*
X90154819Y-79097619D02*
X90107200Y-78954762D01*
X90107200Y-78954762D02*
X90011961Y-78859524D01*
X90011961Y-78859524D02*
X89916723Y-78811905D01*
X89916723Y-78811905D02*
X89726247Y-78764286D01*
X89726247Y-78764286D02*
X89583390Y-78764286D01*
X89583390Y-78764286D02*
X89392914Y-78811905D01*
X89392914Y-78811905D02*
X89297676Y-78859524D01*
X89297676Y-78859524D02*
X89202438Y-78954762D01*
X89202438Y-78954762D02*
X89154819Y-79097619D01*
X89154819Y-79097619D02*
X89154819Y-79192857D01*
X89154819Y-79192857D02*
X89202438Y-79335714D01*
X89202438Y-79335714D02*
X89250057Y-79383333D01*
X89154819Y-79716667D02*
X89154819Y-80335714D01*
X89154819Y-80335714D02*
X89535771Y-80002381D01*
X89535771Y-80002381D02*
X89535771Y-80145238D01*
X89535771Y-80145238D02*
X89583390Y-80240476D01*
X89583390Y-80240476D02*
X89631009Y-80288095D01*
X89631009Y-80288095D02*
X89726247Y-80335714D01*
X89726247Y-80335714D02*
X89964342Y-80335714D01*
X89964342Y-80335714D02*
X90059580Y-80288095D01*
X90059580Y-80288095D02*
X90107200Y-80240476D01*
X90107200Y-80240476D02*
X90154819Y-80145238D01*
X90154819Y-80145238D02*
X90154819Y-79859524D01*
X90154819Y-79859524D02*
X90107200Y-79764286D01*
X90107200Y-79764286D02*
X90059580Y-79716667D01*
X123277232Y-74208955D02*
X123324851Y-74256575D01*
X123324851Y-74256575D02*
X123467708Y-74304194D01*
X123467708Y-74304194D02*
X123562946Y-74304194D01*
X123562946Y-74304194D02*
X123705803Y-74256575D01*
X123705803Y-74256575D02*
X123801041Y-74161336D01*
X123801041Y-74161336D02*
X123848660Y-74066098D01*
X123848660Y-74066098D02*
X123896279Y-73875622D01*
X123896279Y-73875622D02*
X123896279Y-73732765D01*
X123896279Y-73732765D02*
X123848660Y-73542289D01*
X123848660Y-73542289D02*
X123801041Y-73447051D01*
X123801041Y-73447051D02*
X123705803Y-73351813D01*
X123705803Y-73351813D02*
X123562946Y-73304194D01*
X123562946Y-73304194D02*
X123467708Y-73304194D01*
X123467708Y-73304194D02*
X123324851Y-73351813D01*
X123324851Y-73351813D02*
X123277232Y-73399432D01*
X122324851Y-74304194D02*
X122896279Y-74304194D01*
X122610565Y-74304194D02*
X122610565Y-73304194D01*
X122610565Y-73304194D02*
X122705803Y-73447051D01*
X122705803Y-73447051D02*
X122801041Y-73542289D01*
X122801041Y-73542289D02*
X122896279Y-73589908D01*
X121420089Y-73304194D02*
X121896279Y-73304194D01*
X121896279Y-73304194D02*
X121943898Y-73780384D01*
X121943898Y-73780384D02*
X121896279Y-73732765D01*
X121896279Y-73732765D02*
X121801041Y-73685146D01*
X121801041Y-73685146D02*
X121562946Y-73685146D01*
X121562946Y-73685146D02*
X121467708Y-73732765D01*
X121467708Y-73732765D02*
X121420089Y-73780384D01*
X121420089Y-73780384D02*
X121372470Y-73875622D01*
X121372470Y-73875622D02*
X121372470Y-74113717D01*
X121372470Y-74113717D02*
X121420089Y-74208955D01*
X121420089Y-74208955D02*
X121467708Y-74256575D01*
X121467708Y-74256575D02*
X121562946Y-74304194D01*
X121562946Y-74304194D02*
X121801041Y-74304194D01*
X121801041Y-74304194D02*
X121896279Y-74256575D01*
X121896279Y-74256575D02*
X121943898Y-74208955D01*
X64551362Y-59961245D02*
X65123782Y-60533665D01*
X65123782Y-60533665D02*
X65157454Y-60634680D01*
X65157454Y-60634680D02*
X65157454Y-60702024D01*
X65157454Y-60702024D02*
X65123782Y-60803039D01*
X65123782Y-60803039D02*
X64989095Y-60937726D01*
X64989095Y-60937726D02*
X64888080Y-60971398D01*
X64888080Y-60971398D02*
X64820736Y-60971398D01*
X64820736Y-60971398D02*
X64719721Y-60937726D01*
X64719721Y-60937726D02*
X64147301Y-60365306D01*
X63743240Y-61240772D02*
X64214645Y-61712176D01*
X63642225Y-60803039D02*
X64315660Y-61139757D01*
X64315660Y-61139757D02*
X63877927Y-61577489D01*
X68618569Y-50611845D02*
X69428092Y-50611845D01*
X69428092Y-50611845D02*
X69523330Y-50659464D01*
X69523330Y-50659464D02*
X69570950Y-50707083D01*
X69570950Y-50707083D02*
X69618569Y-50802321D01*
X69618569Y-50802321D02*
X69618569Y-50992797D01*
X69618569Y-50992797D02*
X69570950Y-51088035D01*
X69570950Y-51088035D02*
X69523330Y-51135654D01*
X69523330Y-51135654D02*
X69428092Y-51183273D01*
X69428092Y-51183273D02*
X68618569Y-51183273D01*
X68713807Y-51611845D02*
X68666188Y-51659464D01*
X68666188Y-51659464D02*
X68618569Y-51754702D01*
X68618569Y-51754702D02*
X68618569Y-51992797D01*
X68618569Y-51992797D02*
X68666188Y-52088035D01*
X68666188Y-52088035D02*
X68713807Y-52135654D01*
X68713807Y-52135654D02*
X68809045Y-52183273D01*
X68809045Y-52183273D02*
X68904283Y-52183273D01*
X68904283Y-52183273D02*
X69047140Y-52135654D01*
X69047140Y-52135654D02*
X69618569Y-51564226D01*
X69618569Y-51564226D02*
X69618569Y-52183273D01*
X99850297Y-60423569D02*
X100326487Y-60423569D01*
X100326487Y-60423569D02*
X100326487Y-59423569D01*
X99516963Y-59899759D02*
X99183630Y-59899759D01*
X99040773Y-60423569D02*
X99516963Y-60423569D01*
X99516963Y-60423569D02*
X99516963Y-59423569D01*
X99516963Y-59423569D02*
X99040773Y-59423569D01*
X98612201Y-60423569D02*
X98612201Y-59423569D01*
X98612201Y-59423569D02*
X98374106Y-59423569D01*
X98374106Y-59423569D02*
X98231249Y-59471188D01*
X98231249Y-59471188D02*
X98136011Y-59566426D01*
X98136011Y-59566426D02*
X98088392Y-59661664D01*
X98088392Y-59661664D02*
X98040773Y-59852140D01*
X98040773Y-59852140D02*
X98040773Y-59994997D01*
X98040773Y-59994997D02*
X98088392Y-60185473D01*
X98088392Y-60185473D02*
X98136011Y-60280711D01*
X98136011Y-60280711D02*
X98231249Y-60375950D01*
X98231249Y-60375950D02*
X98374106Y-60423569D01*
X98374106Y-60423569D02*
X98612201Y-60423569D01*
X97707439Y-59423569D02*
X97088392Y-59423569D01*
X97088392Y-59423569D02*
X97421725Y-59804521D01*
X97421725Y-59804521D02*
X97278868Y-59804521D01*
X97278868Y-59804521D02*
X97183630Y-59852140D01*
X97183630Y-59852140D02*
X97136011Y-59899759D01*
X97136011Y-59899759D02*
X97088392Y-59994997D01*
X97088392Y-59994997D02*
X97088392Y-60233092D01*
X97088392Y-60233092D02*
X97136011Y-60328330D01*
X97136011Y-60328330D02*
X97183630Y-60375950D01*
X97183630Y-60375950D02*
X97278868Y-60423569D01*
X97278868Y-60423569D02*
X97564582Y-60423569D01*
X97564582Y-60423569D02*
X97659820Y-60375950D01*
X97659820Y-60375950D02*
X97707439Y-60328330D01*
D11*
X124758332Y-84308775D02*
X125024999Y-83927822D01*
X125215475Y-84308775D02*
X125215475Y-83508775D01*
X125215475Y-83508775D02*
X124910713Y-83508775D01*
X124910713Y-83508775D02*
X124834523Y-83546870D01*
X124834523Y-83546870D02*
X124796428Y-83584965D01*
X124796428Y-83584965D02*
X124758332Y-83661156D01*
X124758332Y-83661156D02*
X124758332Y-83775441D01*
X124758332Y-83775441D02*
X124796428Y-83851632D01*
X124796428Y-83851632D02*
X124834523Y-83889727D01*
X124834523Y-83889727D02*
X124910713Y-83927822D01*
X124910713Y-83927822D02*
X125215475Y-83927822D01*
X123996428Y-83546870D02*
X124072618Y-83508775D01*
X124072618Y-83508775D02*
X124186904Y-83508775D01*
X124186904Y-83508775D02*
X124301190Y-83546870D01*
X124301190Y-83546870D02*
X124377380Y-83623060D01*
X124377380Y-83623060D02*
X124415475Y-83699251D01*
X124415475Y-83699251D02*
X124453571Y-83851632D01*
X124453571Y-83851632D02*
X124453571Y-83965918D01*
X124453571Y-83965918D02*
X124415475Y-84118299D01*
X124415475Y-84118299D02*
X124377380Y-84194489D01*
X124377380Y-84194489D02*
X124301190Y-84270680D01*
X124301190Y-84270680D02*
X124186904Y-84308775D01*
X124186904Y-84308775D02*
X124110713Y-84308775D01*
X124110713Y-84308775D02*
X123996428Y-84270680D01*
X123996428Y-84270680D02*
X123958332Y-84232584D01*
X123958332Y-84232584D02*
X123958332Y-83965918D01*
X123958332Y-83965918D02*
X124110713Y-83965918D01*
X123348809Y-83889727D02*
X123234523Y-83927822D01*
X123234523Y-83927822D02*
X123196428Y-83965918D01*
X123196428Y-83965918D02*
X123158332Y-84042108D01*
X123158332Y-84042108D02*
X123158332Y-84156394D01*
X123158332Y-84156394D02*
X123196428Y-84232584D01*
X123196428Y-84232584D02*
X123234523Y-84270680D01*
X123234523Y-84270680D02*
X123310713Y-84308775D01*
X123310713Y-84308775D02*
X123615475Y-84308775D01*
X123615475Y-84308775D02*
X123615475Y-83508775D01*
X123615475Y-83508775D02*
X123348809Y-83508775D01*
X123348809Y-83508775D02*
X123272618Y-83546870D01*
X123272618Y-83546870D02*
X123234523Y-83584965D01*
X123234523Y-83584965D02*
X123196428Y-83661156D01*
X123196428Y-83661156D02*
X123196428Y-83737346D01*
X123196428Y-83737346D02*
X123234523Y-83813537D01*
X123234523Y-83813537D02*
X123272618Y-83851632D01*
X123272618Y-83851632D02*
X123348809Y-83889727D01*
X123348809Y-83889727D02*
X123615475Y-83889727D01*
X122472618Y-83775441D02*
X122472618Y-84308775D01*
X122663094Y-83470680D02*
X122853571Y-84042108D01*
X122853571Y-84042108D02*
X122358332Y-84042108D01*
D10*
X63537319Y-80319642D02*
X63061128Y-79986309D01*
X63537319Y-79748214D02*
X62537319Y-79748214D01*
X62537319Y-79748214D02*
X62537319Y-80129166D01*
X62537319Y-80129166D02*
X62584938Y-80224404D01*
X62584938Y-80224404D02*
X62632557Y-80272023D01*
X62632557Y-80272023D02*
X62727795Y-80319642D01*
X62727795Y-80319642D02*
X62870652Y-80319642D01*
X62870652Y-80319642D02*
X62965890Y-80272023D01*
X62965890Y-80272023D02*
X63013509Y-80224404D01*
X63013509Y-80224404D02*
X63061128Y-80129166D01*
X63061128Y-80129166D02*
X63061128Y-79748214D01*
X63537319Y-81272023D02*
X63537319Y-80700595D01*
X63537319Y-80986309D02*
X62537319Y-80986309D01*
X62537319Y-80986309D02*
X62680176Y-80891071D01*
X62680176Y-80891071D02*
X62775414Y-80795833D01*
X62775414Y-80795833D02*
X62823033Y-80700595D01*
X63537319Y-82224404D02*
X63537319Y-81652976D01*
X63537319Y-81938690D02*
X62537319Y-81938690D01*
X62537319Y-81938690D02*
X62680176Y-81843452D01*
X62680176Y-81843452D02*
X62775414Y-81748214D01*
X62775414Y-81748214D02*
X62823033Y-81652976D01*
X123277232Y-78971455D02*
X123324851Y-79019075D01*
X123324851Y-79019075D02*
X123467708Y-79066694D01*
X123467708Y-79066694D02*
X123562946Y-79066694D01*
X123562946Y-79066694D02*
X123705803Y-79019075D01*
X123705803Y-79019075D02*
X123801041Y-78923836D01*
X123801041Y-78923836D02*
X123848660Y-78828598D01*
X123848660Y-78828598D02*
X123896279Y-78638122D01*
X123896279Y-78638122D02*
X123896279Y-78495265D01*
X123896279Y-78495265D02*
X123848660Y-78304789D01*
X123848660Y-78304789D02*
X123801041Y-78209551D01*
X123801041Y-78209551D02*
X123705803Y-78114313D01*
X123705803Y-78114313D02*
X123562946Y-78066694D01*
X123562946Y-78066694D02*
X123467708Y-78066694D01*
X123467708Y-78066694D02*
X123324851Y-78114313D01*
X123324851Y-78114313D02*
X123277232Y-78161932D01*
X122324851Y-79066694D02*
X122896279Y-79066694D01*
X122610565Y-79066694D02*
X122610565Y-78066694D01*
X122610565Y-78066694D02*
X122705803Y-78209551D01*
X122705803Y-78209551D02*
X122801041Y-78304789D01*
X122801041Y-78304789D02*
X122896279Y-78352408D01*
X121991517Y-78066694D02*
X121324851Y-78066694D01*
X121324851Y-78066694D02*
X121753422Y-79066694D01*
X53650416Y-63718569D02*
X53983749Y-63242378D01*
X54221844Y-63718569D02*
X54221844Y-62718569D01*
X54221844Y-62718569D02*
X53840892Y-62718569D01*
X53840892Y-62718569D02*
X53745654Y-62766188D01*
X53745654Y-62766188D02*
X53698035Y-62813807D01*
X53698035Y-62813807D02*
X53650416Y-62909045D01*
X53650416Y-62909045D02*
X53650416Y-63051902D01*
X53650416Y-63051902D02*
X53698035Y-63147140D01*
X53698035Y-63147140D02*
X53745654Y-63194759D01*
X53745654Y-63194759D02*
X53840892Y-63242378D01*
X53840892Y-63242378D02*
X54221844Y-63242378D01*
X52698035Y-63718569D02*
X53269463Y-63718569D01*
X52983749Y-63718569D02*
X52983749Y-62718569D01*
X52983749Y-62718569D02*
X53078987Y-62861426D01*
X53078987Y-62861426D02*
X53174225Y-62956664D01*
X53174225Y-62956664D02*
X53269463Y-63004283D01*
X54970297Y-79323569D02*
X55446487Y-79323569D01*
X55446487Y-79323569D02*
X55446487Y-78323569D01*
X54636963Y-78799759D02*
X54303630Y-78799759D01*
X54160773Y-79323569D02*
X54636963Y-79323569D01*
X54636963Y-79323569D02*
X54636963Y-78323569D01*
X54636963Y-78323569D02*
X54160773Y-78323569D01*
X53732201Y-79323569D02*
X53732201Y-78323569D01*
X53732201Y-78323569D02*
X53494106Y-78323569D01*
X53494106Y-78323569D02*
X53351249Y-78371188D01*
X53351249Y-78371188D02*
X53256011Y-78466426D01*
X53256011Y-78466426D02*
X53208392Y-78561664D01*
X53208392Y-78561664D02*
X53160773Y-78752140D01*
X53160773Y-78752140D02*
X53160773Y-78894997D01*
X53160773Y-78894997D02*
X53208392Y-79085473D01*
X53208392Y-79085473D02*
X53256011Y-79180711D01*
X53256011Y-79180711D02*
X53351249Y-79275950D01*
X53351249Y-79275950D02*
X53494106Y-79323569D01*
X53494106Y-79323569D02*
X53732201Y-79323569D01*
X52256011Y-78323569D02*
X52732201Y-78323569D01*
X52732201Y-78323569D02*
X52779820Y-78799759D01*
X52779820Y-78799759D02*
X52732201Y-78752140D01*
X52732201Y-78752140D02*
X52636963Y-78704521D01*
X52636963Y-78704521D02*
X52398868Y-78704521D01*
X52398868Y-78704521D02*
X52303630Y-78752140D01*
X52303630Y-78752140D02*
X52256011Y-78799759D01*
X52256011Y-78799759D02*
X52208392Y-78894997D01*
X52208392Y-78894997D02*
X52208392Y-79133092D01*
X52208392Y-79133092D02*
X52256011Y-79228330D01*
X52256011Y-79228330D02*
X52303630Y-79275950D01*
X52303630Y-79275950D02*
X52398868Y-79323569D01*
X52398868Y-79323569D02*
X52636963Y-79323569D01*
X52636963Y-79323569D02*
X52732201Y-79275950D01*
X52732201Y-79275950D02*
X52779820Y-79228330D01*
X51213807Y-63368511D02*
X51166188Y-63273273D01*
X51166188Y-63273273D02*
X51070950Y-63178035D01*
X51070950Y-63178035D02*
X50928092Y-63035178D01*
X50928092Y-63035178D02*
X50880473Y-62939940D01*
X50880473Y-62939940D02*
X50880473Y-62844702D01*
X51118569Y-62892321D02*
X51070950Y-62797083D01*
X51070950Y-62797083D02*
X50975711Y-62701845D01*
X50975711Y-62701845D02*
X50785235Y-62654226D01*
X50785235Y-62654226D02*
X50451902Y-62654226D01*
X50451902Y-62654226D02*
X50261426Y-62701845D01*
X50261426Y-62701845D02*
X50166188Y-62797083D01*
X50166188Y-62797083D02*
X50118569Y-62892321D01*
X50118569Y-62892321D02*
X50118569Y-63082797D01*
X50118569Y-63082797D02*
X50166188Y-63178035D01*
X50166188Y-63178035D02*
X50261426Y-63273273D01*
X50261426Y-63273273D02*
X50451902Y-63320892D01*
X50451902Y-63320892D02*
X50785235Y-63320892D01*
X50785235Y-63320892D02*
X50975711Y-63273273D01*
X50975711Y-63273273D02*
X51070950Y-63178035D01*
X51070950Y-63178035D02*
X51118569Y-63082797D01*
X51118569Y-63082797D02*
X51118569Y-62892321D01*
X51118569Y-64273273D02*
X51118569Y-63701845D01*
X51118569Y-63987559D02*
X50118569Y-63987559D01*
X50118569Y-63987559D02*
X50261426Y-63892321D01*
X50261426Y-63892321D02*
X50356664Y-63797083D01*
X50356664Y-63797083D02*
X50404283Y-63701845D01*
X72136607Y-50578569D02*
X72469940Y-50102378D01*
X72708035Y-50578569D02*
X72708035Y-49578569D01*
X72708035Y-49578569D02*
X72327083Y-49578569D01*
X72327083Y-49578569D02*
X72231845Y-49626188D01*
X72231845Y-49626188D02*
X72184226Y-49673807D01*
X72184226Y-49673807D02*
X72136607Y-49769045D01*
X72136607Y-49769045D02*
X72136607Y-49911902D01*
X72136607Y-49911902D02*
X72184226Y-50007140D01*
X72184226Y-50007140D02*
X72231845Y-50054759D01*
X72231845Y-50054759D02*
X72327083Y-50102378D01*
X72327083Y-50102378D02*
X72708035Y-50102378D01*
X71184226Y-50578569D02*
X71755654Y-50578569D01*
X71469940Y-50578569D02*
X71469940Y-49578569D01*
X71469940Y-49578569D02*
X71565178Y-49721426D01*
X71565178Y-49721426D02*
X71660416Y-49816664D01*
X71660416Y-49816664D02*
X71755654Y-49864283D01*
X70850892Y-49578569D02*
X70231845Y-49578569D01*
X70231845Y-49578569D02*
X70565178Y-49959521D01*
X70565178Y-49959521D02*
X70422321Y-49959521D01*
X70422321Y-49959521D02*
X70327083Y-50007140D01*
X70327083Y-50007140D02*
X70279464Y-50054759D01*
X70279464Y-50054759D02*
X70231845Y-50149997D01*
X70231845Y-50149997D02*
X70231845Y-50388092D01*
X70231845Y-50388092D02*
X70279464Y-50483330D01*
X70279464Y-50483330D02*
X70327083Y-50530950D01*
X70327083Y-50530950D02*
X70422321Y-50578569D01*
X70422321Y-50578569D02*
X70708035Y-50578569D01*
X70708035Y-50578569D02*
X70803273Y-50530950D01*
X70803273Y-50530950D02*
X70850892Y-50483330D01*
X64509194Y-55316517D02*
X64033003Y-54983184D01*
X64509194Y-54745089D02*
X63509194Y-54745089D01*
X63509194Y-54745089D02*
X63509194Y-55126041D01*
X63509194Y-55126041D02*
X63556813Y-55221279D01*
X63556813Y-55221279D02*
X63604432Y-55268898D01*
X63604432Y-55268898D02*
X63699670Y-55316517D01*
X63699670Y-55316517D02*
X63842527Y-55316517D01*
X63842527Y-55316517D02*
X63937765Y-55268898D01*
X63937765Y-55268898D02*
X63985384Y-55221279D01*
X63985384Y-55221279D02*
X64033003Y-55126041D01*
X64033003Y-55126041D02*
X64033003Y-54745089D01*
X64509194Y-56268898D02*
X64509194Y-55697470D01*
X64509194Y-55983184D02*
X63509194Y-55983184D01*
X63509194Y-55983184D02*
X63652051Y-55887946D01*
X63652051Y-55887946D02*
X63747289Y-55792708D01*
X63747289Y-55792708D02*
X63794908Y-55697470D01*
X63509194Y-57173660D02*
X63509194Y-56697470D01*
X63509194Y-56697470D02*
X63985384Y-56649851D01*
X63985384Y-56649851D02*
X63937765Y-56697470D01*
X63937765Y-56697470D02*
X63890146Y-56792708D01*
X63890146Y-56792708D02*
X63890146Y-57030803D01*
X63890146Y-57030803D02*
X63937765Y-57126041D01*
X63937765Y-57126041D02*
X63985384Y-57173660D01*
X63985384Y-57173660D02*
X64080622Y-57221279D01*
X64080622Y-57221279D02*
X64318717Y-57221279D01*
X64318717Y-57221279D02*
X64413955Y-57173660D01*
X64413955Y-57173660D02*
X64461575Y-57126041D01*
X64461575Y-57126041D02*
X64509194Y-57030803D01*
X64509194Y-57030803D02*
X64509194Y-56792708D01*
X64509194Y-56792708D02*
X64461575Y-56697470D01*
X64461575Y-56697470D02*
X64413955Y-56649851D01*
X101520297Y-80953569D02*
X101996487Y-80953569D01*
X101996487Y-80953569D02*
X101996487Y-79953569D01*
X101186963Y-80429759D02*
X100853630Y-80429759D01*
X100710773Y-80953569D02*
X101186963Y-80953569D01*
X101186963Y-80953569D02*
X101186963Y-79953569D01*
X101186963Y-79953569D02*
X100710773Y-79953569D01*
X100282201Y-80953569D02*
X100282201Y-79953569D01*
X100282201Y-79953569D02*
X100044106Y-79953569D01*
X100044106Y-79953569D02*
X99901249Y-80001188D01*
X99901249Y-80001188D02*
X99806011Y-80096426D01*
X99806011Y-80096426D02*
X99758392Y-80191664D01*
X99758392Y-80191664D02*
X99710773Y-80382140D01*
X99710773Y-80382140D02*
X99710773Y-80524997D01*
X99710773Y-80524997D02*
X99758392Y-80715473D01*
X99758392Y-80715473D02*
X99806011Y-80810711D01*
X99806011Y-80810711D02*
X99901249Y-80905950D01*
X99901249Y-80905950D02*
X100044106Y-80953569D01*
X100044106Y-80953569D02*
X100282201Y-80953569D01*
X99377439Y-79953569D02*
X98710773Y-79953569D01*
X98710773Y-79953569D02*
X99139344Y-80953569D01*
X63745982Y-48100444D02*
X64079315Y-47624253D01*
X64317410Y-48100444D02*
X64317410Y-47100444D01*
X64317410Y-47100444D02*
X63936458Y-47100444D01*
X63936458Y-47100444D02*
X63841220Y-47148063D01*
X63841220Y-47148063D02*
X63793601Y-47195682D01*
X63793601Y-47195682D02*
X63745982Y-47290920D01*
X63745982Y-47290920D02*
X63745982Y-47433777D01*
X63745982Y-47433777D02*
X63793601Y-47529015D01*
X63793601Y-47529015D02*
X63841220Y-47576634D01*
X63841220Y-47576634D02*
X63936458Y-47624253D01*
X63936458Y-47624253D02*
X64317410Y-47624253D01*
X62793601Y-48100444D02*
X63365029Y-48100444D01*
X63079315Y-48100444D02*
X63079315Y-47100444D01*
X63079315Y-47100444D02*
X63174553Y-47243301D01*
X63174553Y-47243301D02*
X63269791Y-47338539D01*
X63269791Y-47338539D02*
X63365029Y-47386158D01*
X62412648Y-47195682D02*
X62365029Y-47148063D01*
X62365029Y-47148063D02*
X62269791Y-47100444D01*
X62269791Y-47100444D02*
X62031696Y-47100444D01*
X62031696Y-47100444D02*
X61936458Y-47148063D01*
X61936458Y-47148063D02*
X61888839Y-47195682D01*
X61888839Y-47195682D02*
X61841220Y-47290920D01*
X61841220Y-47290920D02*
X61841220Y-47386158D01*
X61841220Y-47386158D02*
X61888839Y-47529015D01*
X61888839Y-47529015D02*
X62460267Y-48100444D01*
X62460267Y-48100444D02*
X61841220Y-48100444D01*
X120876607Y-68433330D02*
X120924226Y-68480950D01*
X120924226Y-68480950D02*
X121067083Y-68528569D01*
X121067083Y-68528569D02*
X121162321Y-68528569D01*
X121162321Y-68528569D02*
X121305178Y-68480950D01*
X121305178Y-68480950D02*
X121400416Y-68385711D01*
X121400416Y-68385711D02*
X121448035Y-68290473D01*
X121448035Y-68290473D02*
X121495654Y-68099997D01*
X121495654Y-68099997D02*
X121495654Y-67957140D01*
X121495654Y-67957140D02*
X121448035Y-67766664D01*
X121448035Y-67766664D02*
X121400416Y-67671426D01*
X121400416Y-67671426D02*
X121305178Y-67576188D01*
X121305178Y-67576188D02*
X121162321Y-67528569D01*
X121162321Y-67528569D02*
X121067083Y-67528569D01*
X121067083Y-67528569D02*
X120924226Y-67576188D01*
X120924226Y-67576188D02*
X120876607Y-67623807D01*
X119924226Y-68528569D02*
X120495654Y-68528569D01*
X120209940Y-68528569D02*
X120209940Y-67528569D01*
X120209940Y-67528569D02*
X120305178Y-67671426D01*
X120305178Y-67671426D02*
X120400416Y-67766664D01*
X120400416Y-67766664D02*
X120495654Y-67814283D01*
X119067083Y-67861902D02*
X119067083Y-68528569D01*
X119305178Y-67480950D02*
X119543273Y-68195235D01*
X119543273Y-68195235D02*
X118924226Y-68195235D01*
D12*
X103732419Y-80915030D02*
X103732419Y-81486458D01*
X104732419Y-81200744D02*
X103732419Y-81200744D01*
X104684800Y-81772173D02*
X104732419Y-81915030D01*
X104732419Y-81915030D02*
X104732419Y-82153125D01*
X104732419Y-82153125D02*
X104684800Y-82248363D01*
X104684800Y-82248363D02*
X104637180Y-82295982D01*
X104637180Y-82295982D02*
X104541942Y-82343601D01*
X104541942Y-82343601D02*
X104446704Y-82343601D01*
X104446704Y-82343601D02*
X104351466Y-82295982D01*
X104351466Y-82295982D02*
X104303847Y-82248363D01*
X104303847Y-82248363D02*
X104256228Y-82153125D01*
X104256228Y-82153125D02*
X104208609Y-81962649D01*
X104208609Y-81962649D02*
X104160990Y-81867411D01*
X104160990Y-81867411D02*
X104113371Y-81819792D01*
X104113371Y-81819792D02*
X104018133Y-81772173D01*
X104018133Y-81772173D02*
X103922895Y-81772173D01*
X103922895Y-81772173D02*
X103827657Y-81819792D01*
X103827657Y-81819792D02*
X103780038Y-81867411D01*
X103780038Y-81867411D02*
X103732419Y-81962649D01*
X103732419Y-81962649D02*
X103732419Y-82200744D01*
X103732419Y-82200744D02*
X103780038Y-82343601D01*
X103827657Y-82724554D02*
X103780038Y-82772173D01*
X103780038Y-82772173D02*
X103732419Y-82867411D01*
X103732419Y-82867411D02*
X103732419Y-83105506D01*
X103732419Y-83105506D02*
X103780038Y-83200744D01*
X103780038Y-83200744D02*
X103827657Y-83248363D01*
X103827657Y-83248363D02*
X103922895Y-83295982D01*
X103922895Y-83295982D02*
X104018133Y-83295982D01*
X104018133Y-83295982D02*
X104160990Y-83248363D01*
X104160990Y-83248363D02*
X104732419Y-82676935D01*
X104732419Y-82676935D02*
X104732419Y-83295982D01*
D10*
X124890416Y-55693330D02*
X124938035Y-55740950D01*
X124938035Y-55740950D02*
X125080892Y-55788569D01*
X125080892Y-55788569D02*
X125176130Y-55788569D01*
X125176130Y-55788569D02*
X125318987Y-55740950D01*
X125318987Y-55740950D02*
X125414225Y-55645711D01*
X125414225Y-55645711D02*
X125461844Y-55550473D01*
X125461844Y-55550473D02*
X125509463Y-55359997D01*
X125509463Y-55359997D02*
X125509463Y-55217140D01*
X125509463Y-55217140D02*
X125461844Y-55026664D01*
X125461844Y-55026664D02*
X125414225Y-54931426D01*
X125414225Y-54931426D02*
X125318987Y-54836188D01*
X125318987Y-54836188D02*
X125176130Y-54788569D01*
X125176130Y-54788569D02*
X125080892Y-54788569D01*
X125080892Y-54788569D02*
X124938035Y-54836188D01*
X124938035Y-54836188D02*
X124890416Y-54883807D01*
X124033273Y-54788569D02*
X124223749Y-54788569D01*
X124223749Y-54788569D02*
X124318987Y-54836188D01*
X124318987Y-54836188D02*
X124366606Y-54883807D01*
X124366606Y-54883807D02*
X124461844Y-55026664D01*
X124461844Y-55026664D02*
X124509463Y-55217140D01*
X124509463Y-55217140D02*
X124509463Y-55598092D01*
X124509463Y-55598092D02*
X124461844Y-55693330D01*
X124461844Y-55693330D02*
X124414225Y-55740950D01*
X124414225Y-55740950D02*
X124318987Y-55788569D01*
X124318987Y-55788569D02*
X124128511Y-55788569D01*
X124128511Y-55788569D02*
X124033273Y-55740950D01*
X124033273Y-55740950D02*
X123985654Y-55693330D01*
X123985654Y-55693330D02*
X123938035Y-55598092D01*
X123938035Y-55598092D02*
X123938035Y-55359997D01*
X123938035Y-55359997D02*
X123985654Y-55264759D01*
X123985654Y-55264759D02*
X124033273Y-55217140D01*
X124033273Y-55217140D02*
X124128511Y-55169521D01*
X124128511Y-55169521D02*
X124318987Y-55169521D01*
X124318987Y-55169521D02*
X124414225Y-55217140D01*
X124414225Y-55217140D02*
X124461844Y-55264759D01*
X124461844Y-55264759D02*
X124509463Y-55359997D01*
X76533333Y-49376009D02*
X76866666Y-49376009D01*
X76866666Y-49899819D02*
X76866666Y-48899819D01*
X76866666Y-48899819D02*
X76390476Y-48899819D01*
X75485714Y-49899819D02*
X76057142Y-49899819D01*
X75771428Y-49899819D02*
X75771428Y-48899819D01*
X75771428Y-48899819D02*
X75866666Y-49042676D01*
X75866666Y-49042676D02*
X75961904Y-49137914D01*
X75961904Y-49137914D02*
X76057142Y-49185533D01*
X67765416Y-78443330D02*
X67813035Y-78490950D01*
X67813035Y-78490950D02*
X67955892Y-78538569D01*
X67955892Y-78538569D02*
X68051130Y-78538569D01*
X68051130Y-78538569D02*
X68193987Y-78490950D01*
X68193987Y-78490950D02*
X68289225Y-78395711D01*
X68289225Y-78395711D02*
X68336844Y-78300473D01*
X68336844Y-78300473D02*
X68384463Y-78109997D01*
X68384463Y-78109997D02*
X68384463Y-77967140D01*
X68384463Y-77967140D02*
X68336844Y-77776664D01*
X68336844Y-77776664D02*
X68289225Y-77681426D01*
X68289225Y-77681426D02*
X68193987Y-77586188D01*
X68193987Y-77586188D02*
X68051130Y-77538569D01*
X68051130Y-77538569D02*
X67955892Y-77538569D01*
X67955892Y-77538569D02*
X67813035Y-77586188D01*
X67813035Y-77586188D02*
X67765416Y-77633807D01*
X66813035Y-78538569D02*
X67384463Y-78538569D01*
X67098749Y-78538569D02*
X67098749Y-77538569D01*
X67098749Y-77538569D02*
X67193987Y-77681426D01*
X67193987Y-77681426D02*
X67289225Y-77776664D01*
X67289225Y-77776664D02*
X67384463Y-77824283D01*
X124940416Y-57403330D02*
X124988035Y-57450950D01*
X124988035Y-57450950D02*
X125130892Y-57498569D01*
X125130892Y-57498569D02*
X125226130Y-57498569D01*
X125226130Y-57498569D02*
X125368987Y-57450950D01*
X125368987Y-57450950D02*
X125464225Y-57355711D01*
X125464225Y-57355711D02*
X125511844Y-57260473D01*
X125511844Y-57260473D02*
X125559463Y-57069997D01*
X125559463Y-57069997D02*
X125559463Y-56927140D01*
X125559463Y-56927140D02*
X125511844Y-56736664D01*
X125511844Y-56736664D02*
X125464225Y-56641426D01*
X125464225Y-56641426D02*
X125368987Y-56546188D01*
X125368987Y-56546188D02*
X125226130Y-56498569D01*
X125226130Y-56498569D02*
X125130892Y-56498569D01*
X125130892Y-56498569D02*
X124988035Y-56546188D01*
X124988035Y-56546188D02*
X124940416Y-56593807D01*
X124607082Y-56498569D02*
X123940416Y-56498569D01*
X123940416Y-56498569D02*
X124368987Y-57498569D01*
X68551607Y-76418569D02*
X68884940Y-75942378D01*
X69123035Y-76418569D02*
X69123035Y-75418569D01*
X69123035Y-75418569D02*
X68742083Y-75418569D01*
X68742083Y-75418569D02*
X68646845Y-75466188D01*
X68646845Y-75466188D02*
X68599226Y-75513807D01*
X68599226Y-75513807D02*
X68551607Y-75609045D01*
X68551607Y-75609045D02*
X68551607Y-75751902D01*
X68551607Y-75751902D02*
X68599226Y-75847140D01*
X68599226Y-75847140D02*
X68646845Y-75894759D01*
X68646845Y-75894759D02*
X68742083Y-75942378D01*
X68742083Y-75942378D02*
X69123035Y-75942378D01*
X67599226Y-76418569D02*
X68170654Y-76418569D01*
X67884940Y-76418569D02*
X67884940Y-75418569D01*
X67884940Y-75418569D02*
X67980178Y-75561426D01*
X67980178Y-75561426D02*
X68075416Y-75656664D01*
X68075416Y-75656664D02*
X68170654Y-75704283D01*
X66742083Y-75751902D02*
X66742083Y-76418569D01*
X66980178Y-75370950D02*
X67218273Y-76085235D01*
X67218273Y-76085235D02*
X66599226Y-76085235D01*
X48572857Y-61884819D02*
X48906190Y-61408628D01*
X49144285Y-61884819D02*
X49144285Y-60884819D01*
X49144285Y-60884819D02*
X48763333Y-60884819D01*
X48763333Y-60884819D02*
X48668095Y-60932438D01*
X48668095Y-60932438D02*
X48620476Y-60980057D01*
X48620476Y-60980057D02*
X48572857Y-61075295D01*
X48572857Y-61075295D02*
X48572857Y-61218152D01*
X48572857Y-61218152D02*
X48620476Y-61313390D01*
X48620476Y-61313390D02*
X48668095Y-61361009D01*
X48668095Y-61361009D02*
X48763333Y-61408628D01*
X48763333Y-61408628D02*
X49144285Y-61408628D01*
X47620476Y-61884819D02*
X48191904Y-61884819D01*
X47906190Y-61884819D02*
X47906190Y-60884819D01*
X47906190Y-60884819D02*
X48001428Y-61027676D01*
X48001428Y-61027676D02*
X48096666Y-61122914D01*
X48096666Y-61122914D02*
X48191904Y-61170533D01*
X47001428Y-60884819D02*
X46906190Y-60884819D01*
X46906190Y-60884819D02*
X46810952Y-60932438D01*
X46810952Y-60932438D02*
X46763333Y-60980057D01*
X46763333Y-60980057D02*
X46715714Y-61075295D01*
X46715714Y-61075295D02*
X46668095Y-61265771D01*
X46668095Y-61265771D02*
X46668095Y-61503866D01*
X46668095Y-61503866D02*
X46715714Y-61694342D01*
X46715714Y-61694342D02*
X46763333Y-61789580D01*
X46763333Y-61789580D02*
X46810952Y-61837200D01*
X46810952Y-61837200D02*
X46906190Y-61884819D01*
X46906190Y-61884819D02*
X47001428Y-61884819D01*
X47001428Y-61884819D02*
X47096666Y-61837200D01*
X47096666Y-61837200D02*
X47144285Y-61789580D01*
X47144285Y-61789580D02*
X47191904Y-61694342D01*
X47191904Y-61694342D02*
X47239523Y-61503866D01*
X47239523Y-61503866D02*
X47239523Y-61265771D01*
X47239523Y-61265771D02*
X47191904Y-61075295D01*
X47191904Y-61075295D02*
X47144285Y-60980057D01*
X47144285Y-60980057D02*
X47096666Y-60932438D01*
X47096666Y-60932438D02*
X47001428Y-60884819D01*
X114466666Y-83559194D02*
X114799999Y-83083003D01*
X115038094Y-83559194D02*
X115038094Y-82559194D01*
X115038094Y-82559194D02*
X114657142Y-82559194D01*
X114657142Y-82559194D02*
X114561904Y-82606813D01*
X114561904Y-82606813D02*
X114514285Y-82654432D01*
X114514285Y-82654432D02*
X114466666Y-82749670D01*
X114466666Y-82749670D02*
X114466666Y-82892527D01*
X114466666Y-82892527D02*
X114514285Y-82987765D01*
X114514285Y-82987765D02*
X114561904Y-83035384D01*
X114561904Y-83035384D02*
X114657142Y-83083003D01*
X114657142Y-83083003D02*
X115038094Y-83083003D01*
X113895237Y-82987765D02*
X113990475Y-82940146D01*
X113990475Y-82940146D02*
X114038094Y-82892527D01*
X114038094Y-82892527D02*
X114085713Y-82797289D01*
X114085713Y-82797289D02*
X114085713Y-82749670D01*
X114085713Y-82749670D02*
X114038094Y-82654432D01*
X114038094Y-82654432D02*
X113990475Y-82606813D01*
X113990475Y-82606813D02*
X113895237Y-82559194D01*
X113895237Y-82559194D02*
X113704761Y-82559194D01*
X113704761Y-82559194D02*
X113609523Y-82606813D01*
X113609523Y-82606813D02*
X113561904Y-82654432D01*
X113561904Y-82654432D02*
X113514285Y-82749670D01*
X113514285Y-82749670D02*
X113514285Y-82797289D01*
X113514285Y-82797289D02*
X113561904Y-82892527D01*
X113561904Y-82892527D02*
X113609523Y-82940146D01*
X113609523Y-82940146D02*
X113704761Y-82987765D01*
X113704761Y-82987765D02*
X113895237Y-82987765D01*
X113895237Y-82987765D02*
X113990475Y-83035384D01*
X113990475Y-83035384D02*
X114038094Y-83083003D01*
X114038094Y-83083003D02*
X114085713Y-83178241D01*
X114085713Y-83178241D02*
X114085713Y-83368717D01*
X114085713Y-83368717D02*
X114038094Y-83463955D01*
X114038094Y-83463955D02*
X113990475Y-83511575D01*
X113990475Y-83511575D02*
X113895237Y-83559194D01*
X113895237Y-83559194D02*
X113704761Y-83559194D01*
X113704761Y-83559194D02*
X113609523Y-83511575D01*
X113609523Y-83511575D02*
X113561904Y-83463955D01*
X113561904Y-83463955D02*
X113514285Y-83368717D01*
X113514285Y-83368717D02*
X113514285Y-83178241D01*
X113514285Y-83178241D02*
X113561904Y-83083003D01*
X113561904Y-83083003D02*
X113609523Y-83035384D01*
X113609523Y-83035384D02*
X113704761Y-82987765D01*
X120440297Y-82273569D02*
X120916487Y-82273569D01*
X120916487Y-82273569D02*
X120916487Y-81273569D01*
X120106963Y-81749759D02*
X119773630Y-81749759D01*
X119630773Y-82273569D02*
X120106963Y-82273569D01*
X120106963Y-82273569D02*
X120106963Y-81273569D01*
X120106963Y-81273569D02*
X119630773Y-81273569D01*
X119202201Y-82273569D02*
X119202201Y-81273569D01*
X119202201Y-81273569D02*
X118964106Y-81273569D01*
X118964106Y-81273569D02*
X118821249Y-81321188D01*
X118821249Y-81321188D02*
X118726011Y-81416426D01*
X118726011Y-81416426D02*
X118678392Y-81511664D01*
X118678392Y-81511664D02*
X118630773Y-81702140D01*
X118630773Y-81702140D02*
X118630773Y-81844997D01*
X118630773Y-81844997D02*
X118678392Y-82035473D01*
X118678392Y-82035473D02*
X118726011Y-82130711D01*
X118726011Y-82130711D02*
X118821249Y-82225950D01*
X118821249Y-82225950D02*
X118964106Y-82273569D01*
X118964106Y-82273569D02*
X119202201Y-82273569D01*
X118059344Y-81702140D02*
X118154582Y-81654521D01*
X118154582Y-81654521D02*
X118202201Y-81606902D01*
X118202201Y-81606902D02*
X118249820Y-81511664D01*
X118249820Y-81511664D02*
X118249820Y-81464045D01*
X118249820Y-81464045D02*
X118202201Y-81368807D01*
X118202201Y-81368807D02*
X118154582Y-81321188D01*
X118154582Y-81321188D02*
X118059344Y-81273569D01*
X118059344Y-81273569D02*
X117868868Y-81273569D01*
X117868868Y-81273569D02*
X117773630Y-81321188D01*
X117773630Y-81321188D02*
X117726011Y-81368807D01*
X117726011Y-81368807D02*
X117678392Y-81464045D01*
X117678392Y-81464045D02*
X117678392Y-81511664D01*
X117678392Y-81511664D02*
X117726011Y-81606902D01*
X117726011Y-81606902D02*
X117773630Y-81654521D01*
X117773630Y-81654521D02*
X117868868Y-81702140D01*
X117868868Y-81702140D02*
X118059344Y-81702140D01*
X118059344Y-81702140D02*
X118154582Y-81749759D01*
X118154582Y-81749759D02*
X118202201Y-81797378D01*
X118202201Y-81797378D02*
X118249820Y-81892616D01*
X118249820Y-81892616D02*
X118249820Y-82083092D01*
X118249820Y-82083092D02*
X118202201Y-82178330D01*
X118202201Y-82178330D02*
X118154582Y-82225950D01*
X118154582Y-82225950D02*
X118059344Y-82273569D01*
X118059344Y-82273569D02*
X117868868Y-82273569D01*
X117868868Y-82273569D02*
X117773630Y-82225950D01*
X117773630Y-82225950D02*
X117726011Y-82178330D01*
X117726011Y-82178330D02*
X117678392Y-82083092D01*
X117678392Y-82083092D02*
X117678392Y-81892616D01*
X117678392Y-81892616D02*
X117726011Y-81797378D01*
X117726011Y-81797378D02*
X117773630Y-81749759D01*
X117773630Y-81749759D02*
X117868868Y-81702140D01*
X61106069Y-58315892D02*
X60629878Y-57982559D01*
X61106069Y-57744464D02*
X60106069Y-57744464D01*
X60106069Y-57744464D02*
X60106069Y-58125416D01*
X60106069Y-58125416D02*
X60153688Y-58220654D01*
X60153688Y-58220654D02*
X60201307Y-58268273D01*
X60201307Y-58268273D02*
X60296545Y-58315892D01*
X60296545Y-58315892D02*
X60439402Y-58315892D01*
X60439402Y-58315892D02*
X60534640Y-58268273D01*
X60534640Y-58268273D02*
X60582259Y-58220654D01*
X60582259Y-58220654D02*
X60629878Y-58125416D01*
X60629878Y-58125416D02*
X60629878Y-57744464D01*
X61106069Y-59268273D02*
X61106069Y-58696845D01*
X61106069Y-58982559D02*
X60106069Y-58982559D01*
X60106069Y-58982559D02*
X60248926Y-58887321D01*
X60248926Y-58887321D02*
X60344164Y-58792083D01*
X60344164Y-58792083D02*
X60391783Y-58696845D01*
X60106069Y-60125416D02*
X60106069Y-59934940D01*
X60106069Y-59934940D02*
X60153688Y-59839702D01*
X60153688Y-59839702D02*
X60201307Y-59792083D01*
X60201307Y-59792083D02*
X60344164Y-59696845D01*
X60344164Y-59696845D02*
X60534640Y-59649226D01*
X60534640Y-59649226D02*
X60915592Y-59649226D01*
X60915592Y-59649226D02*
X61010830Y-59696845D01*
X61010830Y-59696845D02*
X61058450Y-59744464D01*
X61058450Y-59744464D02*
X61106069Y-59839702D01*
X61106069Y-59839702D02*
X61106069Y-60030178D01*
X61106069Y-60030178D02*
X61058450Y-60125416D01*
X61058450Y-60125416D02*
X61010830Y-60173035D01*
X61010830Y-60173035D02*
X60915592Y-60220654D01*
X60915592Y-60220654D02*
X60677497Y-60220654D01*
X60677497Y-60220654D02*
X60582259Y-60173035D01*
X60582259Y-60173035D02*
X60534640Y-60125416D01*
X60534640Y-60125416D02*
X60487021Y-60030178D01*
X60487021Y-60030178D02*
X60487021Y-59839702D01*
X60487021Y-59839702D02*
X60534640Y-59744464D01*
X60534640Y-59744464D02*
X60582259Y-59696845D01*
X60582259Y-59696845D02*
X60677497Y-59649226D01*
X95416666Y-64509194D02*
X95749999Y-64033003D01*
X95988094Y-64509194D02*
X95988094Y-63509194D01*
X95988094Y-63509194D02*
X95607142Y-63509194D01*
X95607142Y-63509194D02*
X95511904Y-63556813D01*
X95511904Y-63556813D02*
X95464285Y-63604432D01*
X95464285Y-63604432D02*
X95416666Y-63699670D01*
X95416666Y-63699670D02*
X95416666Y-63842527D01*
X95416666Y-63842527D02*
X95464285Y-63937765D01*
X95464285Y-63937765D02*
X95511904Y-63985384D01*
X95511904Y-63985384D02*
X95607142Y-64033003D01*
X95607142Y-64033003D02*
X95988094Y-64033003D01*
X95083332Y-63509194D02*
X94464285Y-63509194D01*
X94464285Y-63509194D02*
X94797618Y-63890146D01*
X94797618Y-63890146D02*
X94654761Y-63890146D01*
X94654761Y-63890146D02*
X94559523Y-63937765D01*
X94559523Y-63937765D02*
X94511904Y-63985384D01*
X94511904Y-63985384D02*
X94464285Y-64080622D01*
X94464285Y-64080622D02*
X94464285Y-64318717D01*
X94464285Y-64318717D02*
X94511904Y-64413955D01*
X94511904Y-64413955D02*
X94559523Y-64461575D01*
X94559523Y-64461575D02*
X94654761Y-64509194D01*
X94654761Y-64509194D02*
X94940475Y-64509194D01*
X94940475Y-64509194D02*
X95035713Y-64461575D01*
X95035713Y-64461575D02*
X95083332Y-64413955D01*
D12*
X65632419Y-80915030D02*
X65632419Y-81486458D01*
X66632419Y-81200744D02*
X65632419Y-81200744D01*
X66584800Y-81772173D02*
X66632419Y-81915030D01*
X66632419Y-81915030D02*
X66632419Y-82153125D01*
X66632419Y-82153125D02*
X66584800Y-82248363D01*
X66584800Y-82248363D02*
X66537180Y-82295982D01*
X66537180Y-82295982D02*
X66441942Y-82343601D01*
X66441942Y-82343601D02*
X66346704Y-82343601D01*
X66346704Y-82343601D02*
X66251466Y-82295982D01*
X66251466Y-82295982D02*
X66203847Y-82248363D01*
X66203847Y-82248363D02*
X66156228Y-82153125D01*
X66156228Y-82153125D02*
X66108609Y-81962649D01*
X66108609Y-81962649D02*
X66060990Y-81867411D01*
X66060990Y-81867411D02*
X66013371Y-81819792D01*
X66013371Y-81819792D02*
X65918133Y-81772173D01*
X65918133Y-81772173D02*
X65822895Y-81772173D01*
X65822895Y-81772173D02*
X65727657Y-81819792D01*
X65727657Y-81819792D02*
X65680038Y-81867411D01*
X65680038Y-81867411D02*
X65632419Y-81962649D01*
X65632419Y-81962649D02*
X65632419Y-82200744D01*
X65632419Y-82200744D02*
X65680038Y-82343601D01*
X66632419Y-83295982D02*
X66632419Y-82724554D01*
X66632419Y-83010268D02*
X65632419Y-83010268D01*
X65632419Y-83010268D02*
X65775276Y-82915030D01*
X65775276Y-82915030D02*
X65870514Y-82819792D01*
X65870514Y-82819792D02*
X65918133Y-82724554D01*
D10*
X54260297Y-60073569D02*
X54736487Y-60073569D01*
X54736487Y-60073569D02*
X54736487Y-59073569D01*
X53926963Y-59549759D02*
X53593630Y-59549759D01*
X53450773Y-60073569D02*
X53926963Y-60073569D01*
X53926963Y-60073569D02*
X53926963Y-59073569D01*
X53926963Y-59073569D02*
X53450773Y-59073569D01*
X53022201Y-60073569D02*
X53022201Y-59073569D01*
X53022201Y-59073569D02*
X52784106Y-59073569D01*
X52784106Y-59073569D02*
X52641249Y-59121188D01*
X52641249Y-59121188D02*
X52546011Y-59216426D01*
X52546011Y-59216426D02*
X52498392Y-59311664D01*
X52498392Y-59311664D02*
X52450773Y-59502140D01*
X52450773Y-59502140D02*
X52450773Y-59644997D01*
X52450773Y-59644997D02*
X52498392Y-59835473D01*
X52498392Y-59835473D02*
X52546011Y-59930711D01*
X52546011Y-59930711D02*
X52641249Y-60025950D01*
X52641249Y-60025950D02*
X52784106Y-60073569D01*
X52784106Y-60073569D02*
X53022201Y-60073569D01*
X51498392Y-60073569D02*
X52069820Y-60073569D01*
X51784106Y-60073569D02*
X51784106Y-59073569D01*
X51784106Y-59073569D02*
X51879344Y-59216426D01*
X51879344Y-59216426D02*
X51974582Y-59311664D01*
X51974582Y-59311664D02*
X52069820Y-59359283D01*
X120576607Y-63823330D02*
X120624226Y-63870950D01*
X120624226Y-63870950D02*
X120767083Y-63918569D01*
X120767083Y-63918569D02*
X120862321Y-63918569D01*
X120862321Y-63918569D02*
X121005178Y-63870950D01*
X121005178Y-63870950D02*
X121100416Y-63775711D01*
X121100416Y-63775711D02*
X121148035Y-63680473D01*
X121148035Y-63680473D02*
X121195654Y-63489997D01*
X121195654Y-63489997D02*
X121195654Y-63347140D01*
X121195654Y-63347140D02*
X121148035Y-63156664D01*
X121148035Y-63156664D02*
X121100416Y-63061426D01*
X121100416Y-63061426D02*
X121005178Y-62966188D01*
X121005178Y-62966188D02*
X120862321Y-62918569D01*
X120862321Y-62918569D02*
X120767083Y-62918569D01*
X120767083Y-62918569D02*
X120624226Y-62966188D01*
X120624226Y-62966188D02*
X120576607Y-63013807D01*
X119624226Y-63918569D02*
X120195654Y-63918569D01*
X119909940Y-63918569D02*
X119909940Y-62918569D01*
X119909940Y-62918569D02*
X120005178Y-63061426D01*
X120005178Y-63061426D02*
X120100416Y-63156664D01*
X120100416Y-63156664D02*
X120195654Y-63204283D01*
X118671845Y-63918569D02*
X119243273Y-63918569D01*
X118957559Y-63918569D02*
X118957559Y-62918569D01*
X118957559Y-62918569D02*
X119052797Y-63061426D01*
X119052797Y-63061426D02*
X119148035Y-63156664D01*
X119148035Y-63156664D02*
X119243273Y-63204283D01*
X48366666Y-70114819D02*
X48699999Y-69638628D01*
X48938094Y-70114819D02*
X48938094Y-69114819D01*
X48938094Y-69114819D02*
X48557142Y-69114819D01*
X48557142Y-69114819D02*
X48461904Y-69162438D01*
X48461904Y-69162438D02*
X48414285Y-69210057D01*
X48414285Y-69210057D02*
X48366666Y-69305295D01*
X48366666Y-69305295D02*
X48366666Y-69448152D01*
X48366666Y-69448152D02*
X48414285Y-69543390D01*
X48414285Y-69543390D02*
X48461904Y-69591009D01*
X48461904Y-69591009D02*
X48557142Y-69638628D01*
X48557142Y-69638628D02*
X48938094Y-69638628D01*
X47890475Y-70114819D02*
X47699999Y-70114819D01*
X47699999Y-70114819D02*
X47604761Y-70067200D01*
X47604761Y-70067200D02*
X47557142Y-70019580D01*
X47557142Y-70019580D02*
X47461904Y-69876723D01*
X47461904Y-69876723D02*
X47414285Y-69686247D01*
X47414285Y-69686247D02*
X47414285Y-69305295D01*
X47414285Y-69305295D02*
X47461904Y-69210057D01*
X47461904Y-69210057D02*
X47509523Y-69162438D01*
X47509523Y-69162438D02*
X47604761Y-69114819D01*
X47604761Y-69114819D02*
X47795237Y-69114819D01*
X47795237Y-69114819D02*
X47890475Y-69162438D01*
X47890475Y-69162438D02*
X47938094Y-69210057D01*
X47938094Y-69210057D02*
X47985713Y-69305295D01*
X47985713Y-69305295D02*
X47985713Y-69543390D01*
X47985713Y-69543390D02*
X47938094Y-69638628D01*
X47938094Y-69638628D02*
X47890475Y-69686247D01*
X47890475Y-69686247D02*
X47795237Y-69733866D01*
X47795237Y-69733866D02*
X47604761Y-69733866D01*
X47604761Y-69733866D02*
X47509523Y-69686247D01*
X47509523Y-69686247D02*
X47461904Y-69638628D01*
X47461904Y-69638628D02*
X47414285Y-69543390D01*
X82358628Y-78863809D02*
X82834819Y-78863809D01*
X81834819Y-78530476D02*
X82358628Y-78863809D01*
X82358628Y-78863809D02*
X81834819Y-79197142D01*
X82834819Y-80054285D02*
X82834819Y-79482857D01*
X82834819Y-79768571D02*
X81834819Y-79768571D01*
X81834819Y-79768571D02*
X81977676Y-79673333D01*
X81977676Y-79673333D02*
X82072914Y-79578095D01*
X82072914Y-79578095D02*
X82120533Y-79482857D01*
D11*
X48558332Y-84308775D02*
X48824999Y-83927822D01*
X49015475Y-84308775D02*
X49015475Y-83508775D01*
X49015475Y-83508775D02*
X48710713Y-83508775D01*
X48710713Y-83508775D02*
X48634523Y-83546870D01*
X48634523Y-83546870D02*
X48596428Y-83584965D01*
X48596428Y-83584965D02*
X48558332Y-83661156D01*
X48558332Y-83661156D02*
X48558332Y-83775441D01*
X48558332Y-83775441D02*
X48596428Y-83851632D01*
X48596428Y-83851632D02*
X48634523Y-83889727D01*
X48634523Y-83889727D02*
X48710713Y-83927822D01*
X48710713Y-83927822D02*
X49015475Y-83927822D01*
X47796428Y-83546870D02*
X47872618Y-83508775D01*
X47872618Y-83508775D02*
X47986904Y-83508775D01*
X47986904Y-83508775D02*
X48101190Y-83546870D01*
X48101190Y-83546870D02*
X48177380Y-83623060D01*
X48177380Y-83623060D02*
X48215475Y-83699251D01*
X48215475Y-83699251D02*
X48253571Y-83851632D01*
X48253571Y-83851632D02*
X48253571Y-83965918D01*
X48253571Y-83965918D02*
X48215475Y-84118299D01*
X48215475Y-84118299D02*
X48177380Y-84194489D01*
X48177380Y-84194489D02*
X48101190Y-84270680D01*
X48101190Y-84270680D02*
X47986904Y-84308775D01*
X47986904Y-84308775D02*
X47910713Y-84308775D01*
X47910713Y-84308775D02*
X47796428Y-84270680D01*
X47796428Y-84270680D02*
X47758332Y-84232584D01*
X47758332Y-84232584D02*
X47758332Y-83965918D01*
X47758332Y-83965918D02*
X47910713Y-83965918D01*
X47148809Y-83889727D02*
X47034523Y-83927822D01*
X47034523Y-83927822D02*
X46996428Y-83965918D01*
X46996428Y-83965918D02*
X46958332Y-84042108D01*
X46958332Y-84042108D02*
X46958332Y-84156394D01*
X46958332Y-84156394D02*
X46996428Y-84232584D01*
X46996428Y-84232584D02*
X47034523Y-84270680D01*
X47034523Y-84270680D02*
X47110713Y-84308775D01*
X47110713Y-84308775D02*
X47415475Y-84308775D01*
X47415475Y-84308775D02*
X47415475Y-83508775D01*
X47415475Y-83508775D02*
X47148809Y-83508775D01*
X47148809Y-83508775D02*
X47072618Y-83546870D01*
X47072618Y-83546870D02*
X47034523Y-83584965D01*
X47034523Y-83584965D02*
X46996428Y-83661156D01*
X46996428Y-83661156D02*
X46996428Y-83737346D01*
X46996428Y-83737346D02*
X47034523Y-83813537D01*
X47034523Y-83813537D02*
X47072618Y-83851632D01*
X47072618Y-83851632D02*
X47148809Y-83889727D01*
X47148809Y-83889727D02*
X47415475Y-83889727D01*
X46272618Y-83508775D02*
X46424999Y-83508775D01*
X46424999Y-83508775D02*
X46501190Y-83546870D01*
X46501190Y-83546870D02*
X46539285Y-83584965D01*
X46539285Y-83584965D02*
X46615475Y-83699251D01*
X46615475Y-83699251D02*
X46653571Y-83851632D01*
X46653571Y-83851632D02*
X46653571Y-84156394D01*
X46653571Y-84156394D02*
X46615475Y-84232584D01*
X46615475Y-84232584D02*
X46577380Y-84270680D01*
X46577380Y-84270680D02*
X46501190Y-84308775D01*
X46501190Y-84308775D02*
X46348809Y-84308775D01*
X46348809Y-84308775D02*
X46272618Y-84270680D01*
X46272618Y-84270680D02*
X46234523Y-84232584D01*
X46234523Y-84232584D02*
X46196428Y-84156394D01*
X46196428Y-84156394D02*
X46196428Y-83965918D01*
X46196428Y-83965918D02*
X46234523Y-83889727D01*
X46234523Y-83889727D02*
X46272618Y-83851632D01*
X46272618Y-83851632D02*
X46348809Y-83813537D01*
X46348809Y-83813537D02*
X46501190Y-83813537D01*
X46501190Y-83813537D02*
X46577380Y-83851632D01*
X46577380Y-83851632D02*
X46615475Y-83889727D01*
X46615475Y-83889727D02*
X46653571Y-83965918D01*
D10*
X80920297Y-60463569D02*
X81396487Y-60463569D01*
X81396487Y-60463569D02*
X81396487Y-59463569D01*
X80586963Y-59939759D02*
X80253630Y-59939759D01*
X80110773Y-60463569D02*
X80586963Y-60463569D01*
X80586963Y-60463569D02*
X80586963Y-59463569D01*
X80586963Y-59463569D02*
X80110773Y-59463569D01*
X79682201Y-60463569D02*
X79682201Y-59463569D01*
X79682201Y-59463569D02*
X79444106Y-59463569D01*
X79444106Y-59463569D02*
X79301249Y-59511188D01*
X79301249Y-59511188D02*
X79206011Y-59606426D01*
X79206011Y-59606426D02*
X79158392Y-59701664D01*
X79158392Y-59701664D02*
X79110773Y-59892140D01*
X79110773Y-59892140D02*
X79110773Y-60034997D01*
X79110773Y-60034997D02*
X79158392Y-60225473D01*
X79158392Y-60225473D02*
X79206011Y-60320711D01*
X79206011Y-60320711D02*
X79301249Y-60415950D01*
X79301249Y-60415950D02*
X79444106Y-60463569D01*
X79444106Y-60463569D02*
X79682201Y-60463569D01*
X78729820Y-59558807D02*
X78682201Y-59511188D01*
X78682201Y-59511188D02*
X78586963Y-59463569D01*
X78586963Y-59463569D02*
X78348868Y-59463569D01*
X78348868Y-59463569D02*
X78253630Y-59511188D01*
X78253630Y-59511188D02*
X78206011Y-59558807D01*
X78206011Y-59558807D02*
X78158392Y-59654045D01*
X78158392Y-59654045D02*
X78158392Y-59749283D01*
X78158392Y-59749283D02*
X78206011Y-59892140D01*
X78206011Y-59892140D02*
X78777439Y-60463569D01*
X78777439Y-60463569D02*
X78158392Y-60463569D01*
X106629819Y-63531845D02*
X107439342Y-63531845D01*
X107439342Y-63531845D02*
X107534580Y-63579464D01*
X107534580Y-63579464D02*
X107582200Y-63627083D01*
X107582200Y-63627083D02*
X107629819Y-63722321D01*
X107629819Y-63722321D02*
X107629819Y-63912797D01*
X107629819Y-63912797D02*
X107582200Y-64008035D01*
X107582200Y-64008035D02*
X107534580Y-64055654D01*
X107534580Y-64055654D02*
X107439342Y-64103273D01*
X107439342Y-64103273D02*
X106629819Y-64103273D01*
X106629819Y-64484226D02*
X106629819Y-65103273D01*
X106629819Y-65103273D02*
X107010771Y-64769940D01*
X107010771Y-64769940D02*
X107010771Y-64912797D01*
X107010771Y-64912797D02*
X107058390Y-65008035D01*
X107058390Y-65008035D02*
X107106009Y-65055654D01*
X107106009Y-65055654D02*
X107201247Y-65103273D01*
X107201247Y-65103273D02*
X107439342Y-65103273D01*
X107439342Y-65103273D02*
X107534580Y-65055654D01*
X107534580Y-65055654D02*
X107582200Y-65008035D01*
X107582200Y-65008035D02*
X107629819Y-64912797D01*
X107629819Y-64912797D02*
X107629819Y-64627083D01*
X107629819Y-64627083D02*
X107582200Y-64531845D01*
X107582200Y-64531845D02*
X107534580Y-64484226D01*
X120596607Y-62113330D02*
X120644226Y-62160950D01*
X120644226Y-62160950D02*
X120787083Y-62208569D01*
X120787083Y-62208569D02*
X120882321Y-62208569D01*
X120882321Y-62208569D02*
X121025178Y-62160950D01*
X121025178Y-62160950D02*
X121120416Y-62065711D01*
X121120416Y-62065711D02*
X121168035Y-61970473D01*
X121168035Y-61970473D02*
X121215654Y-61779997D01*
X121215654Y-61779997D02*
X121215654Y-61637140D01*
X121215654Y-61637140D02*
X121168035Y-61446664D01*
X121168035Y-61446664D02*
X121120416Y-61351426D01*
X121120416Y-61351426D02*
X121025178Y-61256188D01*
X121025178Y-61256188D02*
X120882321Y-61208569D01*
X120882321Y-61208569D02*
X120787083Y-61208569D01*
X120787083Y-61208569D02*
X120644226Y-61256188D01*
X120644226Y-61256188D02*
X120596607Y-61303807D01*
X119644226Y-62208569D02*
X120215654Y-62208569D01*
X119929940Y-62208569D02*
X119929940Y-61208569D01*
X119929940Y-61208569D02*
X120025178Y-61351426D01*
X120025178Y-61351426D02*
X120120416Y-61446664D01*
X120120416Y-61446664D02*
X120215654Y-61494283D01*
X119025178Y-61208569D02*
X118929940Y-61208569D01*
X118929940Y-61208569D02*
X118834702Y-61256188D01*
X118834702Y-61256188D02*
X118787083Y-61303807D01*
X118787083Y-61303807D02*
X118739464Y-61399045D01*
X118739464Y-61399045D02*
X118691845Y-61589521D01*
X118691845Y-61589521D02*
X118691845Y-61827616D01*
X118691845Y-61827616D02*
X118739464Y-62018092D01*
X118739464Y-62018092D02*
X118787083Y-62113330D01*
X118787083Y-62113330D02*
X118834702Y-62160950D01*
X118834702Y-62160950D02*
X118929940Y-62208569D01*
X118929940Y-62208569D02*
X119025178Y-62208569D01*
X119025178Y-62208569D02*
X119120416Y-62160950D01*
X119120416Y-62160950D02*
X119168035Y-62113330D01*
X119168035Y-62113330D02*
X119215654Y-62018092D01*
X119215654Y-62018092D02*
X119263273Y-61827616D01*
X119263273Y-61827616D02*
X119263273Y-61589521D01*
X119263273Y-61589521D02*
X119215654Y-61399045D01*
X119215654Y-61399045D02*
X119168035Y-61303807D01*
X119168035Y-61303807D02*
X119120416Y-61256188D01*
X119120416Y-61256188D02*
X119025178Y-61208569D01*
X104956666Y-67639580D02*
X105004285Y-67687200D01*
X105004285Y-67687200D02*
X105147142Y-67734819D01*
X105147142Y-67734819D02*
X105242380Y-67734819D01*
X105242380Y-67734819D02*
X105385237Y-67687200D01*
X105385237Y-67687200D02*
X105480475Y-67591961D01*
X105480475Y-67591961D02*
X105528094Y-67496723D01*
X105528094Y-67496723D02*
X105575713Y-67306247D01*
X105575713Y-67306247D02*
X105575713Y-67163390D01*
X105575713Y-67163390D02*
X105528094Y-66972914D01*
X105528094Y-66972914D02*
X105480475Y-66877676D01*
X105480475Y-66877676D02*
X105385237Y-66782438D01*
X105385237Y-66782438D02*
X105242380Y-66734819D01*
X105242380Y-66734819D02*
X105147142Y-66734819D01*
X105147142Y-66734819D02*
X105004285Y-66782438D01*
X105004285Y-66782438D02*
X104956666Y-66830057D01*
X104051904Y-66734819D02*
X104528094Y-66734819D01*
X104528094Y-66734819D02*
X104575713Y-67211009D01*
X104575713Y-67211009D02*
X104528094Y-67163390D01*
X104528094Y-67163390D02*
X104432856Y-67115771D01*
X104432856Y-67115771D02*
X104194761Y-67115771D01*
X104194761Y-67115771D02*
X104099523Y-67163390D01*
X104099523Y-67163390D02*
X104051904Y-67211009D01*
X104051904Y-67211009D02*
X104004285Y-67306247D01*
X104004285Y-67306247D02*
X104004285Y-67544342D01*
X104004285Y-67544342D02*
X104051904Y-67639580D01*
X104051904Y-67639580D02*
X104099523Y-67687200D01*
X104099523Y-67687200D02*
X104194761Y-67734819D01*
X104194761Y-67734819D02*
X104432856Y-67734819D01*
X104432856Y-67734819D02*
X104528094Y-67687200D01*
X104528094Y-67687200D02*
X104575713Y-67639580D01*
X124870416Y-58813330D02*
X124918035Y-58860950D01*
X124918035Y-58860950D02*
X125060892Y-58908569D01*
X125060892Y-58908569D02*
X125156130Y-58908569D01*
X125156130Y-58908569D02*
X125298987Y-58860950D01*
X125298987Y-58860950D02*
X125394225Y-58765711D01*
X125394225Y-58765711D02*
X125441844Y-58670473D01*
X125441844Y-58670473D02*
X125489463Y-58479997D01*
X125489463Y-58479997D02*
X125489463Y-58337140D01*
X125489463Y-58337140D02*
X125441844Y-58146664D01*
X125441844Y-58146664D02*
X125394225Y-58051426D01*
X125394225Y-58051426D02*
X125298987Y-57956188D01*
X125298987Y-57956188D02*
X125156130Y-57908569D01*
X125156130Y-57908569D02*
X125060892Y-57908569D01*
X125060892Y-57908569D02*
X124918035Y-57956188D01*
X124918035Y-57956188D02*
X124870416Y-58003807D01*
X124298987Y-58337140D02*
X124394225Y-58289521D01*
X124394225Y-58289521D02*
X124441844Y-58241902D01*
X124441844Y-58241902D02*
X124489463Y-58146664D01*
X124489463Y-58146664D02*
X124489463Y-58099045D01*
X124489463Y-58099045D02*
X124441844Y-58003807D01*
X124441844Y-58003807D02*
X124394225Y-57956188D01*
X124394225Y-57956188D02*
X124298987Y-57908569D01*
X124298987Y-57908569D02*
X124108511Y-57908569D01*
X124108511Y-57908569D02*
X124013273Y-57956188D01*
X124013273Y-57956188D02*
X123965654Y-58003807D01*
X123965654Y-58003807D02*
X123918035Y-58099045D01*
X123918035Y-58099045D02*
X123918035Y-58146664D01*
X123918035Y-58146664D02*
X123965654Y-58241902D01*
X123965654Y-58241902D02*
X124013273Y-58289521D01*
X124013273Y-58289521D02*
X124108511Y-58337140D01*
X124108511Y-58337140D02*
X124298987Y-58337140D01*
X124298987Y-58337140D02*
X124394225Y-58384759D01*
X124394225Y-58384759D02*
X124441844Y-58432378D01*
X124441844Y-58432378D02*
X124489463Y-58527616D01*
X124489463Y-58527616D02*
X124489463Y-58718092D01*
X124489463Y-58718092D02*
X124441844Y-58813330D01*
X124441844Y-58813330D02*
X124394225Y-58860950D01*
X124394225Y-58860950D02*
X124298987Y-58908569D01*
X124298987Y-58908569D02*
X124108511Y-58908569D01*
X124108511Y-58908569D02*
X124013273Y-58860950D01*
X124013273Y-58860950D02*
X123965654Y-58813330D01*
X123965654Y-58813330D02*
X123918035Y-58718092D01*
X123918035Y-58718092D02*
X123918035Y-58527616D01*
X123918035Y-58527616D02*
X123965654Y-58432378D01*
X123965654Y-58432378D02*
X124013273Y-58384759D01*
X124013273Y-58384759D02*
X124108511Y-58337140D01*
X120836607Y-66993330D02*
X120884226Y-67040950D01*
X120884226Y-67040950D02*
X121027083Y-67088569D01*
X121027083Y-67088569D02*
X121122321Y-67088569D01*
X121122321Y-67088569D02*
X121265178Y-67040950D01*
X121265178Y-67040950D02*
X121360416Y-66945711D01*
X121360416Y-66945711D02*
X121408035Y-66850473D01*
X121408035Y-66850473D02*
X121455654Y-66659997D01*
X121455654Y-66659997D02*
X121455654Y-66517140D01*
X121455654Y-66517140D02*
X121408035Y-66326664D01*
X121408035Y-66326664D02*
X121360416Y-66231426D01*
X121360416Y-66231426D02*
X121265178Y-66136188D01*
X121265178Y-66136188D02*
X121122321Y-66088569D01*
X121122321Y-66088569D02*
X121027083Y-66088569D01*
X121027083Y-66088569D02*
X120884226Y-66136188D01*
X120884226Y-66136188D02*
X120836607Y-66183807D01*
X119884226Y-67088569D02*
X120455654Y-67088569D01*
X120169940Y-67088569D02*
X120169940Y-66088569D01*
X120169940Y-66088569D02*
X120265178Y-66231426D01*
X120265178Y-66231426D02*
X120360416Y-66326664D01*
X120360416Y-66326664D02*
X120455654Y-66374283D01*
X119550892Y-66088569D02*
X118931845Y-66088569D01*
X118931845Y-66088569D02*
X119265178Y-66469521D01*
X119265178Y-66469521D02*
X119122321Y-66469521D01*
X119122321Y-66469521D02*
X119027083Y-66517140D01*
X119027083Y-66517140D02*
X118979464Y-66564759D01*
X118979464Y-66564759D02*
X118931845Y-66659997D01*
X118931845Y-66659997D02*
X118931845Y-66898092D01*
X118931845Y-66898092D02*
X118979464Y-66993330D01*
X118979464Y-66993330D02*
X119027083Y-67040950D01*
X119027083Y-67040950D02*
X119122321Y-67088569D01*
X119122321Y-67088569D02*
X119408035Y-67088569D01*
X119408035Y-67088569D02*
X119503273Y-67040950D01*
X119503273Y-67040950D02*
X119550892Y-66993330D01*
X86241904Y-67864819D02*
X86241904Y-68674342D01*
X86241904Y-68674342D02*
X86194285Y-68769580D01*
X86194285Y-68769580D02*
X86146666Y-68817200D01*
X86146666Y-68817200D02*
X86051428Y-68864819D01*
X86051428Y-68864819D02*
X85860952Y-68864819D01*
X85860952Y-68864819D02*
X85765714Y-68817200D01*
X85765714Y-68817200D02*
X85718095Y-68769580D01*
X85718095Y-68769580D02*
X85670476Y-68674342D01*
X85670476Y-68674342D02*
X85670476Y-67864819D01*
X84670476Y-68864819D02*
X85241904Y-68864819D01*
X84956190Y-68864819D02*
X84956190Y-67864819D01*
X84956190Y-67864819D02*
X85051428Y-68007676D01*
X85051428Y-68007676D02*
X85146666Y-68102914D01*
X85146666Y-68102914D02*
X85241904Y-68150533D01*
X67008333Y-37305444D02*
X67008333Y-38019729D01*
X67008333Y-38019729D02*
X67055952Y-38162586D01*
X67055952Y-38162586D02*
X67151190Y-38257825D01*
X67151190Y-38257825D02*
X67294047Y-38305444D01*
X67294047Y-38305444D02*
X67389285Y-38305444D01*
X66008333Y-38305444D02*
X66579761Y-38305444D01*
X66294047Y-38305444D02*
X66294047Y-37305444D01*
X66294047Y-37305444D02*
X66389285Y-37448301D01*
X66389285Y-37448301D02*
X66484523Y-37543539D01*
X66484523Y-37543539D02*
X66579761Y-37591158D01*
X114466666Y-64509194D02*
X114799999Y-64033003D01*
X115038094Y-64509194D02*
X115038094Y-63509194D01*
X115038094Y-63509194D02*
X114657142Y-63509194D01*
X114657142Y-63509194D02*
X114561904Y-63556813D01*
X114561904Y-63556813D02*
X114514285Y-63604432D01*
X114514285Y-63604432D02*
X114466666Y-63699670D01*
X114466666Y-63699670D02*
X114466666Y-63842527D01*
X114466666Y-63842527D02*
X114514285Y-63937765D01*
X114514285Y-63937765D02*
X114561904Y-63985384D01*
X114561904Y-63985384D02*
X114657142Y-64033003D01*
X114657142Y-64033003D02*
X115038094Y-64033003D01*
X113609523Y-63842527D02*
X113609523Y-64509194D01*
X113847618Y-63461575D02*
X114085713Y-64175860D01*
X114085713Y-64175860D02*
X113466666Y-64175860D01*
D11*
X124758332Y-49764775D02*
X125024999Y-49383822D01*
X125215475Y-49764775D02*
X125215475Y-48964775D01*
X125215475Y-48964775D02*
X124910713Y-48964775D01*
X124910713Y-48964775D02*
X124834523Y-49002870D01*
X124834523Y-49002870D02*
X124796428Y-49040965D01*
X124796428Y-49040965D02*
X124758332Y-49117156D01*
X124758332Y-49117156D02*
X124758332Y-49231441D01*
X124758332Y-49231441D02*
X124796428Y-49307632D01*
X124796428Y-49307632D02*
X124834523Y-49345727D01*
X124834523Y-49345727D02*
X124910713Y-49383822D01*
X124910713Y-49383822D02*
X125215475Y-49383822D01*
X123996428Y-49002870D02*
X124072618Y-48964775D01*
X124072618Y-48964775D02*
X124186904Y-48964775D01*
X124186904Y-48964775D02*
X124301190Y-49002870D01*
X124301190Y-49002870D02*
X124377380Y-49079060D01*
X124377380Y-49079060D02*
X124415475Y-49155251D01*
X124415475Y-49155251D02*
X124453571Y-49307632D01*
X124453571Y-49307632D02*
X124453571Y-49421918D01*
X124453571Y-49421918D02*
X124415475Y-49574299D01*
X124415475Y-49574299D02*
X124377380Y-49650489D01*
X124377380Y-49650489D02*
X124301190Y-49726680D01*
X124301190Y-49726680D02*
X124186904Y-49764775D01*
X124186904Y-49764775D02*
X124110713Y-49764775D01*
X124110713Y-49764775D02*
X123996428Y-49726680D01*
X123996428Y-49726680D02*
X123958332Y-49688584D01*
X123958332Y-49688584D02*
X123958332Y-49421918D01*
X123958332Y-49421918D02*
X124110713Y-49421918D01*
X123348809Y-49345727D02*
X123234523Y-49383822D01*
X123234523Y-49383822D02*
X123196428Y-49421918D01*
X123196428Y-49421918D02*
X123158332Y-49498108D01*
X123158332Y-49498108D02*
X123158332Y-49612394D01*
X123158332Y-49612394D02*
X123196428Y-49688584D01*
X123196428Y-49688584D02*
X123234523Y-49726680D01*
X123234523Y-49726680D02*
X123310713Y-49764775D01*
X123310713Y-49764775D02*
X123615475Y-49764775D01*
X123615475Y-49764775D02*
X123615475Y-48964775D01*
X123615475Y-48964775D02*
X123348809Y-48964775D01*
X123348809Y-48964775D02*
X123272618Y-49002870D01*
X123272618Y-49002870D02*
X123234523Y-49040965D01*
X123234523Y-49040965D02*
X123196428Y-49117156D01*
X123196428Y-49117156D02*
X123196428Y-49193346D01*
X123196428Y-49193346D02*
X123234523Y-49269537D01*
X123234523Y-49269537D02*
X123272618Y-49307632D01*
X123272618Y-49307632D02*
X123348809Y-49345727D01*
X123348809Y-49345727D02*
X123615475Y-49345727D01*
X122891666Y-48964775D02*
X122396428Y-48964775D01*
X122396428Y-48964775D02*
X122663094Y-49269537D01*
X122663094Y-49269537D02*
X122548809Y-49269537D01*
X122548809Y-49269537D02*
X122472618Y-49307632D01*
X122472618Y-49307632D02*
X122434523Y-49345727D01*
X122434523Y-49345727D02*
X122396428Y-49421918D01*
X122396428Y-49421918D02*
X122396428Y-49612394D01*
X122396428Y-49612394D02*
X122434523Y-49688584D01*
X122434523Y-49688584D02*
X122472618Y-49726680D01*
X122472618Y-49726680D02*
X122548809Y-49764775D01*
X122548809Y-49764775D02*
X122777380Y-49764775D01*
X122777380Y-49764775D02*
X122853571Y-49726680D01*
X122853571Y-49726680D02*
X122891666Y-49688584D01*
D10*
X83936666Y-60634819D02*
X84269999Y-60158628D01*
X84508094Y-60634819D02*
X84508094Y-59634819D01*
X84508094Y-59634819D02*
X84127142Y-59634819D01*
X84127142Y-59634819D02*
X84031904Y-59682438D01*
X84031904Y-59682438D02*
X83984285Y-59730057D01*
X83984285Y-59730057D02*
X83936666Y-59825295D01*
X83936666Y-59825295D02*
X83936666Y-59968152D01*
X83936666Y-59968152D02*
X83984285Y-60063390D01*
X83984285Y-60063390D02*
X84031904Y-60111009D01*
X84031904Y-60111009D02*
X84127142Y-60158628D01*
X84127142Y-60158628D02*
X84508094Y-60158628D01*
X83555713Y-59730057D02*
X83508094Y-59682438D01*
X83508094Y-59682438D02*
X83412856Y-59634819D01*
X83412856Y-59634819D02*
X83174761Y-59634819D01*
X83174761Y-59634819D02*
X83079523Y-59682438D01*
X83079523Y-59682438D02*
X83031904Y-59730057D01*
X83031904Y-59730057D02*
X82984285Y-59825295D01*
X82984285Y-59825295D02*
X82984285Y-59920533D01*
X82984285Y-59920533D02*
X83031904Y-60063390D01*
X83031904Y-60063390D02*
X83603332Y-60634819D01*
X83603332Y-60634819D02*
X82984285Y-60634819D01*
X57316666Y-83559194D02*
X57649999Y-83083003D01*
X57888094Y-83559194D02*
X57888094Y-82559194D01*
X57888094Y-82559194D02*
X57507142Y-82559194D01*
X57507142Y-82559194D02*
X57411904Y-82606813D01*
X57411904Y-82606813D02*
X57364285Y-82654432D01*
X57364285Y-82654432D02*
X57316666Y-82749670D01*
X57316666Y-82749670D02*
X57316666Y-82892527D01*
X57316666Y-82892527D02*
X57364285Y-82987765D01*
X57364285Y-82987765D02*
X57411904Y-83035384D01*
X57411904Y-83035384D02*
X57507142Y-83083003D01*
X57507142Y-83083003D02*
X57888094Y-83083003D01*
X56411904Y-82559194D02*
X56888094Y-82559194D01*
X56888094Y-82559194D02*
X56935713Y-83035384D01*
X56935713Y-83035384D02*
X56888094Y-82987765D01*
X56888094Y-82987765D02*
X56792856Y-82940146D01*
X56792856Y-82940146D02*
X56554761Y-82940146D01*
X56554761Y-82940146D02*
X56459523Y-82987765D01*
X56459523Y-82987765D02*
X56411904Y-83035384D01*
X56411904Y-83035384D02*
X56364285Y-83130622D01*
X56364285Y-83130622D02*
X56364285Y-83368717D01*
X56364285Y-83368717D02*
X56411904Y-83463955D01*
X56411904Y-83463955D02*
X56459523Y-83511575D01*
X56459523Y-83511575D02*
X56554761Y-83559194D01*
X56554761Y-83559194D02*
X56792856Y-83559194D01*
X56792856Y-83559194D02*
X56888094Y-83511575D01*
X56888094Y-83511575D02*
X56935713Y-83463955D01*
X124890416Y-60533330D02*
X124938035Y-60580950D01*
X124938035Y-60580950D02*
X125080892Y-60628569D01*
X125080892Y-60628569D02*
X125176130Y-60628569D01*
X125176130Y-60628569D02*
X125318987Y-60580950D01*
X125318987Y-60580950D02*
X125414225Y-60485711D01*
X125414225Y-60485711D02*
X125461844Y-60390473D01*
X125461844Y-60390473D02*
X125509463Y-60199997D01*
X125509463Y-60199997D02*
X125509463Y-60057140D01*
X125509463Y-60057140D02*
X125461844Y-59866664D01*
X125461844Y-59866664D02*
X125414225Y-59771426D01*
X125414225Y-59771426D02*
X125318987Y-59676188D01*
X125318987Y-59676188D02*
X125176130Y-59628569D01*
X125176130Y-59628569D02*
X125080892Y-59628569D01*
X125080892Y-59628569D02*
X124938035Y-59676188D01*
X124938035Y-59676188D02*
X124890416Y-59723807D01*
X124414225Y-60628569D02*
X124223749Y-60628569D01*
X124223749Y-60628569D02*
X124128511Y-60580950D01*
X124128511Y-60580950D02*
X124080892Y-60533330D01*
X124080892Y-60533330D02*
X123985654Y-60390473D01*
X123985654Y-60390473D02*
X123938035Y-60199997D01*
X123938035Y-60199997D02*
X123938035Y-59819045D01*
X123938035Y-59819045D02*
X123985654Y-59723807D01*
X123985654Y-59723807D02*
X124033273Y-59676188D01*
X124033273Y-59676188D02*
X124128511Y-59628569D01*
X124128511Y-59628569D02*
X124318987Y-59628569D01*
X124318987Y-59628569D02*
X124414225Y-59676188D01*
X124414225Y-59676188D02*
X124461844Y-59723807D01*
X124461844Y-59723807D02*
X124509463Y-59819045D01*
X124509463Y-59819045D02*
X124509463Y-60057140D01*
X124509463Y-60057140D02*
X124461844Y-60152378D01*
X124461844Y-60152378D02*
X124414225Y-60199997D01*
X124414225Y-60199997D02*
X124318987Y-60247616D01*
X124318987Y-60247616D02*
X124128511Y-60247616D01*
X124128511Y-60247616D02*
X124033273Y-60199997D01*
X124033273Y-60199997D02*
X123985654Y-60152378D01*
X123985654Y-60152378D02*
X123938035Y-60057140D01*
X76366666Y-83559194D02*
X76699999Y-83083003D01*
X76938094Y-83559194D02*
X76938094Y-82559194D01*
X76938094Y-82559194D02*
X76557142Y-82559194D01*
X76557142Y-82559194D02*
X76461904Y-82606813D01*
X76461904Y-82606813D02*
X76414285Y-82654432D01*
X76414285Y-82654432D02*
X76366666Y-82749670D01*
X76366666Y-82749670D02*
X76366666Y-82892527D01*
X76366666Y-82892527D02*
X76414285Y-82987765D01*
X76414285Y-82987765D02*
X76461904Y-83035384D01*
X76461904Y-83035384D02*
X76557142Y-83083003D01*
X76557142Y-83083003D02*
X76938094Y-83083003D01*
X75509523Y-82559194D02*
X75699999Y-82559194D01*
X75699999Y-82559194D02*
X75795237Y-82606813D01*
X75795237Y-82606813D02*
X75842856Y-82654432D01*
X75842856Y-82654432D02*
X75938094Y-82797289D01*
X75938094Y-82797289D02*
X75985713Y-82987765D01*
X75985713Y-82987765D02*
X75985713Y-83368717D01*
X75985713Y-83368717D02*
X75938094Y-83463955D01*
X75938094Y-83463955D02*
X75890475Y-83511575D01*
X75890475Y-83511575D02*
X75795237Y-83559194D01*
X75795237Y-83559194D02*
X75604761Y-83559194D01*
X75604761Y-83559194D02*
X75509523Y-83511575D01*
X75509523Y-83511575D02*
X75461904Y-83463955D01*
X75461904Y-83463955D02*
X75414285Y-83368717D01*
X75414285Y-83368717D02*
X75414285Y-83130622D01*
X75414285Y-83130622D02*
X75461904Y-83035384D01*
X75461904Y-83035384D02*
X75509523Y-82987765D01*
X75509523Y-82987765D02*
X75604761Y-82940146D01*
X75604761Y-82940146D02*
X75795237Y-82940146D01*
X75795237Y-82940146D02*
X75890475Y-82987765D01*
X75890475Y-82987765D02*
X75938094Y-83035384D01*
X75938094Y-83035384D02*
X75985713Y-83130622D01*
D13*
%TO.C,C12*%
X122742211Y-65397891D02*
X122526539Y-65397891D01*
X122742211Y-64677891D02*
X122526539Y-64677891D01*
%TO.C,R17*%
X76413641Y-68090000D02*
X76106359Y-68090000D01*
X76413641Y-67330000D02*
X76106359Y-67330000D01*
%TO.C,RGB2*%
D12*
X86675000Y-46275000D02*
X86275000Y-45675000D01*
X87075000Y-45675000D01*
X86675000Y-46275000D01*
G36*
X86675000Y-46275000D02*
G01*
X86275000Y-45675000D01*
X87075000Y-45675000D01*
X86675000Y-46275000D01*
G37*
D13*
%TO.C,LED4*%
X117200000Y-60712500D02*
X117200000Y-63112500D01*
X117000000Y-63112500D02*
X116870000Y-63212500D01*
X117000000Y-60712500D02*
X117000000Y-63112500D01*
X117000000Y-60712500D02*
X116880000Y-60612500D01*
X116880000Y-60612500D02*
X115400000Y-60612500D01*
X116870000Y-63212500D02*
X115400000Y-63212500D01*
X113200000Y-60612500D02*
X111600000Y-60612500D01*
X111600000Y-63212500D02*
X113200000Y-63212500D01*
X111600000Y-60612500D02*
X111600000Y-63212500D01*
%TO.C,RGB5*%
D12*
X85175000Y-87675000D02*
X84375000Y-87675000D01*
X84775000Y-87075000D01*
X85175000Y-87675000D01*
G36*
X85175000Y-87675000D02*
G01*
X84375000Y-87675000D01*
X84775000Y-87075000D01*
X85175000Y-87675000D01*
G37*
D13*
%TO.C,LED6*%
X79100000Y-79762500D02*
X79100000Y-82162500D01*
X78900000Y-82162500D02*
X78770000Y-82262500D01*
X78900000Y-79762500D02*
X78900000Y-82162500D01*
X78900000Y-79762500D02*
X78780000Y-79662500D01*
X78780000Y-79662500D02*
X77300000Y-79662500D01*
X78770000Y-82262500D02*
X77300000Y-82262500D01*
X75100000Y-79662500D02*
X73500000Y-79662500D01*
X73500000Y-82262500D02*
X75100000Y-82262500D01*
X73500000Y-79662500D02*
X73500000Y-82262500D01*
%TO.C,C16*%
X122742211Y-77750625D02*
X122526539Y-77750625D01*
X122742211Y-77030625D02*
X122526539Y-77030625D01*
%TO.C,R7*%
X95487258Y-85056875D02*
X95012742Y-85056875D01*
X95487258Y-84011875D02*
X95012742Y-84011875D01*
%TO.C,C4*%
X101563125Y-61804664D02*
X101563125Y-62020336D01*
X100843125Y-61804664D02*
X100843125Y-62020336D01*
%TO.C,C2*%
X74722164Y-65950000D02*
X74937836Y-65950000D01*
X74722164Y-66670000D02*
X74937836Y-66670000D01*
%TO.C,RGB1*%
D12*
X48575000Y-46275000D02*
X48175000Y-45675000D01*
X48975000Y-45675000D01*
X48575000Y-46275000D01*
G36*
X48575000Y-46275000D02*
G01*
X48175000Y-45675000D01*
X48975000Y-45675000D01*
X48575000Y-46275000D01*
G37*
D13*
%TO.C,C3*%
X88180000Y-79657836D02*
X88180000Y-79442164D01*
X88900000Y-79657836D02*
X88900000Y-79442164D01*
%TO.C,C15*%
X122742211Y-75369375D02*
X122526539Y-75369375D01*
X122742211Y-74649375D02*
X122526539Y-74649375D01*
%TO.C,U4*%
X72911682Y-64293750D02*
X72452063Y-63834131D01*
X72452063Y-64753369D02*
X72911682Y-64293750D01*
X67346752Y-59648058D02*
X67806371Y-59188439D01*
X68265990Y-68939442D02*
X67806371Y-69399061D01*
X63160679Y-63834131D02*
X62701060Y-64293750D01*
X67806371Y-69399061D02*
X67346752Y-68939442D01*
X62701060Y-64293750D02*
X63160679Y-64753369D01*
%TO.C,U2*%
X65115000Y-50059375D02*
X65115000Y-50859375D01*
X65115000Y-50059375D02*
X65115000Y-49259375D01*
X68235000Y-50059375D02*
X68235000Y-51859375D01*
X68235000Y-50059375D02*
X68235000Y-49259375D01*
%TO.C,LED3*%
X98150000Y-60712500D02*
X98150000Y-63112500D01*
X97950000Y-63112500D02*
X97820000Y-63212500D01*
X97950000Y-60712500D02*
X97950000Y-63112500D01*
X97950000Y-60712500D02*
X97830000Y-60612500D01*
X97830000Y-60612500D02*
X96350000Y-60612500D01*
X97820000Y-63212500D02*
X96350000Y-63212500D01*
X94150000Y-60612500D02*
X92550000Y-60612500D01*
X92550000Y-63212500D02*
X94150000Y-63212500D01*
X92550000Y-60612500D02*
X92550000Y-63212500D01*
%TO.C,RGB4*%
D12*
X123275000Y-87675000D02*
X122475000Y-87675000D01*
X122875000Y-87075000D01*
X123275000Y-87675000D01*
G36*
X123275000Y-87675000D02*
G01*
X122475000Y-87675000D01*
X122875000Y-87075000D01*
X123275000Y-87675000D01*
G37*
D13*
%TO.C,R11*%
X61532500Y-81116141D02*
X61532500Y-80808859D01*
X62292500Y-81116141D02*
X62292500Y-80808859D01*
%TO.C,C17*%
X122742211Y-80131875D02*
X122526539Y-80131875D01*
X122742211Y-79411875D02*
X122526539Y-79411875D01*
%TO.C,R1*%
X55747258Y-65532500D02*
X55272742Y-65532500D01*
X55747258Y-64487500D02*
X55272742Y-64487500D01*
%TO.C,LED5*%
X60050000Y-79762500D02*
X60050000Y-82162500D01*
X59850000Y-82162500D02*
X59720000Y-82262500D01*
X59850000Y-79762500D02*
X59850000Y-82162500D01*
X59850000Y-79762500D02*
X59730000Y-79662500D01*
X59730000Y-79662500D02*
X58250000Y-79662500D01*
X59720000Y-82262500D02*
X58250000Y-82262500D01*
X56050000Y-79662500D02*
X54450000Y-79662500D01*
X54450000Y-82262500D02*
X56050000Y-82262500D01*
X54450000Y-79662500D02*
X54450000Y-82262500D01*
%TO.C,Q1*%
X49550000Y-63870000D02*
X49550000Y-63220000D01*
X49550000Y-63870000D02*
X49550000Y-64520000D01*
X46430000Y-63870000D02*
X46430000Y-62195000D01*
X46430000Y-63870000D02*
X46430000Y-64520000D01*
%TO.C,R13*%
X70093234Y-48435625D02*
X70400516Y-48435625D01*
X70093234Y-49195625D02*
X70400516Y-49195625D01*
%TO.C,R15*%
X66006875Y-55722117D02*
X66006875Y-56196633D01*
X64961875Y-55722117D02*
X64961875Y-56196633D01*
%TO.C,LED7*%
X98150000Y-79762500D02*
X98150000Y-82162500D01*
X97950000Y-82162500D02*
X97820000Y-82262500D01*
X97950000Y-79762500D02*
X97950000Y-82162500D01*
X97950000Y-79762500D02*
X97830000Y-79662500D01*
X97830000Y-79662500D02*
X96350000Y-79662500D01*
X97820000Y-82262500D02*
X96350000Y-82262500D01*
X94150000Y-79662500D02*
X92550000Y-79662500D01*
X92550000Y-82262500D02*
X94150000Y-82262500D01*
X92550000Y-79662500D02*
X92550000Y-82262500D01*
%TO.C,R12*%
X63256766Y-49195625D02*
X62949484Y-49195625D01*
X63256766Y-48435625D02*
X62949484Y-48435625D01*
%TO.C,C14*%
X122742211Y-68672112D02*
X122526539Y-68672112D01*
X122742211Y-67952112D02*
X122526539Y-67952112D01*
D12*
%TO.C,TS2*%
X106225000Y-80153125D02*
X106225000Y-84153125D01*
X103325000Y-80153125D02*
X103325000Y-84153125D01*
D13*
%TO.C,C6*%
X122742211Y-55575237D02*
X122526539Y-55575237D01*
X122742211Y-54855237D02*
X122526539Y-54855237D01*
%TO.C,F1*%
X75597936Y-46715000D02*
X76802064Y-46715000D01*
X75597936Y-48535000D02*
X76802064Y-48535000D01*
%TO.C,C1*%
X65350914Y-76593750D02*
X65566586Y-76593750D01*
X65350914Y-77313750D02*
X65566586Y-77313750D01*
%TO.C,C7*%
X122742211Y-57212346D02*
X122526539Y-57212346D01*
X122742211Y-56492346D02*
X122526539Y-56492346D01*
%TO.C,R14*%
X65330734Y-74629375D02*
X65638016Y-74629375D01*
X65330734Y-75389375D02*
X65638016Y-75389375D01*
%TO.C,R10*%
X47692742Y-59477500D02*
X48167258Y-59477500D01*
X47692742Y-60522500D02*
X48167258Y-60522500D01*
%TO.C,R8*%
X114537258Y-85056875D02*
X114062742Y-85056875D01*
X114537258Y-84011875D02*
X114062742Y-84011875D01*
%TO.C,LED8*%
X117200000Y-79762500D02*
X117200000Y-82162500D01*
X117000000Y-82162500D02*
X116870000Y-82262500D01*
X117000000Y-79762500D02*
X117000000Y-82162500D01*
X117000000Y-79762500D02*
X116880000Y-79662500D01*
X116880000Y-79662500D02*
X115400000Y-79662500D01*
X116870000Y-82262500D02*
X115400000Y-82262500D01*
X113200000Y-79662500D02*
X111600000Y-79662500D01*
X111600000Y-82262500D02*
X113200000Y-82262500D01*
X111600000Y-79662500D02*
X111600000Y-82262500D01*
%TO.C,R16*%
X62435000Y-60484617D02*
X62435000Y-60959133D01*
X61390000Y-60484617D02*
X61390000Y-60959133D01*
%TO.C,R3*%
X95487258Y-66006875D02*
X95012742Y-66006875D01*
X95487258Y-64961875D02*
X95012742Y-64961875D01*
D12*
%TO.C,TS1*%
X68125000Y-80153125D02*
X68125000Y-84153125D01*
X65225000Y-80153125D02*
X65225000Y-84153125D01*
D13*
%TO.C,LED1*%
X60050000Y-60712500D02*
X60050000Y-63112500D01*
X59850000Y-63112500D02*
X59720000Y-63212500D01*
X59850000Y-60712500D02*
X59850000Y-63112500D01*
X59850000Y-60712500D02*
X59730000Y-60612500D01*
X59730000Y-60612500D02*
X58250000Y-60612500D01*
X59720000Y-63212500D02*
X58250000Y-63212500D01*
X56050000Y-60612500D02*
X54450000Y-60612500D01*
X54450000Y-63212500D02*
X56050000Y-63212500D01*
X54450000Y-60612500D02*
X54450000Y-63212500D01*
%TO.C,C11*%
X122742211Y-63760782D02*
X122526539Y-63760782D01*
X122742211Y-63040782D02*
X122526539Y-63040782D01*
%TO.C,R9*%
X47962742Y-67707500D02*
X48437258Y-67707500D01*
X47962742Y-68752500D02*
X48437258Y-68752500D01*
%TO.C,Y1*%
X86480000Y-77340000D02*
X86480000Y-81340000D01*
X83180000Y-77340000D02*
X86480000Y-77340000D01*
%TO.C,RGB6*%
D12*
X47075000Y-87675000D02*
X46275000Y-87675000D01*
X46675000Y-87075000D01*
X47075000Y-87675000D01*
G36*
X47075000Y-87675000D02*
G01*
X46275000Y-87675000D01*
X46675000Y-87075000D01*
X47075000Y-87675000D01*
G37*
D13*
%TO.C,LED2*%
X79100000Y-60712500D02*
X79100000Y-63112500D01*
X78900000Y-63112500D02*
X78770000Y-63212500D01*
X78900000Y-60712500D02*
X78900000Y-63112500D01*
X78900000Y-60712500D02*
X78780000Y-60612500D01*
X78780000Y-60612500D02*
X77300000Y-60612500D01*
X78770000Y-63212500D02*
X77300000Y-63212500D01*
X75100000Y-60612500D02*
X73500000Y-60612500D01*
X73500000Y-63212500D02*
X75100000Y-63212500D01*
X73500000Y-60612500D02*
X73500000Y-63212500D01*
%TO.C,U3*%
X103215000Y-64293750D02*
X103215000Y-65093750D01*
X103215000Y-64293750D02*
X103215000Y-63493750D01*
X106335000Y-64293750D02*
X106335000Y-66093750D01*
X106335000Y-64293750D02*
X106335000Y-63493750D01*
%TO.C,C10*%
X122742211Y-62123673D02*
X122526539Y-62123673D01*
X122742211Y-61403673D02*
X122526539Y-61403673D01*
%TO.C,C5*%
X104897836Y-68800000D02*
X104682164Y-68800000D01*
X104897836Y-68080000D02*
X104682164Y-68080000D01*
%TO.C,C8*%
X122742211Y-58849455D02*
X122526539Y-58849455D01*
X122742211Y-58129455D02*
X122526539Y-58129455D01*
%TO.C,C13*%
X122742211Y-67035000D02*
X122526539Y-67035000D01*
X122742211Y-66315000D02*
X122526539Y-66315000D01*
%TO.C,U1*%
X82755000Y-62125000D02*
X82755000Y-62385000D01*
X82755000Y-67315000D02*
X81080000Y-67315000D01*
X82755000Y-67575000D02*
X82755000Y-67315000D01*
X85480000Y-62125000D02*
X82755000Y-62125000D01*
X85480000Y-62125000D02*
X88205000Y-62125000D01*
X85480000Y-67575000D02*
X82755000Y-67575000D01*
X85480000Y-67575000D02*
X88205000Y-67575000D01*
X88205000Y-62125000D02*
X88205000Y-62385000D01*
X88205000Y-67575000D02*
X88205000Y-67315000D01*
%TO.C,R4*%
X114537258Y-66006875D02*
X114062742Y-66006875D01*
X114537258Y-64961875D02*
X114062742Y-64961875D01*
%TO.C,RGB3*%
D12*
X124775000Y-46275000D02*
X124375000Y-45675000D01*
X125175000Y-45675000D01*
X124775000Y-46275000D01*
G36*
X124775000Y-46275000D02*
G01*
X124375000Y-45675000D01*
X125175000Y-45675000D01*
X124775000Y-46275000D01*
G37*
D13*
%TO.C,R2*%
X83532742Y-58227500D02*
X84007258Y-58227500D01*
X83532742Y-59272500D02*
X84007258Y-59272500D01*
%TO.C,R5*%
X57387258Y-85056875D02*
X56912742Y-85056875D01*
X57387258Y-84011875D02*
X56912742Y-84011875D01*
%TO.C,C9*%
X122742211Y-60486564D02*
X122526539Y-60486564D01*
X122742211Y-59766564D02*
X122526539Y-59766564D01*
%TO.C,R6*%
X76437258Y-85056875D02*
X75962742Y-85056875D01*
X76437258Y-84011875D02*
X75962742Y-84011875D01*
%TD*%
%LPC*%
D14*
%TO.C,H3*%
X120046250Y-84373750D03*
%TD*%
%TO.C,H2*%
X51796250Y-81313750D03*
%TD*%
%TO.C,H1*%
X48946250Y-50973750D03*
%TD*%
D15*
%TO.C,SW8*%
X119380000Y-76200000D03*
D16*
X116840000Y-71120000D03*
D17*
X114300000Y-76200000D03*
D16*
X110490000Y-73660000D03*
D15*
X109220000Y-76200000D03*
D18*
X107215000Y-73660000D03*
X120142000Y-71120000D03*
%TD*%
D15*
%TO.C,SW5*%
X62230000Y-76200000D03*
D16*
X59690000Y-71120000D03*
D17*
X57150000Y-76200000D03*
D16*
X53340000Y-73660000D03*
D15*
X52070000Y-76200000D03*
D18*
X50065000Y-73660000D03*
X62992000Y-71120000D03*
%TD*%
D19*
%TO.C,C12*%
X123114375Y-65037891D03*
X122154375Y-65037891D03*
%TD*%
D20*
%TO.C,R17*%
X76770000Y-67710000D03*
X75750000Y-67710000D03*
%TD*%
D21*
%TO.C,RGB2*%
X86640000Y-47075000D03*
D22*
X86640000Y-48175000D03*
X84810000Y-48175000D03*
X84810000Y-47075000D03*
%TD*%
D23*
%TO.C,LED4*%
X116200000Y-61912500D03*
X112400000Y-61912500D03*
%TD*%
D24*
%TO.C,RGB5*%
X84810000Y-86275000D03*
D22*
X84810000Y-85175000D03*
X86640000Y-85175000D03*
X86640000Y-86275000D03*
%TD*%
D23*
%TO.C,LED6*%
X78100000Y-80962500D03*
X74300000Y-80962500D03*
%TD*%
D19*
%TO.C,C16*%
X123114375Y-77390625D03*
X122154375Y-77390625D03*
%TD*%
D25*
%TO.C,R7*%
X96075000Y-84534375D03*
X94425000Y-84534375D03*
%TD*%
D26*
%TO.C,C4*%
X101203125Y-61432500D03*
X101203125Y-62392500D03*
%TD*%
D27*
%TO.C,C2*%
X74350000Y-66310000D03*
X75310000Y-66310000D03*
%TD*%
D21*
%TO.C,RGB1*%
X48540000Y-47075000D03*
D22*
X48540000Y-48175000D03*
X46710000Y-48175000D03*
X46710000Y-47075000D03*
%TD*%
D28*
%TO.C,C3*%
X88540000Y-80030000D03*
X88540000Y-79070000D03*
%TD*%
D19*
%TO.C,C15*%
X123114375Y-75009375D03*
X122154375Y-75009375D03*
%TD*%
D15*
%TO.C,SW1*%
X62230000Y-57150000D03*
D16*
X59690000Y-52070000D03*
D17*
X57150000Y-57150000D03*
D16*
X53340000Y-54610000D03*
D15*
X52070000Y-57150000D03*
D18*
X50065000Y-54610000D03*
X62992000Y-52070000D03*
%TD*%
D29*
%TO.C,U4*%
X68398573Y-60024593D03*
X68681416Y-60307436D03*
X68964258Y-60590278D03*
X69247101Y-60873121D03*
X69529944Y-61155964D03*
X69812786Y-61438806D03*
X70095629Y-61721649D03*
X70378472Y-62004492D03*
X70661315Y-62287335D03*
X70944157Y-62570177D03*
X71227000Y-62853020D03*
X71509843Y-63135863D03*
X71792685Y-63418705D03*
X72075528Y-63701548D03*
D30*
X72075528Y-64885952D03*
X71792685Y-65168795D03*
X71509843Y-65451637D03*
X71227000Y-65734480D03*
X70944157Y-66017323D03*
X70661315Y-66300165D03*
X70378472Y-66583008D03*
X70095629Y-66865851D03*
X69812786Y-67148694D03*
X69529944Y-67431536D03*
X69247101Y-67714379D03*
X68964258Y-67997222D03*
X68681416Y-68280064D03*
X68398573Y-68562907D03*
D29*
X67214169Y-68562907D03*
X66931326Y-68280064D03*
X66648484Y-67997222D03*
X66365641Y-67714379D03*
X66082798Y-67431536D03*
X65799956Y-67148694D03*
X65517113Y-66865851D03*
X65234270Y-66583008D03*
X64951427Y-66300165D03*
X64668585Y-66017323D03*
X64385742Y-65734480D03*
X64102899Y-65451637D03*
X63820057Y-65168795D03*
X63537214Y-64885952D03*
D30*
X63537214Y-63701548D03*
X63820057Y-63418705D03*
X64102899Y-63135863D03*
X64385742Y-62853020D03*
X64668585Y-62570177D03*
X64951427Y-62287335D03*
X65234270Y-62004492D03*
X65517113Y-61721649D03*
X65799956Y-61438806D03*
X66082798Y-61155964D03*
X66365641Y-60873121D03*
X66648484Y-60590278D03*
X66931326Y-60307436D03*
X67214169Y-60024593D03*
D31*
X67806371Y-64293750D03*
%TD*%
D15*
%TO.C,SW4*%
X119380000Y-57150000D03*
D16*
X116840000Y-52070000D03*
D17*
X114300000Y-57150000D03*
D16*
X110490000Y-54610000D03*
D15*
X109220000Y-57150000D03*
D18*
X107215000Y-54610000D03*
X120142000Y-52070000D03*
%TD*%
D32*
%TO.C,U2*%
X67625000Y-51196875D03*
X66675000Y-51196875D03*
X65725000Y-51196875D03*
X65725000Y-48921875D03*
X66675000Y-48921875D03*
X67625000Y-48921875D03*
%TD*%
D23*
%TO.C,LED3*%
X97150000Y-61912500D03*
X93350000Y-61912500D03*
%TD*%
D24*
%TO.C,RGB4*%
X122910000Y-86275000D03*
D22*
X122910000Y-85175000D03*
X124740000Y-85175000D03*
X124740000Y-86275000D03*
%TD*%
D15*
%TO.C,SW2*%
X81280000Y-57150000D03*
D16*
X78740000Y-52070000D03*
D17*
X76200000Y-57150000D03*
D16*
X72390000Y-54610000D03*
D15*
X71120000Y-57150000D03*
D18*
X69115000Y-54610000D03*
X82042000Y-52070000D03*
%TD*%
D33*
%TO.C,R11*%
X61912500Y-81472500D03*
X61912500Y-80452500D03*
%TD*%
D19*
%TO.C,C17*%
X123114375Y-79771875D03*
X122154375Y-79771875D03*
%TD*%
D25*
%TO.C,R1*%
X56335000Y-65010000D03*
X54685000Y-65010000D03*
%TD*%
D23*
%TO.C,LED5*%
X59050000Y-80962500D03*
X55250000Y-80962500D03*
%TD*%
D34*
%TO.C,Q1*%
X47040000Y-62932500D03*
X48940000Y-62932500D03*
X47990000Y-64807500D03*
%TD*%
D35*
%TO.C,R13*%
X69736875Y-48815625D03*
X70756875Y-48815625D03*
%TD*%
D36*
%TO.C,R15*%
X65484375Y-55134375D03*
X65484375Y-56784375D03*
%TD*%
D23*
%TO.C,LED7*%
X97150000Y-80962500D03*
X93350000Y-80962500D03*
%TD*%
D20*
%TO.C,R12*%
X63613125Y-48815625D03*
X62593125Y-48815625D03*
%TD*%
D19*
%TO.C,C14*%
X123114375Y-68312112D03*
X122154375Y-68312112D03*
%TD*%
D37*
%TO.C,TS2*%
X104775000Y-80078125D03*
X104775000Y-84228125D03*
%TD*%
D19*
%TO.C,C6*%
X123114375Y-55215237D03*
X122154375Y-55215237D03*
%TD*%
D38*
%TO.C,F1*%
X74800000Y-47625000D03*
X77600000Y-47625000D03*
%TD*%
D27*
%TO.C,C1*%
X64978750Y-76953750D03*
X65938750Y-76953750D03*
%TD*%
D19*
%TO.C,C7*%
X123114375Y-56852346D03*
X122154375Y-56852346D03*
%TD*%
D35*
%TO.C,R14*%
X64974375Y-75009375D03*
X65994375Y-75009375D03*
%TD*%
D39*
%TO.C,R10*%
X47105000Y-60000000D03*
X48755000Y-60000000D03*
%TD*%
D15*
%TO.C,SW6*%
X81280000Y-76200000D03*
D16*
X78740000Y-71120000D03*
D17*
X76200000Y-76200000D03*
D16*
X72390000Y-73660000D03*
D15*
X71120000Y-76200000D03*
D18*
X69115000Y-73660000D03*
X82042000Y-71120000D03*
%TD*%
D25*
%TO.C,R8*%
X115125000Y-84534375D03*
X113475000Y-84534375D03*
%TD*%
D23*
%TO.C,LED8*%
X116200000Y-80962500D03*
X112400000Y-80962500D03*
%TD*%
D36*
%TO.C,R16*%
X61912500Y-59896875D03*
X61912500Y-61546875D03*
%TD*%
D25*
%TO.C,R3*%
X96075000Y-65484375D03*
X94425000Y-65484375D03*
%TD*%
D37*
%TO.C,TS1*%
X66675000Y-80078125D03*
X66675000Y-84228125D03*
%TD*%
D23*
%TO.C,LED1*%
X59050000Y-61912500D03*
X55250000Y-61912500D03*
%TD*%
D19*
%TO.C,C11*%
X123114375Y-63400782D03*
X122154375Y-63400782D03*
%TD*%
D39*
%TO.C,R9*%
X47375000Y-68230000D03*
X49025000Y-68230000D03*
%TD*%
D40*
%TO.C,Y1*%
X85680000Y-78240000D03*
X85680000Y-80440000D03*
X83980000Y-80440000D03*
X83980000Y-78240000D03*
%TD*%
D24*
%TO.C,RGB6*%
X46710000Y-86275000D03*
D22*
X46710000Y-85175000D03*
X48540000Y-85175000D03*
X48540000Y-86275000D03*
%TD*%
D23*
%TO.C,LED2*%
X78100000Y-61912500D03*
X74300000Y-61912500D03*
%TD*%
D32*
%TO.C,U3*%
X105725000Y-65431250D03*
X103825000Y-65431250D03*
X104775000Y-63156250D03*
%TD*%
D19*
%TO.C,C10*%
X123114375Y-61763673D03*
X122154375Y-61763673D03*
%TD*%
%TO.C,C5*%
X105270000Y-68440000D03*
X104310000Y-68440000D03*
%TD*%
%TO.C,C8*%
X123114375Y-58489455D03*
X122154375Y-58489455D03*
%TD*%
D15*
%TO.C,SW3*%
X100330000Y-57150000D03*
D16*
X97790000Y-52070000D03*
D17*
X95250000Y-57150000D03*
D16*
X91440000Y-54610000D03*
D15*
X90170000Y-57150000D03*
D18*
X88165000Y-54610000D03*
X101092000Y-52070000D03*
%TD*%
D19*
%TO.C,C13*%
X123114375Y-66675000D03*
X122154375Y-66675000D03*
%TD*%
D41*
%TO.C,U1*%
X81880000Y-66755000D03*
X81880000Y-65485000D03*
X81880000Y-64215000D03*
X81880000Y-62945000D03*
X89080000Y-62945000D03*
X89080000Y-64215000D03*
X89080000Y-65485000D03*
X89080000Y-66755000D03*
%TD*%
D42*
%TO.C,J1*%
X63785000Y-40799625D03*
X69565000Y-40799625D03*
D43*
X63425000Y-42125625D03*
X64225000Y-42125625D03*
D44*
X65425000Y-42125625D03*
X66421000Y-42125625D03*
X66925000Y-42125625D03*
X67925000Y-42125625D03*
D43*
X69925000Y-42125625D03*
X69125000Y-42125625D03*
D44*
X68425000Y-42125625D03*
X67425000Y-42125625D03*
X65925000Y-42125625D03*
X64925000Y-42125625D03*
D45*
X62375000Y-37150625D03*
D46*
X62375000Y-41350625D03*
D45*
X70975000Y-37150625D03*
D46*
X70975000Y-41350625D03*
%TD*%
D25*
%TO.C,R4*%
X115125000Y-65484375D03*
X113475000Y-65484375D03*
%TD*%
D15*
%TO.C,SW7*%
X100330000Y-76200000D03*
D16*
X97790000Y-71120000D03*
D17*
X95250000Y-76200000D03*
D16*
X91440000Y-73660000D03*
D15*
X90170000Y-76200000D03*
D18*
X88165000Y-73660000D03*
X101092000Y-71120000D03*
%TD*%
D21*
%TO.C,RGB3*%
X124740000Y-47075000D03*
D22*
X124740000Y-48175000D03*
X122910000Y-48175000D03*
X122910000Y-47075000D03*
%TD*%
D39*
%TO.C,R2*%
X82945000Y-58750000D03*
X84595000Y-58750000D03*
%TD*%
D25*
%TO.C,R5*%
X57975000Y-84534375D03*
X56325000Y-84534375D03*
%TD*%
D19*
%TO.C,C9*%
X123114375Y-60126564D03*
X122154375Y-60126564D03*
%TD*%
D25*
%TO.C,R6*%
X77025000Y-84534375D03*
X75375000Y-84534375D03*
%TD*%
%LPD*%
M02*
