%TF.GenerationSoftware,KiCad,Pcbnew,7.0.7*%
%TF.CreationDate,2024-01-09T04:45:59+09:00*%
%TF.ProjectId,Skeleton8,536b656c-6574-46f6-9e38-2e6b69636164,rev?*%
%TF.SameCoordinates,Original*%
%TF.FileFunction,Profile,NP*%
%FSLAX46Y46*%
G04 Gerber Fmt 4.6, Leading zero omitted, Abs format (unit mm)*
G04 Created by KiCad (PCBNEW 7.0.7) date 2024-01-09 04:45:59*
%MOMM*%
%LPD*%
G01*
G04 APERTURE LIST*
%TA.AperFunction,Profile*%
%ADD10C,0.100000*%
%TD*%
%TA.AperFunction,Profile*%
%ADD11C,0.500000*%
%TD*%
%ADD12C,0.150000*%
%TA.AperFunction,Profile*%
%ADD13C,0.120000*%
%TD*%
G04 APERTURE END LIST*
D10*
X46243750Y-45243750D02*
X58531250Y-45243750D01*
X134540625Y-104775000D02*
X134540625Y-33337500D01*
X59531250Y-44243750D02*
X59531250Y-36718750D01*
X73818750Y-44243750D02*
G75*
G03*
X74818750Y-45243750I999950J-50D01*
G01*
X36909375Y-104775000D02*
X36909375Y-33337500D01*
X73818750Y-36718750D02*
G75*
G03*
X72818750Y-35718750I-999950J50D01*
G01*
X46243750Y-45243750D02*
G75*
G03*
X45243750Y-46243750I-50J-999950D01*
G01*
X126206250Y-104775000D02*
X134540625Y-104775000D01*
X126206250Y-87106250D02*
X126206250Y-104775000D01*
X45243750Y-87106250D02*
G75*
G03*
X46243750Y-88106250I999950J-50D01*
G01*
X45243750Y-104775000D02*
X36909375Y-104775000D01*
X125206250Y-88106250D02*
X46243750Y-88106250D01*
D11*
X126206250Y-116681250D02*
X126206250Y-21431250D01*
D10*
X36909375Y-33337500D02*
X45243750Y-33337500D01*
X60531250Y-35718750D02*
X72818750Y-35718750D01*
X126206250Y-46243750D02*
G75*
G03*
X125206250Y-45243750I-999950J50D01*
G01*
X60531250Y-35718750D02*
G75*
G03*
X59531250Y-36718750I-50J-999950D01*
G01*
D11*
X45243750Y-21431250D02*
X45243750Y-116681250D01*
D10*
X45243750Y-87106250D02*
X45243750Y-104775000D01*
X58531250Y-45243750D02*
G75*
G03*
X59531250Y-44243750I50J999950D01*
G01*
X126206250Y-33337500D02*
X126206250Y-46243750D01*
X73818750Y-36718750D02*
X73818750Y-44243750D01*
X134540625Y-33337500D02*
X126206250Y-33337500D01*
X125206250Y-88106250D02*
G75*
G03*
X126206250Y-87106250I50J999950D01*
G01*
X45243750Y-46243750D02*
X45243750Y-33337500D01*
X74818750Y-45243750D02*
X125206250Y-45243750D01*
D12*
X125409402Y-17951316D02*
X125695116Y-18713220D01*
X125695116Y-18713220D02*
X125980830Y-17951316D01*
X125695116Y-17475125D02*
X125695116Y-16713221D01*
X125076069Y-15617982D02*
X126076069Y-15284649D01*
X126076069Y-15284649D02*
X125076069Y-14951316D01*
X125695116Y-14617982D02*
X125695116Y-13856078D01*
X125980830Y-12808459D02*
X126028450Y-12856078D01*
X126028450Y-12856078D02*
X126076069Y-12998935D01*
X126076069Y-12998935D02*
X126076069Y-13094173D01*
X126076069Y-13094173D02*
X126028450Y-13237030D01*
X126028450Y-13237030D02*
X125933211Y-13332268D01*
X125933211Y-13332268D02*
X125837973Y-13379887D01*
X125837973Y-13379887D02*
X125647497Y-13427506D01*
X125647497Y-13427506D02*
X125504640Y-13427506D01*
X125504640Y-13427506D02*
X125314164Y-13379887D01*
X125314164Y-13379887D02*
X125218926Y-13332268D01*
X125218926Y-13332268D02*
X125123688Y-13237030D01*
X125123688Y-13237030D02*
X125076069Y-13094173D01*
X125076069Y-13094173D02*
X125076069Y-12998935D01*
X125076069Y-12998935D02*
X125123688Y-12856078D01*
X125123688Y-12856078D02*
X125171307Y-12808459D01*
X125409402Y-11951316D02*
X126076069Y-11951316D01*
X125409402Y-12379887D02*
X125933211Y-12379887D01*
X125933211Y-12379887D02*
X126028450Y-12332268D01*
X126028450Y-12332268D02*
X126076069Y-12237030D01*
X126076069Y-12237030D02*
X126076069Y-12094173D01*
X126076069Y-12094173D02*
X126028450Y-11998935D01*
X126028450Y-11998935D02*
X125980830Y-11951316D01*
X125409402Y-11617982D02*
X125409402Y-11237030D01*
X125076069Y-11475125D02*
X125933211Y-11475125D01*
X125933211Y-11475125D02*
X126028450Y-11427506D01*
X126028450Y-11427506D02*
X126076069Y-11332268D01*
X126076069Y-11332268D02*
X126076069Y-11237030D01*
X44446902Y-17951316D02*
X44732616Y-18713220D01*
X44732616Y-18713220D02*
X45018330Y-17951316D01*
X44732616Y-17475125D02*
X44732616Y-16713221D01*
X44113569Y-15617982D02*
X45113569Y-15284649D01*
X45113569Y-15284649D02*
X44113569Y-14951316D01*
X44732616Y-14617982D02*
X44732616Y-13856078D01*
X45018330Y-12808459D02*
X45065950Y-12856078D01*
X45065950Y-12856078D02*
X45113569Y-12998935D01*
X45113569Y-12998935D02*
X45113569Y-13094173D01*
X45113569Y-13094173D02*
X45065950Y-13237030D01*
X45065950Y-13237030D02*
X44970711Y-13332268D01*
X44970711Y-13332268D02*
X44875473Y-13379887D01*
X44875473Y-13379887D02*
X44684997Y-13427506D01*
X44684997Y-13427506D02*
X44542140Y-13427506D01*
X44542140Y-13427506D02*
X44351664Y-13379887D01*
X44351664Y-13379887D02*
X44256426Y-13332268D01*
X44256426Y-13332268D02*
X44161188Y-13237030D01*
X44161188Y-13237030D02*
X44113569Y-13094173D01*
X44113569Y-13094173D02*
X44113569Y-12998935D01*
X44113569Y-12998935D02*
X44161188Y-12856078D01*
X44161188Y-12856078D02*
X44208807Y-12808459D01*
X44446902Y-11951316D02*
X45113569Y-11951316D01*
X44446902Y-12379887D02*
X44970711Y-12379887D01*
X44970711Y-12379887D02*
X45065950Y-12332268D01*
X45065950Y-12332268D02*
X45113569Y-12237030D01*
X45113569Y-12237030D02*
X45113569Y-12094173D01*
X45113569Y-12094173D02*
X45065950Y-11998935D01*
X45065950Y-11998935D02*
X45018330Y-11951316D01*
X44446902Y-11617982D02*
X44446902Y-11237030D01*
X44113569Y-11475125D02*
X44970711Y-11475125D01*
X44970711Y-11475125D02*
X45065950Y-11427506D01*
X45065950Y-11427506D02*
X45113569Y-11332268D01*
X45113569Y-11332268D02*
X45113569Y-11237030D01*
D13*
%TO.C,LED4*%
X115350000Y-60762500D02*
X113250000Y-60762500D01*
X113250000Y-60762500D02*
X113250000Y-63062500D01*
X113250000Y-63062500D02*
X115350000Y-63062500D01*
X115350000Y-63062500D02*
X115350000Y-60762500D01*
%TO.C,LED6*%
X77250000Y-79812500D02*
X75150000Y-79812500D01*
X75150000Y-79812500D02*
X75150000Y-82112500D01*
X75150000Y-82112500D02*
X77250000Y-82112500D01*
X77250000Y-82112500D02*
X77250000Y-79812500D01*
%TO.C,LED3*%
X96300000Y-60762500D02*
X94200000Y-60762500D01*
X94200000Y-60762500D02*
X94200000Y-63062500D01*
X94200000Y-63062500D02*
X96300000Y-63062500D01*
X96300000Y-63062500D02*
X96300000Y-60762500D01*
%TO.C,LED5*%
X58200000Y-79812500D02*
X56100000Y-79812500D01*
X56100000Y-79812500D02*
X56100000Y-82112500D01*
X56100000Y-82112500D02*
X58200000Y-82112500D01*
X58200000Y-82112500D02*
X58200000Y-79812500D01*
%TO.C,LED7*%
X96300000Y-79812500D02*
X94200000Y-79812500D01*
X94200000Y-79812500D02*
X94200000Y-82112500D01*
X94200000Y-82112500D02*
X96300000Y-82112500D01*
X96300000Y-82112500D02*
X96300000Y-79812500D01*
%TO.C,LED8*%
X115350000Y-79812500D02*
X113250000Y-79812500D01*
X113250000Y-79812500D02*
X113250000Y-82112500D01*
X113250000Y-82112500D02*
X115350000Y-82112500D01*
X115350000Y-82112500D02*
X115350000Y-79812500D01*
%TO.C,LED1*%
X58200000Y-60762500D02*
X56100000Y-60762500D01*
X56100000Y-60762500D02*
X56100000Y-63062500D01*
X56100000Y-63062500D02*
X58200000Y-63062500D01*
X58200000Y-63062500D02*
X58200000Y-60762500D01*
%TO.C,LED2*%
X77250000Y-60762500D02*
X75150000Y-60762500D01*
X75150000Y-60762500D02*
X75150000Y-63062500D01*
X75150000Y-63062500D02*
X77250000Y-63062500D01*
X77250000Y-63062500D02*
X77250000Y-60762500D01*
%TD*%
M02*
