0
SECTION
2
HEADER
9
$INSUNITS
70
4
9
$ACADVER
1
AC1014
9
$HANDSEED
5
FFFF
0
ENDSEC
0
SECTION
2
TABLES
0
TABLE
2
VPORT
5
8
100
AcDbSymbolTable
0
ENDTAB
0
TABLE
2
LTYPE
5
5
100
AcDbSymbolTable
0
LTYPE
5
14
100
AcDbSymbolTableRecord
100
AcDbLinetypeTableRecord
2
BYBLOCK
70
0
0
LTYPE
5
15
100
AcDbSymbolTableRecord
100
AcDbLinetypeTableRecord
2
BYLAYER
70
0
0
ENDTAB
0
TABLE
2
LAYER
5
2
100
AcDbSymbolTable
70
2
0
LAYER
5
50
100
AcDbSymbolTableRecord
100
AcDbLayerTableRecord
2
0
70
0
6
CONTINUOUS
0
ENDTAB
0
TABLE
2
STYLE
5
3
100
AcDbSymbolTable
70
1
0
STYLE
5
11
100
AcDbSymbolTableRecord
100
AcDbTextStyleTableRecord
2
STANDARD
70
0
0
ENDTAB
0
TABLE
2
VIEW
5
6
100
AcDbSymbolTable
70
0
0
ENDTAB
0
TABLE
2
UCS
5
7
100
AcDbSymbolTable
70
0
0
ENDTAB
0
TABLE
2
APPID
5
9
100
AcDbSymbolTable
70
2
0
APPID
5
12
100
AcDbSymbolTableRecord
100
AcDbRegAppTableRecord
2
ACAD
70
0
0
ENDTAB
0
TABLE
2
DIMSTYLE
5
A
100
AcDbSymbolTable
70
1
0
ENDTAB
0
TABLE
2
BLOCK_RECORD
5
1
100
AcDbSymbolTable
70
1
0
BLOCK_RECORD
5
1F
100
AcDbSymbolTableRecord
100
AcDbBlockTableRecord
2
*MODEL_SPACE
0
BLOCK_RECORD
5
1B
100
AcDbSymbolTableRecord
100
AcDbBlockTableRecord
2
*PAPER_SPACE
0
ENDTAB
0
ENDSEC
0
SECTION
2
BLOCKS
0
BLOCK
5
20
100
AcDbEntity
100
AcDbBlockBegin
2
*MODEL_SPACE
0
ENDBLK
5
21
100
AcDbEntity
100
AcDbBlockEnd
0
BLOCK
5
1C
100
AcDbEntity
100
AcDbBlockBegin
2
*PAPER_SPACE
0
ENDBLK
5
1D
100
AcDbEntity
100
AcDbBlockEnd
0
ENDSEC
0
SECTION
2
ENTITIES
0
CIRCLE
5
100
100
AcDbEntity
8
0
100
AcDbCircle
10
-71.675000000000011
20
4.5250000000000012
30
0
40
1.5000000000000002
210
0
220
-0
230
1
0
CIRCLE
5
101
100
AcDbEntity
8
0
100
AcDbCircle
10
19.287500000000001
20
57.387500000000017
30
0
40
1.5000000000000002
210
0
220
-0
230
1
0
CIRCLE
5
102
100
AcDbEntity
8
0
100
AcDbCircle
10
-71.675000000000011
20
57.387500000000017
30
0
40
1.5000000000000002
210
0
220
-0
230
1
0
CIRCLE
5
103
100
AcDbEntity
8
0
100
AcDbCircle
10
19.287500000000001
20
4.5250000000000012
30
0
40
1.5000000000000002
210
0
220
-0
230
1
0
LWPOLYLINE
5
104
100
AcDbEntity
8
0
100
AcDbPolyline
90
27
70
1
43
0.0
10
1.0000000000000011
20
-0.77201716046650948
42
0.36422228025663239
10
1.4136142719753564
20
-1.2644981306507963
42
-0.066238926538500512
10
14.619968364145461
20
-5.4356299212598378
42
0.69829187173446572
10
29.289301832039669
20
9.103641732283446
42
-0.21801185293056322
10
29.289301832039669
20
52.808858267716552
42
0.69829187173446639
10
14.619968364145461
20
67.348129921259883
42
-0.10999338551159379
10
-7.6568871706149375
20
62.387500000000038
10
-44.73061282938508
20
62.387500000000024
42
-0.10999338551159368
10
-67.007468364145453
20
67.348129921259869
42
0.69829187173446639
10
-81.676801832039672
20
52.808858267716573
42
-0.21801185293056322
10
-81.676801832039672
20
9.1036417322834602
42
0.69829187173446716
10
-67.00746836414541
20
-5.4356299212598262
42
-0.10999338551159402
10
-44.730612829384981
20
-0.47499999999997655
10
-15.787500000000003
20
-0.47499999999999987
42
0.41421356237309576
10
-15.287499999999998
20
0.025000000000001736
10
-15.287500000000003
20
8.0250000000000021
42
0.41421356237308982
10
-15.787500000000001
20
8.5250000000000021
10
-65.675000000000011
20
8.5250000000000004
42
-0.41421356237309503
10
-67.675000000000011
20
10.525000000000002
10
-67.674999999999997
20
51.387500000000003
42
-0.41421356237309503
10
-65.674999999999997
20
53.387500000000003
10
13.287500000000003
20
53.38750000000001
42
-0.41421356237309503
10
15.287500000000003
20
51.38750000000001
10
15.287500000000001
20
10.525000000000002
42
-0.41421356237309503
10
13.287500000000001
20
8.5250000000000021
10
1.4999999999999991
20
8.5250000000000004
42
0.41421356237309437
10
0.99999999999999867
20
8.0250000000000021
0
ENDSEC
0
SECTION
2
OBJECTS
0
DICTIONARY
5
C
100
AcDbDictionary
3
ACAD_GROUP
350
D
3
ACAD_MLINESTYLE
350
17
0
DICTIONARY
5
D
100
AcDbDictionary
0
DICTIONARY
5
1A
330
C
100
AcDbDictionary
0
DICTIONARY
5
17
100
AcDbDictionary
0
ENDSEC
0
EOF
